<?xml version="1.0" encoding="UTF-8" standalone="no"?>
<!DOCTYPE svg PUBLIC "-//W3C//DTD SVG 1.1//EN" "http://www.w3.org/Graphics/SVG/1.1/DTD/svg11.dtd">
<svg width="100%" height="100%" viewBox="0 0 2526 3853" version="1.1" xmlns="http://www.w3.org/2000/svg" xmlns:xlink="http://www.w3.org/1999/xlink" xml:space="preserve" xmlns:serif="http://www.serif.com/" style="fill-rule:evenodd;clip-rule:evenodd;stroke-linejoin:round;stroke-miterlimit:2;">
    <g id="Artboard1" transform="matrix(1,0,0,1,2.58374,-5.69419)">
        <rect x="-2.584" y="5.694" width="2525.38" height="3852.83" style="fill:none;"/>
        <clipPath id="_clip1">
            <rect x="-2.584" y="5.694" width="2525.38" height="3852.83"/>
        </clipPath>
        <g clip-path="url(#_clip1)">
            <g id="g10" transform="matrix(11.1111,0,0,-11.1111,-908.577,6079.34)">
                <g id="g18">
                    <g id="g20">
                        <path id="path26" d="M164.796,236.175C162.906,236.794 161.085,237.488 159.326,238.249L159.574,229.551C159.592,228.921 159.314,228.315 158.824,227.917C158.336,227.521 157.687,227.373 157.075,227.519L157.067,227.521L157.018,227.531C156.97,227.542 156.893,227.559 156.789,227.578C156.582,227.619 156.267,227.675 155.864,227.732C155.06,227.845 153.906,227.96 152.564,227.96C151.033,227.961 149.259,227.81 147.477,227.355C145.693,226.9 143.908,226.146 142.295,224.949C140.709,223.771 139.61,222.476 138.904,221.172C138.2,219.865 137.883,218.548 137.882,217.279C137.882,217.168 137.892,217.059 137.897,216.948C137.903,216.961 137.909,216.975 137.916,216.988C138.586,218.279 139.425,219.237 140.245,219.923C141.89,221.298 143.421,221.609 143.551,221.636C144.23,221.769 144.888,221.325 145.021,220.647C145.152,219.972 144.714,219.319 144.042,219.181L144.042,219.18L144.037,219.179L143.981,219.165C143.924,219.15 143.832,219.123 143.711,219.08C143.468,218.996 143.114,218.849 142.711,218.611C141.902,218.13 140.905,217.306 140.139,215.833C139.752,215.087 139.422,214.167 139.219,213.024C139.389,212.776 139.569,212.531 139.771,212.298C140.819,211.089 142.303,210.089 144.219,209.488C144.315,211.393 144.772,212.919 145.442,214.107C146.195,215.449 147.205,216.338 148.136,216.894C148.758,217.266 149.346,217.496 149.82,217.642C150.454,217.834 150.889,217.875 150.958,217.881C151.647,217.939 152.253,217.427 152.31,216.738C152.368,216.052 151.86,215.449 151.176,215.387L151.176,215.386L151.15,215.383C151.12,215.379 151.067,215.371 150.997,215.358C150.856,215.33 150.642,215.28 150.387,215.193C149.875,215.017 149.206,214.695 148.589,214.116C148.177,213.73 147.782,213.231 147.456,212.555C147.039,211.691 146.733,210.522 146.708,208.922C148.054,208.685 149.562,208.483 151.171,208.33C153.356,208.122 155.727,208.005 158.139,208.005C161.22,208.005 164.371,208.196 167.288,208.627C170.205,209.055 172.888,209.728 175.011,210.637C176.428,211.241 177.588,211.949 178.423,212.71C178.827,213.075 179.255,213.625 179.66,214.346C180.067,215.065 180.449,215.947 180.79,216.947C181.476,218.948 181.996,221.41 182.365,223.988C182.771,226.805 183.001,229.758 183.126,232.456C176.472,233.132 170.351,234.355 164.796,236.175" style="fill:rgb(245,174,116);fill-rule:nonzero;"/>
                        <path id="path28" d="M224.81,235.243C220.099,233.929 215.012,233.008 209.566,232.454C209.612,231.456 209.671,230.426 209.75,229.377C210.006,225.969 210.457,222.391 211.199,219.374C211.689,217.363 212.318,215.603 213.031,214.346C213.436,213.625 213.864,213.075 214.268,212.71C215.103,211.949 216.263,211.241 217.68,210.637C219.095,210.031 220.76,209.528 222.576,209.136C226.21,208.347 230.444,208.004 234.552,208.005C236.964,208.005 239.335,208.122 241.52,208.33C243.307,208.499 244.968,208.73 246.422,209.003C246.385,210.708 246.027,211.917 245.557,212.79C245.06,213.709 244.433,214.284 243.826,214.673C243.422,214.93 243.028,215.098 242.704,215.207C242.272,215.35 241.968,215.385 241.956,215.386L241.956,215.387C241.272,215.45 240.765,216.052 240.823,216.737C240.88,217.427 241.486,217.938 242.175,217.881C242.252,217.874 242.793,217.823 243.559,217.561C244.323,217.3 245.318,216.821 246.255,215.945C246.879,215.362 247.471,214.602 247.933,213.643C248.456,212.562 248.808,211.233 248.904,209.632C250.612,210.243 251.952,211.181 252.92,212.298C253.264,212.695 253.556,213.117 253.808,213.555C253.614,214.413 253.347,215.133 253.041,215.74C252.553,216.711 251.965,217.402 251.389,217.908C250.244,218.918 249.115,219.177 249.091,219.18L249.091,219.181C248.419,219.318 247.981,219.972 248.113,220.646C248.245,221.325 248.903,221.768 249.581,221.636C249.682,221.615 250.562,221.434 251.696,220.766C252.676,220.19 253.846,219.229 254.795,217.721C254.729,218.852 254.41,220.016 253.787,221.172C253.081,222.475 251.983,223.77 250.396,224.949C248.783,226.145 246.998,226.899 245.214,227.354C243.432,227.809 241.658,227.961 240.127,227.96C237.526,227.962 235.636,227.524 235.617,227.518C235.005,227.373 234.356,227.52 233.868,227.917C233.378,228.314 233.1,228.921 233.118,229.551L233.365,238.258C230.669,237.089 227.818,236.083 224.81,235.243" style="fill:rgb(245,174,116);fill-rule:nonzero;"/>
                        <path id="path30" d="M236.149,270.025C224.787,268.318 210.078,266.606 196.566,266.605C183.055,266.606 168.345,268.318 156.983,270.025C148.238,271.339 141.487,272.653 138.829,273.191C137.905,271.912 136.917,270.698 135.861,269.563C137.85,263.361 140.74,258.135 144.493,253.771C147.045,250.804 149.999,248.232 153.358,246.028C157.837,243.089 163.041,240.804 168.961,239.153C176.853,236.95 186.014,235.879 196.345,235.879C207.969,235.878 218.103,237.236 226.615,240.032C235.131,242.83 242.016,247.042 247.288,252.796C250.802,256.634 253.608,261.171 255.684,266.496C256.077,267.505 256.441,268.547 256.78,269.616C255.764,270.712 254.812,271.882 253.919,273.113C251.032,272.535 244.501,271.281 236.149,270.025" style="fill:white;fill-rule:nonzero;"/>
                        <path id="path32" d="M178.085,329.728C179.657,329.233 181.314,328.832 182.962,328.519C188.479,327.465 193.877,327.352 195.786,327.353C196.21,327.353 196.462,327.358 196.508,327.359L196.516,327.36L196.567,327.361L196.618,327.36L196.626,327.359L196.658,327.359C196.688,327.358 196.734,327.357 196.796,327.356C196.919,327.355 197.106,327.353 197.348,327.353C198.602,327.353 201.354,327.399 204.661,327.731C207.966,328.061 211.828,328.684 215.261,329.793C215.286,329.801 215.31,329.81 215.335,329.818C209.168,329.04 202.822,328.645 196.346,328.645C190.125,328.645 184.023,329.01 178.085,329.728" style="fill:white;fill-rule:nonzero;"/>
                        <path id="path34" d="M276.753,300.818C273.543,307.19 269.21,313.45 264.845,318.955C258.406,327.08 251.907,333.557 248.846,336.48C248.628,335.823 248.382,335.069 248.12,334.234C247.188,331.271 246.056,327.324 245.259,323.448C244.738,320.918 244.365,318.417 244.271,316.281L244.271,316.276C244.283,316.171 244.3,316.011 244.324,315.803C244.372,315.385 244.447,314.77 244.553,313.986C244.764,312.421 245.099,310.187 245.589,307.537C246.57,302.238 248.181,295.269 250.656,288.672C252.135,284.721 253.931,280.912 256.045,277.679L281.307,288.481C281.108,289.404 280.876,290.335 280.602,291.273C279.684,294.421 278.359,297.632 276.753,300.818" style="fill:white;fill-rule:nonzero;"/>
                        <path id="path36" d="M112.111,291.347C111.845,290.443 111.617,289.545 111.422,288.654L136.991,277.721C137.601,278.686 138.184,279.685 138.737,280.716C141.359,285.59 143.344,291.086 144.81,296.268C147.748,306.635 148.611,315.731 148.653,316.209L148.655,316.229C148.675,316.464 148.737,316.685 148.83,316.889C148.7,318.849 148.359,321.075 147.899,323.327C147.381,325.869 146.716,328.448 146.055,330.763C145.367,333.173 144.686,335.29 144.18,336.799C143.876,336.51 143.53,336.18 143.145,335.807C141.561,334.274 139.335,332.053 136.783,329.316C131.678,323.843 125.27,316.298 120.092,308.107C116.64,302.649 113.739,296.903 112.111,291.347" style="fill:white;fill-rule:nonzero;"/>
                        <path id="path38" d="M221.988,348.118C219.571,346.072 216.599,344.335 213.01,343.029C208.224,341.285 202.348,340.3 195.15,340.299C187.053,340.3 180.625,341.547 175.546,343.717C170.467,345.883 166.758,348.993 164.199,352.567C162.491,354.948 161.291,357.522 160.48,360.14C159.399,363.633 159.004,367.203 159.004,370.574C159.004,374.051 159.425,377.32 159.979,380.093C160.534,382.868 161.22,385.14 161.781,386.657C162.681,389.074 163.015,391.965 163.012,394.732C163.012,395.214 163,395.69 162.982,396.162C162.557,396.513 162.089,396.938 161.618,397.446C160.827,398.304 160.025,399.395 159.49,400.754C159.135,401.659 158.906,402.684 158.906,403.79L158.907,403.874C158.91,404.282 158.944,404.681 158.996,405.073C157.3,403.259 154.887,402.124 152.207,402.124C147.073,402.124 142.911,406.285 142.911,411.419C142.911,416.553 147.073,420.716 152.207,420.716C157.341,420.716 161.503,416.553 161.503,411.419C161.503,410.952 161.467,410.493 161.401,410.045C162.306,410.951 163.41,411.644 164.63,412.086C165.732,412.488 166.928,412.692 168.169,412.692C170.272,412.691 172.503,412.101 174.683,410.903C174.729,410.892 174.786,410.88 174.869,410.866C175.126,410.822 175.56,410.769 176.172,410.769C177.996,410.771 181.426,411.229 186.484,413.884C186.52,413.903 186.558,413.916 186.594,413.933C188.997,415.225 191.948,415.96 195.15,415.963C198.351,415.96 201.302,415.225 203.705,413.933C203.741,413.916 203.78,413.903 203.816,413.884C208.873,411.229 212.303,410.771 214.128,410.769C214.93,410.769 215.424,410.859 215.616,410.902C217.797,412.101 220.027,412.691 222.13,412.692C223.99,412.692 225.752,412.232 227.242,411.338C227.847,410.976 228.402,410.537 228.899,410.038C228.832,410.489 228.797,410.95 228.797,411.419C228.797,416.553 232.958,420.716 238.092,420.716C243.226,420.716 247.388,416.553 247.388,411.419C247.388,406.285 243.226,402.124 238.092,402.124C235.414,402.124 233.002,403.258 231.306,405.07C231.358,404.68 231.389,404.282 231.393,403.876L231.394,403.796C231.394,402.74 231.155,401.76 230.801,400.891C230.445,400.021 229.976,399.255 229.476,398.583C228.76,397.624 227.983,396.852 227.322,396.27C227.301,395.763 227.287,395.25 227.287,394.73C227.284,391.964 227.618,389.074 228.517,386.657C229.079,385.14 229.764,382.868 230.32,380.093C230.874,377.319 231.295,374.051 231.296,370.573C231.295,366.782 230.796,362.736 229.381,358.835C227.969,354.938 225.617,351.186 221.988,348.118M143.593,429.673C144.628,430.845 145.901,431.805 147.342,432.472C148.782,433.139 150.393,433.514 152.08,433.513C153.767,433.514 155.377,433.139 156.818,432.472C158.259,431.805 159.531,430.845 160.566,429.673C161.308,428.832 161.228,427.55 160.387,426.808C159.547,426.066 158.264,426.146 157.523,426.987C156.854,427.744 156.033,428.362 155.112,428.789C154.189,429.216 153.169,429.453 152.08,429.454C150.99,429.453 149.97,429.216 149.048,428.789C148.127,428.362 147.305,427.744 146.637,426.987C145.895,426.146 144.613,426.066 143.772,426.808C142.932,427.55 142.852,428.832 143.593,429.673M229.57,429.673C230.605,430.845 231.878,431.805 233.319,432.472C234.759,433.139 236.369,433.514 238.056,433.513C239.743,433.514 241.354,433.139 242.794,432.472C244.235,431.805 245.508,430.845 246.543,429.673C247.284,428.832 247.205,427.55 246.364,426.808C245.524,426.066 244.241,426.146 243.5,426.987C242.831,427.744 242.009,428.362 241.088,428.789C240.166,429.216 239.146,429.453 238.056,429.454C236.967,429.453 235.947,429.216 235.025,428.789C234.103,428.362 233.282,427.744 232.613,426.987C231.871,426.146 230.589,426.066 229.749,426.808C228.908,427.55 228.828,428.832 229.57,429.673M269.655,489.158C256.207,502.042 239.076,511.406 219.895,515.672C219.701,515.699 219.37,515.756 218.928,515.877C217.812,516.115 216.689,516.334 215.559,516.537L216.637,516.797C215.545,517.383 214.315,518.266 213.166,519.578C212.144,520.743 211.193,522.239 210.451,524.119C209.46,526.628 208.838,529.809 208.833,533.835C208.831,534.97 208.641,535.848 208.359,536.515C208.074,537.183 207.705,537.65 207.263,538.008C206.967,538.246 206.634,538.434 206.255,538.577C205.751,538.767 205.163,538.872 204.51,538.872C202.999,538.878 201.152,538.288 199.476,537.08C197.797,535.875 196.29,534.083 195.352,531.743C194.726,530.182 194.348,528.373 194.348,526.302C194.348,525.636 194.387,524.944 194.47,524.224C194.94,520.209 196.208,517.762 197.332,516.273C198.457,514.788 199.472,514.257 199.482,514.252L199.481,514.25C200.47,513.755 200.883,512.556 200.401,511.556C199.915,510.546 198.701,510.122 197.692,510.609C197.535,510.684 196.638,511.14 195.509,512.226C194.38,513.31 193.025,515.03 191.98,517.566C191.282,519.256 190.722,521.304 190.438,523.757C190.359,524.44 190.321,525.106 190.304,525.762C189.879,526.535 189.477,527.355 189.115,528.225C188.023,530.852 187.29,533.923 187.291,537.378C187.291,537.495 187.292,537.613 187.294,537.731L187.294,537.73C187.294,537.779 187.295,537.827 187.295,537.874C187.295,538.976 187.111,539.826 186.839,540.469C186.565,541.114 186.21,541.561 185.784,541.906C185.5,542.135 185.177,542.317 184.809,542.455C184.32,542.639 183.746,542.741 183.106,542.741C181.598,542.747 179.734,542.148 178.037,540.919C176.338,539.693 174.808,537.868 173.855,535.485C173.219,533.896 172.835,532.055 172.835,529.946C172.835,529.341 172.866,528.713 172.934,528.063C173.201,525.503 173.883,523.384 174.811,521.592C175.74,519.801 176.922,518.333 178.213,517.119C180.79,514.692 183.832,513.3 185.924,512.584C187.317,512.106 188.279,511.924 188.372,511.908L188.379,511.906C189.482,511.716 190.223,510.669 190.035,509.566C189.847,508.461 188.799,507.717 187.694,507.905C187.606,507.921 186.269,508.152 184.324,508.844C182.381,509.536 179.824,510.687 177.316,512.577C176.1,513.493 174.898,514.588 173.793,515.886C160.92,513.151 148.951,508.128 138.373,501.282C121.831,490.574 108.699,475.415 100.845,457.623C95.609,445.76 92.715,432.727 92.715,419.035C92.715,408.766 94.342,399.342 97.35,390.792C100.359,382.242 104.748,374.564 110.3,367.793C121.4,354.255 137.172,344.333 155.819,338.557C156.07,338.479 156.324,338.408 156.575,338.331C163.644,336.333 168.166,335.639 168.3,335.619L168.302,335.618L169.134,335.494L169.354,335.198C177.953,333.554 187,332.704 196.346,332.704C205.88,332.704 215.101,333.589 223.854,335.3L223.998,335.494L224.83,335.618L224.833,335.619L224.849,335.621C224.864,335.623 224.888,335.627 224.921,335.633C224.988,335.643 225.09,335.66 225.226,335.682C225.498,335.728 225.906,335.8 226.441,335.902C227.245,336.055 228.335,336.275 229.671,336.576C233.725,337.565 237.668,338.732 241.473,340.087C255.091,344.935 267.007,352.091 276.461,361.327C282.764,367.487 287.976,374.57 291.881,382.534C297.086,393.153 299.976,405.343 299.977,419.035C299.977,432.727 297.083,445.76 291.846,457.623C286.611,469.485 279.03,480.175 269.655,489.158" style="fill:white;fill-rule:nonzero;"/>
                        <path id="path40" d="M199.479,514.251L199.479,514.252L199.479,514.251ZM256.046,277.679C253.932,280.912 252.136,284.72 250.657,288.672C248.182,295.268 246.57,302.237 245.589,307.537C245.099,310.187 244.765,312.42 244.553,313.987C244.448,314.77 244.372,315.386 244.324,315.802C244.3,316.011 244.283,316.17 244.271,316.276C244.271,316.278 244.271,316.279 244.27,316.281C244.365,318.417 244.738,320.918 245.259,323.448C246.056,327.323 247.188,331.271 248.12,334.233C248.382,335.068 248.628,335.822 248.846,336.479C251.907,333.556 258.406,327.079 264.845,318.955C269.21,313.45 273.542,307.189 276.753,300.817C278.359,297.632 279.684,294.42 280.602,291.272C280.876,290.334 281.108,289.404 281.307,288.48L256.046,277.679ZM166.914,331.734C167.677,330.84 168.553,330.05 169.512,329.357C171.604,327.849 174.062,326.76 176.626,325.931C180.474,324.691 184.576,324.044 188.068,323.693C191.558,323.342 194.434,323.294 195.787,323.294C196.195,323.294 196.462,323.299 196.567,323.301C196.672,323.299 196.939,323.294 197.348,323.294C199.412,323.296 205.002,323.404 210.932,324.532C213.899,325.099 216.954,325.918 219.726,327.152C221.111,327.77 222.427,328.494 223.622,329.357C224.581,330.051 225.457,330.84 226.219,331.734C228.465,332.127 235.346,333.47 244.604,336.568C244.191,335.289 243.719,333.768 243.241,332.104C242.549,329.696 241.844,326.988 241.284,324.265C240.725,321.542 240.309,318.811 240.208,316.311L240.203,316.171L240.217,316.032C240.223,315.975 240.874,309.35 242.834,300.845C243.815,296.592 245.124,291.868 246.856,287.248C248.217,283.62 249.842,280.059 251.79,276.831C248.355,276.161 242.125,275.009 234.483,273.881C223.397,272.246 209.33,270.664 196.567,270.665C183.393,270.664 168.829,272.349 157.588,274.04C151.966,274.885 147.172,275.731 143.788,276.364C142.862,276.537 142.047,276.694 141.344,276.831C143.292,280.059 144.917,283.62 146.278,287.248C148.875,294.176 150.524,301.344 151.535,306.798C152.545,312.252 152.914,315.99 152.918,316.032L152.932,316.171L152.926,316.311C152.826,318.811 152.409,321.543 151.851,324.265C151.011,328.347 149.844,332.402 148.886,335.45C148.764,335.84 148.645,336.213 148.53,336.568C157.788,333.47 164.669,332.128 166.914,331.734M215.261,329.794C211.829,328.685 207.966,328.061 204.661,327.732C201.354,327.4 198.602,327.354 197.348,327.354C197.106,327.354 196.92,327.356 196.796,327.357C196.734,327.357 196.688,327.359 196.658,327.359L196.626,327.359L196.619,327.359L196.567,327.36L196.516,327.359L196.509,327.359C196.463,327.359 196.21,327.354 195.787,327.354C193.878,327.352 188.479,327.465 182.962,328.519C181.314,328.833 179.657,329.233 178.085,329.729C184.024,329.01 190.125,328.645 196.346,328.645C202.822,328.645 209.168,329.04 215.335,329.818C215.311,329.811 215.286,329.801 215.261,329.794M136.783,329.316C139.335,332.053 141.562,334.274 143.146,335.806C143.53,336.179 143.876,336.509 144.18,336.799C144.687,335.291 145.368,333.173 146.056,330.763C146.716,328.448 147.381,325.87 147.899,323.328C148.359,321.075 148.701,318.849 148.83,316.888C148.738,316.684 148.676,316.463 148.655,316.228L148.653,316.209C148.611,315.73 147.748,306.634 144.811,296.267C143.345,291.085 141.359,285.589 138.738,280.715C138.185,279.684 137.601,278.685 136.991,277.72L111.422,288.653C111.618,289.544 111.846,290.442 112.111,291.346C113.74,296.902 116.64,302.648 120.093,308.106C125.271,316.297 131.679,323.842 136.783,329.315M180.791,216.947C180.45,215.947 180.067,215.064 179.661,214.345C179.256,213.625 178.828,213.075 178.424,212.709C177.589,211.949 176.429,211.241 175.012,210.636C172.889,209.727 170.206,209.054 167.289,208.626C164.372,208.196 161.221,208.004 158.14,208.004C155.728,208.004 153.357,208.122 151.172,208.33C149.563,208.482 148.055,208.684 146.709,208.921C146.733,210.521 147.04,211.69 147.457,212.554C147.783,213.23 148.178,213.729 148.59,214.116C149.207,214.694 149.875,215.016 150.388,215.192C150.643,215.28 150.857,215.33 150.998,215.357C151.068,215.371 151.121,215.378 151.15,215.382L151.177,215.385L151.177,215.386C151.861,215.449 152.369,216.051 152.311,216.738C152.253,217.426 151.648,217.938 150.958,217.88C150.89,217.875 150.455,217.834 149.821,217.641C149.347,217.496 148.759,217.265 148.137,216.893C147.206,216.337 146.196,215.449 145.442,214.106C144.773,212.918 144.315,211.392 144.22,209.487C142.304,210.088 140.82,211.088 139.771,212.297C139.57,212.531 139.39,212.775 139.22,213.023C139.423,214.167 139.752,215.086 140.14,215.833C140.906,217.305 141.903,218.129 142.711,218.61C143.115,218.848 143.469,218.996 143.711,219.08C143.833,219.123 143.925,219.149 143.981,219.165L144.038,219.178L144.043,219.179L144.041,219.18C144.714,219.318 145.152,219.971 145.021,220.646C144.889,221.325 144.231,221.768 143.552,221.635C143.421,221.608 141.891,221.297 140.246,219.922C139.426,219.236 138.587,218.279 137.916,216.987C137.909,216.974 137.903,216.96 137.897,216.948C137.892,217.058 137.883,217.168 137.883,217.279C137.884,218.547 138.201,219.865 138.904,221.171C139.61,222.475 140.708,223.77 142.295,224.949C143.908,226.145 145.693,226.899 147.477,227.354C149.259,227.809 151.033,227.96 152.564,227.959C153.906,227.959 155.06,227.844 155.864,227.731C156.267,227.674 156.582,227.619 156.789,227.578C156.894,227.558 156.97,227.542 157.019,227.531L157.068,227.52L157.076,227.518C157.687,227.373 158.336,227.52 158.825,227.917C159.314,228.314 159.593,228.92 159.575,229.55L159.327,238.249C161.085,237.488 162.907,236.793 164.797,236.174C170.352,234.354 176.473,233.131 183.127,232.456C183.001,229.757 182.771,226.804 182.366,223.988C181.997,221.41 181.477,218.948 180.791,216.947M233.869,227.917C234.357,227.52 235.006,227.373 235.618,227.518C235.636,227.524 237.527,227.961 240.127,227.959C241.659,227.96 243.433,227.809 245.214,227.354C246.999,226.899 248.784,226.145 250.397,224.949C251.983,223.77 253.082,222.475 253.786,221.171C254.409,220.016 254.729,218.852 254.795,217.72C253.845,219.229 252.675,220.19 251.695,220.766C250.562,221.434 249.682,221.615 249.581,221.635C248.902,221.768 248.245,221.325 248.112,220.646C247.98,219.971 248.419,219.318 249.092,219.18L249.092,219.179C249.115,219.176 250.243,218.918 251.39,217.908C251.964,217.402 252.553,216.71 253.041,215.74C253.347,215.132 253.615,214.413 253.807,213.554C253.556,213.117 253.263,212.695 252.92,212.297C251.952,211.18 250.612,210.243 248.904,209.631C248.807,211.233 248.455,212.562 247.933,213.643C247.47,214.602 246.878,215.362 246.255,215.945C245.318,216.821 244.323,217.299 243.559,217.561C242.794,217.823 242.252,217.874 242.176,217.88C241.486,217.938 240.881,217.426 240.823,216.737C240.766,216.051 241.272,215.45 241.956,215.386L241.955,215.385C241.967,215.384 242.272,215.35 242.704,215.207C243.027,215.098 243.422,214.929 243.826,214.672C244.432,214.284 245.059,213.709 245.557,212.79C246.026,211.917 246.385,210.708 246.422,209.002C244.967,208.73 243.307,208.499 241.521,208.33C239.335,208.122 236.964,208.004 234.552,208.004C230.445,208.003 226.211,208.347 222.577,209.135C220.76,209.528 219.095,210.031 217.68,210.636C216.264,211.241 215.104,211.949 214.269,212.709C213.865,213.075 213.437,213.625 213.031,214.345C212.318,215.603 211.69,217.363 211.199,219.374C210.458,222.391 210.006,225.968 209.751,229.376C209.672,230.425 209.613,231.456 209.566,232.454C215.013,233.007 220.099,233.928 224.811,235.243C227.818,236.083 230.669,237.088 233.366,238.257L233.119,229.55C233.101,228.92 233.379,228.314 233.869,227.917M255.685,266.496C253.609,261.17 250.803,256.634 247.289,252.795C242.017,247.042 235.131,242.83 226.616,240.032C218.104,237.236 207.969,235.877 196.345,235.878C186.015,235.878 176.854,236.95 168.962,239.153C163.042,240.804 157.838,243.089 153.359,246.028C149.999,248.232 147.046,250.804 144.493,253.771C140.741,258.135 137.85,263.361 135.861,269.563C136.918,270.698 137.906,271.912 138.829,273.191C141.487,272.653 148.238,271.339 156.983,270.025C168.345,268.318 183.055,266.606 196.566,266.605C210.078,266.606 224.787,268.318 236.149,270.025C244.5,271.281 251.032,272.535 253.919,273.113C254.812,271.882 255.764,270.711 256.78,269.616C256.44,268.547 256.077,267.505 255.684,266.496M291.881,382.533C287.976,374.569 282.763,367.486 276.46,361.327C267.006,352.09 255.09,344.934 241.473,340.086C237.667,338.731 233.724,337.564 229.67,336.575C228.334,336.274 227.245,336.054 226.44,335.901C225.907,335.799 225.497,335.728 225.225,335.682C225.089,335.659 224.987,335.643 224.92,335.632C224.887,335.626 224.863,335.623 224.848,335.621L224.832,335.618L224.83,335.618L223.998,335.494L223.853,335.299C215.101,333.588 205.879,332.704 196.345,332.704C186.999,332.704 177.952,333.553 169.353,335.197L169.134,335.494L168.302,335.618L168.3,335.618C168.166,335.638 163.644,336.333 156.576,338.331C156.324,338.407 156.07,338.479 155.819,338.557C137.172,344.333 121.4,354.254 110.299,367.792C104.748,374.564 100.358,382.241 97.351,390.791C94.343,399.341 92.715,408.765 92.715,419.035C92.715,432.726 95.609,445.759 100.846,457.622C108.699,475.415 121.831,490.573 138.374,501.281C148.951,508.127 160.92,513.15 173.793,515.885C174.898,514.587 176.101,513.492 177.316,512.577C179.824,510.687 182.381,509.537 184.324,508.844C186.269,508.152 187.606,507.921 187.694,507.905C188.799,507.717 189.848,508.46 190.036,509.566C190.223,510.669 189.482,511.715 188.379,511.905L188.373,511.907C188.279,511.924 187.317,512.106 185.924,512.584C183.833,513.299 180.79,514.691 178.213,517.118C176.922,518.333 175.741,519.8 174.812,521.591C173.883,523.383 173.201,525.502 172.934,528.063C172.867,528.712 172.835,529.34 172.835,529.945C172.835,532.054 173.22,533.895 173.855,535.484C174.808,537.867 176.338,539.692 178.038,540.918C179.734,542.147 181.599,542.746 183.106,542.74C183.747,542.74 184.32,542.638 184.81,542.454C185.178,542.316 185.5,542.134 185.785,541.905C186.21,541.561 186.565,541.113 186.839,540.468C187.111,539.825 187.295,538.975 187.295,537.874C187.295,537.826 187.294,537.778 187.294,537.73C187.292,537.612 187.291,537.495 187.291,537.377C187.291,533.922 188.023,530.852 189.115,528.225C189.477,527.354 189.879,526.535 190.305,525.761C190.321,525.105 190.359,524.439 190.438,523.756C190.723,521.303 191.283,519.255 191.98,517.565C193.025,515.029 194.38,513.31 195.509,512.226C196.638,511.14 197.535,510.684 197.692,510.608C198.702,510.121 199.915,510.545 200.401,511.555C200.883,512.556 200.471,513.754 199.481,514.25L199.482,514.251C199.473,514.256 198.458,514.788 197.332,516.272C196.208,517.761 194.94,520.209 194.471,524.223C194.387,524.943 194.348,525.635 194.348,526.301C194.349,528.373 194.727,530.181 195.352,531.743C196.291,534.082 197.797,535.875 199.476,537.08C201.152,538.287 203,538.877 204.51,538.871C205.163,538.871 205.751,538.766 206.255,538.577C206.634,538.434 206.968,538.245 207.264,538.007C207.705,537.649 208.074,537.182 208.359,536.514C208.642,535.847 208.832,534.969 208.833,533.834C208.838,529.809 209.46,526.627 210.452,524.119C211.193,522.238 212.145,520.742 213.166,519.578C214.315,518.265 215.545,517.382 216.637,516.796L215.56,516.537C216.689,516.334 217.812,516.114 218.928,515.876C219.371,515.755 219.701,515.698 219.895,515.671C239.077,511.405 256.208,502.041 269.655,489.157C279.03,480.174 286.611,469.484 291.847,457.622C297.083,445.759 299.977,432.726 299.978,419.035C299.976,405.342 297.086,393.152 291.881,382.533M272.464,492.087C258.28,505.679 240.16,515.484 219.897,519.82C219.526,519.928 219.008,520.118 218.424,520.446C217.877,520.753 217.273,521.179 216.667,521.777C215.761,522.675 214.839,523.959 214.121,525.887C213.404,527.814 212.897,530.394 212.892,533.84C212.891,535.248 212.68,536.532 212.263,537.675C211.951,538.531 211.521,539.306 210.991,539.976C210.196,540.983 209.176,541.741 208.059,542.224C206.94,542.71 205.731,542.93 204.51,542.93C202.833,542.929 201.123,542.52 199.49,541.768C197.042,540.637 194.75,538.721 193.056,536.101C192.551,535.321 192.102,534.476 191.719,533.574C191.486,534.766 191.351,536.031 191.351,537.377C191.351,537.475 191.351,537.573 191.353,537.672C191.354,537.739 191.354,537.807 191.354,537.874C191.354,539.252 191.149,540.511 190.741,541.634C190.436,542.475 190.013,543.237 189.491,543.897C188.709,544.887 187.704,545.632 186.603,546.106C185.501,546.584 184.31,546.799 183.106,546.799C181.422,546.797 179.704,546.382 178.06,545.619C175.596,544.473 173.284,542.532 171.573,539.877C169.862,537.226 168.773,533.854 168.776,529.945C168.776,529.197 168.815,528.429 168.897,527.643C169.221,524.493 170.106,521.783 171.328,519.496C151.658,515.007 134.069,505.35 120.229,492.087C100.737,473.416 88.654,447.571 88.656,419.035C88.654,404.771 91.678,391.937 97.166,380.746C101.281,372.353 106.778,364.887 113.395,358.423C121.268,350.731 130.726,344.463 141.334,339.692C138.346,336.856 131.626,330.217 124.877,321.743C120.361,316.069 115.828,309.575 112.394,302.803C110.677,299.417 109.235,295.959 108.216,292.49C107.198,289.021 106.602,285.537 106.602,282.104C106.601,279.193 107.035,276.317 108.007,273.557C108.026,273.499 108.267,272.79 108.759,271.741C109.5,270.168 110.792,267.823 112.848,265.766C113.877,264.74 115.105,263.786 116.563,263.081C118.018,262.376 119.707,261.931 121.562,261.933C123.027,261.932 124.586,262.207 126.211,262.794C127.836,263.383 129.53,264.282 131.302,265.535C131.747,265.849 132.179,266.182 132.604,266.523C132.785,266.017 132.972,265.516 133.165,265.021C135.41,259.267 138.495,254.274 142.368,250.053C145.989,246.104 150.291,242.84 155.21,240.222L155.448,231.87C154.631,231.954 153.657,232.018 152.565,232.019C150.771,232.018 148.669,231.846 146.475,231.288C144.282,230.728 141.99,229.776 139.877,228.209C137.864,226.715 136.346,224.973 135.334,223.101C134.323,221.231 133.823,219.234 133.824,217.279C133.821,214.481 134.846,211.783 136.702,209.641C138.557,207.496 141.235,205.91 144.482,205.219C146.333,204.825 148.472,204.508 150.788,204.289C153.104,204.069 155.596,203.946 158.14,203.945C162.473,203.947 166.95,204.299 170.974,205.168C172.986,205.604 174.887,206.168 176.608,206.904C178.328,207.641 179.875,208.546 181.153,209.706C181.972,210.451 182.632,211.352 183.197,212.351C184.18,214.1 184.883,216.167 185.436,218.407C186.258,221.765 186.721,225.522 186.99,229.074C187.068,230.113 187.127,231.13 187.174,232.118C190.135,231.92 193.191,231.82 196.346,231.82C199.502,231.82 202.558,231.919 205.518,232.117C205.649,229.365 205.888,226.347 206.309,223.409C206.705,220.665 207.256,217.992 208.061,215.633C208.464,214.453 208.933,213.35 209.496,212.35C210.061,211.352 210.721,210.451 211.54,209.706L211.539,209.706C212.817,208.546 214.364,207.641 216.084,206.904C218.666,205.802 221.652,205.078 224.812,204.611C227.971,204.145 231.303,203.946 234.552,203.945C237.096,203.946 239.588,204.069 241.904,204.289C244.221,204.508 246.359,204.825 248.21,205.219C251.458,205.91 254.136,207.496 255.99,209.641C257.847,211.783 258.872,214.481 258.869,217.279C258.87,219.234 258.37,221.231 257.358,223.101C256.347,224.973 254.828,226.715 252.816,228.209C250.703,229.776 248.41,230.728 246.218,231.288C244.023,231.846 241.921,232.018 240.127,232.019C239.036,232.018 238.062,231.954 237.245,231.87L237.482,240.241C238.881,240.987 240.234,241.782 241.532,242.634C245.186,245.035 248.431,247.863 251.232,251.126C254.986,255.497 257.933,260.647 260.038,266.564C260.479,266.209 260.928,265.862 261.39,265.535C263.163,264.282 264.856,263.383 266.482,262.794C268.106,262.207 269.666,261.932 271.13,261.933C272.366,261.933 273.531,262.128 274.599,262.469C276.472,263.067 278.036,264.098 279.313,265.259C281.229,267.007 282.536,269.051 283.397,270.667C284.255,272.284 284.66,273.481 284.686,273.557L284.685,273.557C285.658,276.317 286.091,279.193 286.091,282.104C286.09,285.537 285.494,289.021 284.476,292.49C282.691,298.561 279.618,304.598 276.03,310.275C270.647,318.787 264.095,326.487 258.878,332.083C255.673,335.52 252.976,338.158 251.362,339.689C264.943,345.797 276.632,354.367 285.531,365.218C291.373,372.341 296.005,380.444 299.171,389.444C302.338,398.443 304.037,408.336 304.037,419.035C304.037,447.571 291.955,473.416 272.464,492.087" style="fill:rgb(51,45,43);fill-rule:nonzero;"/>
                        <path id="path42" d="M199.479,514.251L199.479,514.252L199.479,514.251Z" style="fill:white;fill-rule:nonzero;"/>
                        <path id="path44" d="M170.147,397.231C170.36,398.331 171.425,399.051 172.525,398.838L172.532,398.836L172.566,398.83C172.597,398.824 172.646,398.815 172.711,398.804C172.842,398.78 173.039,398.747 173.294,398.705C173.805,398.623 174.55,398.512 175.47,398.4C177.265,398.183 179.728,397.967 182.394,397.958C182.418,397.958 182.447,397.959 182.481,397.96C182.602,397.965 182.781,397.972 183.01,397.983C183.47,398.006 184.131,398.046 184.922,398.113C186.503,398.247 188.607,398.492 190.635,398.92C191.986,399.204 193.303,399.572 194.384,400.013L195.149,400.325L195.916,400.013C196.979,399.579 198.272,399.216 199.601,398.934C200.93,398.651 202.296,398.445 203.527,398.3C205.795,398.032 207.6,397.967 207.933,397.957C213.233,397.978 217.706,398.823 217.773,398.838L217.773,398.837C218.874,399.051 219.939,398.331 220.152,397.231C220.365,396.13 219.646,395.065 218.545,394.853C218.476,394.841 214.593,394.087 209.545,393.927C209.407,393.611 209.243,393.311 209.054,393.029C208.496,392.198 207.758,391.517 206.908,390.931C205.205,389.767 203.023,388.955 200.521,388.459C198.853,388.131 197.043,387.954 195.149,387.954C192.975,387.954 190.911,388.188 189.045,388.614C187.179,389.043 185.51,389.66 184.109,390.476C183.176,391.023 182.356,391.658 181.696,392.433C181.32,392.876 180.998,393.367 180.759,393.91C180.756,393.916 180.755,393.921 180.752,393.927C175.705,394.088 171.823,394.841 171.754,394.853C170.653,395.065 169.934,396.13 170.147,397.231M225.941,361.34C226.874,364.348 227.237,367.52 227.236,370.573C227.237,373.721 226.852,376.739 226.339,379.296C225.829,381.853 225.189,383.957 224.71,385.247C223.575,388.327 223.23,391.651 223.228,394.73C223.228,395.638 223.259,396.524 223.311,397.377C223.347,397.957 223.624,398.485 224.079,398.845C224.508,399.184 225.115,399.711 225.678,400.344C226.243,400.975 226.755,401.712 227.042,402.423C227.235,402.899 227.335,403.354 227.335,403.796L227.334,403.83C227.317,405.003 226.995,405.915 226.478,406.644C225.957,407.369 225.223,407.926 224.278,408.272C223.648,408.502 222.927,408.632 222.129,408.632C220.719,408.632 219.071,408.221 217.345,407.225C217.157,407.116 216.956,407.046 216.753,407.003C216.349,406.894 215.471,406.71 214.127,406.71C211.613,406.708 207.519,407.364 202.003,410.252C201.964,410.27 201.925,410.285 201.888,410.306C200.15,411.273 197.774,411.907 195.149,411.904C192.524,411.907 190.149,411.273 188.411,410.306C188.374,410.285 188.334,410.27 188.296,410.252C182.78,407.364 178.686,406.708 176.172,406.71C174.753,406.71 173.852,406.915 173.482,407.02C173.301,407.065 173.123,407.127 172.954,407.225C171.228,408.221 169.58,408.632 168.168,408.632C166.971,408.632 165.947,408.339 165.144,407.857C164.34,407.371 163.747,406.708 163.372,405.852C163.124,405.28 162.974,404.613 162.966,403.832L162.965,403.79C162.966,403.239 163.075,402.731 163.269,402.236C163.462,401.742 163.744,401.265 164.075,400.826C164.734,399.947 165.593,399.237 166.145,398.846C166.647,398.487 166.955,397.931 166.992,397.315C167.042,396.482 167.071,395.617 167.071,394.731C167.068,391.652 166.725,388.327 165.588,385.247C165.109,383.957 164.469,381.853 163.959,379.297C163.447,376.739 163.062,373.722 163.063,370.574C163.062,367.139 163.522,363.555 164.733,360.221C165.949,356.883 167.892,353.794 170.934,351.217C172.964,349.499 175.496,348.002 178.678,346.842C182.918,345.297 188.32,344.358 195.149,344.358C202.834,344.357 208.707,345.546 213.158,347.449C217.611,349.357 220.662,351.957 222.802,354.933C224.227,356.918 225.242,359.084 225.941,361.34" style="fill:rgb(245,174,116);fill-rule:nonzero;"/>
                        <path id="path46" d="M213.158,347.449C208.707,345.546 202.833,344.357 195.149,344.358C188.32,344.358 182.918,345.297 178.678,346.842C175.496,348.002 172.964,349.498 170.933,351.217C167.891,353.794 165.949,356.883 164.733,360.22C163.521,363.554 163.061,367.138 163.062,370.574C163.062,373.721 163.447,376.739 163.959,379.297C164.469,381.852 165.109,383.957 165.588,385.246C166.724,388.326 167.068,391.652 167.071,394.731C167.071,395.617 167.042,396.482 166.991,397.315C166.954,397.93 166.647,398.487 166.145,398.845C165.593,399.237 164.734,399.947 164.075,400.826C163.743,401.265 163.462,401.741 163.269,402.236C163.075,402.731 162.966,403.239 162.965,403.79L162.966,403.832C162.974,404.613 163.124,405.28 163.372,405.852C163.747,406.708 164.34,407.371 165.144,407.857C165.947,408.339 166.971,408.632 168.168,408.632C169.579,408.632 171.228,408.22 172.954,407.224C173.122,407.127 173.301,407.065 173.482,407.02C173.852,406.914 174.753,406.709 176.172,406.71C178.685,406.707 182.78,407.364 188.296,410.252C188.334,410.27 188.374,410.285 188.411,410.305C190.149,411.272 192.524,411.907 195.149,411.904C197.774,411.907 200.15,411.272 201.887,410.305C201.925,410.285 201.964,410.27 202.003,410.251C207.519,407.364 211.613,406.707 214.127,406.71C215.471,406.709 216.349,406.893 216.753,407.003C216.956,407.046 217.157,407.116 217.345,407.224C219.071,408.22 220.719,408.632 222.129,408.632C222.927,408.632 223.648,408.501 224.278,408.272C225.223,407.926 225.957,407.369 226.477,406.643C226.994,405.915 227.317,405.003 227.334,403.83L227.334,403.796C227.334,403.354 227.235,402.899 227.041,402.423C226.755,401.712 226.243,400.975 225.678,400.344C225.115,399.711 224.508,399.183 224.078,398.845C223.623,398.485 223.346,397.956 223.311,397.377C223.259,396.524 223.227,395.637 223.227,394.729C223.23,391.651 223.575,388.326 224.71,385.246C225.189,383.957 225.829,381.852 226.339,379.296C226.851,376.739 227.237,373.72 227.236,370.573C227.237,367.52 226.874,364.348 225.941,361.34C225.242,359.083 224.226,356.918 222.802,354.933C220.661,351.957 217.611,349.357 213.158,347.449M150.229,413.093C148.532,411.85 146.426,411.842 145.525,413.073C144.625,414.304 145.272,416.308 146.969,417.55C148.667,418.791 150.773,418.8 151.673,417.569C152.573,416.338 151.927,414.333 150.229,413.093M232.947,417.55C234.644,418.791 236.749,418.8 237.65,417.569C238.55,416.338 237.904,414.333 236.206,413.093C234.509,411.85 232.403,411.842 231.503,413.073C230.602,414.304 231.249,416.308 232.947,417.55M229.381,358.835C230.795,362.735 231.294,366.781 231.295,370.573C231.295,374.05 230.874,377.319 230.32,380.092C229.764,382.867 229.078,385.139 228.517,386.656C227.617,389.074 227.283,391.964 227.286,394.729C227.286,395.25 227.301,395.762 227.322,396.269C227.983,396.852 228.76,397.623 229.475,398.582C229.975,399.255 230.445,400.021 230.8,400.891C231.155,401.759 231.393,402.74 231.393,403.796L231.393,403.875C231.388,404.281 231.357,404.679 231.305,405.07C233.002,403.257 235.414,402.123 238.092,402.123C243.226,402.123 247.388,406.284 247.388,411.418C247.388,416.553 243.226,420.715 238.092,420.715C232.958,420.715 228.796,416.553 228.796,411.418C228.796,410.949 228.831,410.488 228.899,410.037C228.402,410.537 227.846,410.975 227.241,411.337C225.752,412.232 223.99,412.692 222.129,412.691C220.027,412.691 217.796,412.101 215.616,410.902C215.424,410.859 214.93,410.769 214.127,410.769C212.303,410.771 208.873,411.229 203.815,413.883C203.779,413.902 203.741,413.916 203.704,413.932C201.302,415.224 198.351,415.96 195.149,415.963C191.948,415.96 188.996,415.224 186.594,413.932C186.557,413.916 186.519,413.902 186.483,413.883C181.426,411.229 177.996,410.771 176.172,410.769C175.559,410.769 175.126,410.822 174.869,410.866C174.786,410.88 174.728,410.891 174.682,410.902C172.502,412.101 170.271,412.691 168.168,412.691C166.928,412.691 165.732,412.487 164.63,412.086C163.41,411.643 162.305,410.95 161.401,410.045C161.467,410.493 161.502,410.951 161.502,411.418C161.502,416.553 157.341,420.715 152.207,420.715C147.073,420.715 142.91,416.553 142.91,411.418C142.91,406.284 147.073,402.123 152.207,402.123C154.887,402.123 157.3,403.259 158.996,405.072C158.944,404.68 158.91,404.281 158.907,403.873L158.906,403.79C158.906,402.684 159.135,401.658 159.49,400.754C160.024,399.395 160.826,398.303 161.618,397.445C162.088,396.938 162.556,396.512 162.982,396.161C162.999,395.69 163.012,395.214 163.012,394.731C163.015,391.964 162.681,389.074 161.781,386.657C161.22,385.139 160.534,382.867 159.979,380.092C159.425,377.319 159.004,374.051 159.003,370.574C159.004,367.203 159.399,363.633 160.48,360.14C161.29,357.522 162.491,354.948 164.199,352.567C166.757,348.993 170.467,345.882 175.545,343.717C180.625,341.547 187.053,340.299 195.149,340.299C202.347,340.299 208.223,341.285 213.01,343.028C216.598,344.334 219.571,346.072 221.988,348.117C225.617,351.186 227.969,354.938 229.381,358.835" style="fill:rgb(51,45,43);fill-rule:nonzero;"/>
                        <path id="path48" d="M146.969,417.55C145.272,416.308 144.625,414.304 145.525,413.073C146.426,411.842 148.532,411.85 150.229,413.092C151.927,414.333 152.573,416.338 151.673,417.569C150.773,418.8 148.667,418.791 146.969,417.55" style="fill:white;fill-rule:nonzero;"/>
                        <path id="path50" d="M236.207,413.093C237.905,414.334 238.551,416.338 237.65,417.569C236.75,418.8 234.645,418.792 232.947,417.551C231.249,416.308 230.603,414.305 231.503,413.073C232.403,411.843 234.51,411.851 236.207,413.093" style="fill:white;fill-rule:nonzero;"/>
                        <path id="path52" d="M200.348,392.571C198.805,392.217 197.032,392.012 195.15,392.012C193.511,392.012 191.955,392.167 190.561,392.441C188.613,392.82 186.99,393.45 185.922,394.128C186.304,394.164 186.704,394.206 187.123,394.254C188.458,394.409 189.959,394.63 191.473,394.948C192.717,395.211 193.964,395.544 195.15,395.968C196.336,395.544 197.583,395.211 198.827,394.948C200.813,394.53 202.781,394.28 204.376,394.128C204.299,394.079 204.227,394.029 204.144,393.981C203.201,393.429 201.89,392.923 200.348,392.571M171.754,394.852C171.824,394.841 175.705,394.088 180.753,393.926C180.755,393.921 180.757,393.915 180.759,393.91C180.998,393.367 181.321,392.876 181.697,392.433C182.357,391.658 183.177,391.022 184.11,390.476C185.511,389.66 187.18,389.043 189.046,388.614C190.911,388.187 192.975,387.953 195.15,387.953C197.044,387.953 198.853,388.131 200.521,388.458C203.023,388.955 205.205,389.766 206.909,390.93C207.758,391.516 208.496,392.198 209.055,393.029C209.243,393.311 209.408,393.611 209.545,393.926C214.594,394.087 218.476,394.841 218.545,394.852C219.646,395.065 220.365,396.13 220.152,397.23C219.939,398.331 218.874,399.05 217.774,398.837L217.774,398.838C217.706,398.822 213.234,397.977 207.933,397.956C207.6,397.967 205.796,398.031 203.527,398.3C202.296,398.445 200.93,398.651 199.601,398.933C198.272,399.216 196.979,399.578 195.916,400.013L195.15,400.325L194.384,400.013C193.304,399.571 191.986,399.204 190.636,398.92C188.608,398.492 186.503,398.246 184.922,398.113C184.131,398.046 183.47,398.006 183.011,397.983C182.781,397.971 182.602,397.965 182.482,397.96C182.447,397.959 182.419,397.958 182.394,397.957C179.728,397.967 177.265,398.183 175.47,398.4C174.551,398.511 173.805,398.622 173.294,398.705C173.039,398.746 172.842,398.78 172.711,398.803C172.646,398.815 172.598,398.824 172.566,398.83L172.533,398.836L172.526,398.838C171.425,399.05 170.36,398.331 170.147,397.231C169.934,396.13 170.654,395.065 171.754,394.852" style="fill:rgb(51,45,43);fill-rule:nonzero;"/>
                        <path id="path54" d="M232.613,426.986C233.282,427.744 234.103,428.361 235.025,428.788C235.947,429.215 236.967,429.453 238.056,429.453C239.146,429.453 240.166,429.215 241.088,428.788C242.009,428.361 242.831,427.744 243.5,426.986C244.241,426.146 245.524,426.066 246.364,426.807C247.205,427.549 247.284,428.832 246.543,429.672C245.508,430.844 244.235,431.804 242.794,432.471C241.354,433.139 239.743,433.513 238.056,433.512C236.369,433.513 234.759,433.139 233.319,432.471C231.878,431.804 230.605,430.844 229.57,429.672C228.828,428.832 228.908,427.549 229.749,426.807C230.589,426.066 231.871,426.146 232.613,426.986" style="fill:rgb(51,45,43);fill-rule:nonzero;"/>
                        <path id="path56" d="M146.637,426.986C147.305,427.744 148.127,428.361 149.048,428.788C149.97,429.215 150.991,429.453 152.08,429.453C153.169,429.453 154.189,429.215 155.112,428.788C156.033,428.361 156.854,427.744 157.523,426.986C158.264,426.146 159.547,426.066 160.387,426.807C161.228,427.549 161.308,428.832 160.566,429.672C159.532,430.844 158.259,431.804 156.818,432.471C155.377,433.139 153.767,433.513 152.08,433.512C150.393,433.513 148.782,433.139 147.342,432.471C145.901,431.804 144.628,430.844 143.594,429.672C142.852,428.832 142.932,427.549 143.772,426.807C144.613,426.066 145.895,426.146 146.637,426.986" style="fill:rgb(51,45,43);fill-rule:nonzero;"/>
                        <path id="path58" d="M204.376,394.128C202.78,394.28 200.813,394.53 198.827,394.948C197.583,395.211 196.335,395.544 195.149,395.969C193.964,395.544 192.716,395.211 191.472,394.948C189.959,394.63 188.458,394.409 187.123,394.254C186.704,394.206 186.303,394.165 185.922,394.128C186.989,393.451 188.613,392.82 190.561,392.441C191.955,392.168 193.511,392.012 195.149,392.013C197.032,392.012 198.805,392.217 200.348,392.571C201.89,392.923 203.201,393.429 204.144,393.982C204.227,394.03 204.298,394.079 204.376,394.128" style="fill:rgb(235,96,75);fill-rule:nonzero;"/>
                        <path id="path60" d="M169.983,309.577C170.206,309.588 170.414,309.592 170.606,309.592C174.057,309.592 176.906,308.454 179.072,306.209C181.235,303.966 182.333,300.832 182.333,296.893C182.333,293.207 181.274,290.143 179.183,287.786C177.161,285.499 174.387,284.302 170.935,284.222L170.935,284.219L170.688,284.217L159.397,284.217L159.397,289.801L159.398,289.801L159.398,291.617L161.196,291.617L161.196,302.371L159.419,302.371L159.419,303.973L159.418,303.973L159.418,309.577L169.983,309.577ZM186.822,306.119C188.988,308.497 191.984,309.702 195.729,309.702C197.114,309.702 198.373,309.544 199.51,309.248L199.51,309.698L206.704,309.698L206.704,309.642L206.707,309.642L206.707,298.397L198.065,298.397C197.833,300.994 196.938,302.299 195.345,302.371C193.696,302.115 192.859,300.29 192.859,296.946C192.859,294.811 193.134,293.357 193.677,292.622C194.157,291.967 194.797,291.621 195.631,291.562C196.333,291.672 196.883,292.009 197.311,292.592C197.705,293.126 197.956,294.045 198.064,295.327L198.563,295.327L198.563,295.326L206.714,295.326L206.714,283.955L202.111,283.955L202.115,283.952L199.52,283.952L199.52,284.723C198.34,284.381 197.059,284.206 195.69,284.206C192.122,284.206 189.176,285.348 186.937,287.601C184.697,289.857 183.563,293.007 183.563,296.967C183.563,300.672 184.66,303.751 186.822,306.119M208.902,309.694L208.905,309.694L208.905,309.697L218.811,309.697L218.811,309.694L220.161,309.694L220.161,302.532L219.234,302.532L219.234,294.995C219.234,294.057 219.301,293.364 219.43,292.935C219.553,292.532 219.788,292.221 220.152,291.986C220.523,291.746 220.988,291.624 221.539,291.624C221.726,291.624 221.913,291.636 222.092,291.662C222.288,291.721 222.465,291.804 222.62,291.905C222.982,292.139 223.217,292.451 223.339,292.854C223.468,293.283 223.533,293.976 223.533,294.915L223.533,301.743L223.534,301.743L223.534,302.532L222.437,302.532L222.437,309.698L223.984,309.698L223.984,309.713L233.733,309.713L233.733,309.698L233.735,309.698L233.735,302.532L232.342,302.532L232.342,293.691C232.342,291.247 231.959,289.361 231.203,288.078C230.444,286.789 229.291,285.784 227.771,285.087C226.265,284.397 224.222,284.047 221.698,284.047C220.566,284.047 219.494,284.128 218.51,284.29C217.126,284.449 215.923,284.752 214.955,285.194C213.427,285.89 212.267,286.897 211.503,288.184C210.743,289.466 210.357,291.355 210.357,293.799L210.357,302.532L208.902,302.532L208.902,309.694ZM148.529,336.569C148.644,336.214 148.763,335.841 148.885,335.451C149.843,332.402 151.01,328.348 151.85,324.266C152.408,321.543 152.825,318.81 152.925,316.31L152.931,316.171L152.917,316.032C152.913,315.99 152.545,312.251 151.534,306.798C150.523,301.344 148.874,294.177 146.277,287.247C144.916,283.619 143.292,280.059 141.343,276.83C142.046,276.694 142.861,276.536 143.787,276.364C147.171,275.731 151.965,274.885 157.587,274.039C168.828,272.349 183.392,270.663 196.566,270.664C209.329,270.663 223.397,272.245 234.482,273.881C242.125,275.009 248.354,276.16 251.789,276.83C249.841,280.059 248.216,283.619 246.855,287.247C245.123,291.868 243.815,296.592 242.834,300.845C240.873,309.35 240.222,315.974 240.216,316.032L240.202,316.171L240.208,316.31C240.308,318.81 240.724,321.543 241.283,324.266C241.843,326.988 242.548,329.696 243.24,332.103C243.718,333.768 244.191,335.29 244.604,336.569C235.345,333.471 228.464,332.128 226.218,331.735C225.456,330.841 224.58,330.051 223.621,329.357C222.426,328.494 221.11,327.771 219.725,327.153C216.953,325.918 213.898,325.098 210.931,324.532C205.001,323.404 199.411,323.296 197.347,323.294C196.939,323.294 196.671,323.299 196.566,323.301C196.462,323.299 196.194,323.294 195.786,323.294C194.433,323.295 191.557,323.343 188.067,323.693C184.575,324.045 180.473,324.691 176.626,325.931C174.061,326.76 171.603,327.849 169.511,329.357C168.552,330.051 167.676,330.841 166.913,331.735C164.668,332.128 157.787,333.471 148.529,336.569" style="fill:rgb(23,73,155);fill-rule:nonzero;"/>
                        <path id="path62" d="M210.725,303.659L210.725,308.168L218.952,308.168L218.952,303.659L217.804,303.659L217.804,294.177C217.804,293.028 217.907,292.18 218.114,291.638C218.321,291.096 218.733,290.662 219.353,290.346C219.97,290.028 220.732,289.867 221.638,289.867C221.961,289.867 222.263,289.886 222.548,289.918C222.882,289.997 223.189,290.106 223.466,290.249C224.083,290.567 224.492,291.001 224.698,291.542C224.904,292.084 225.006,292.931 225.006,294.081L225.006,303.673L223.909,303.673L223.909,308.182L231.998,308.182L231.998,303.673L230.781,303.673L230.781,294.081C230.781,291.929 230.461,290.294 229.817,289.176C229.173,288.058 228.205,287.197 226.912,286.59C225.62,285.984 223.879,285.679 221.693,285.679C220.693,285.679 219.778,285.755 218.941,285.895C217.74,286.035 216.719,286.299 215.887,286.685C214.585,287.293 213.613,288.154 212.965,289.27C212.317,290.389 211.995,292.025 211.995,294.177L211.995,303.659L210.725,303.659ZM210.855,302.532L210.853,302.532L210.853,293.799C210.853,291.445 211.216,289.641 211.93,288.437C212.642,287.238 213.728,286.299 215.162,285.645C216.083,285.225 217.233,284.934 218.58,284.781C219.549,284.621 220.594,284.542 221.699,284.542C224.151,284.542 226.124,284.877 227.565,285.537C228.991,286.19 230.071,287.13 230.776,288.33C231.487,289.533 231.847,291.337 231.847,293.69L231.847,302.532L231.846,302.532L231.846,303.027L233.238,303.027L233.238,309.201L222.935,309.201L222.935,303.027L224.029,303.027L224.029,302.669L224.03,302.669L224.03,294.915C224.03,293.914 223.96,293.193 223.816,292.712C223.66,292.197 223.35,291.786 222.892,291.487C222.692,291.358 222.465,291.254 222.216,291.181L222.181,291.173C221.973,291.142 221.757,291.128 221.54,291.128C220.892,291.128 220.334,291.276 219.883,291.569C219.424,291.866 219.112,292.277 218.956,292.791C218.81,293.272 218.739,293.993 218.739,294.995L218.739,302.669L218.741,302.669L218.741,303.027L219.666,303.027L219.666,309.197L209.402,309.197L209.402,305.062L209.399,305.059L209.399,303.027L210.855,303.027L210.855,302.532Z" style="fill:rgb(23,73,155);fill-rule:nonzero;"/>
                        <path id="path64" d="M170.054,290.606L170.015,290.609L168.195,290.609L168.195,303.031L170.369,303.031L170.369,303.014C171.353,302.933 172.14,302.49 172.71,301.695C173.338,300.823 173.644,299.239 173.644,296.851C173.644,292.705 172.463,290.603 170.135,290.603L170.054,290.606ZM170.699,289.865C173.506,289.865 174.908,292.237 174.908,296.99C174.908,299.735 174.525,301.596 173.762,302.571C173.021,303.522 171.993,304.002 170.68,304.03L170.68,304.035L170.581,304.035L170.567,304.036L170.549,304.035L166.995,304.035L166.995,289.87L170.553,289.87C170.602,289.869 170.649,289.865 170.699,289.865" style="fill:rgb(23,73,155);fill-rule:nonzero;"/>
                        <path id="path66" d="M187.934,305.033C189.811,307.134 192.378,308.182 195.632,308.182C197.609,308.182 199.277,307.827 200.647,307.132L200.647,308.156L205.156,308.156L205.156,299.897L205.122,299.897L205.122,299.895L199.356,299.895C199.149,302.625 197.881,304.012 195.521,304.012C192.649,304.012 191.216,301.645 191.216,296.906C191.216,294.168 191.605,292.312 192.387,291.34C193.167,290.364 194.257,289.881 195.658,289.881C197.84,289.881 199.197,291.157 199.75,293.686L200.698,293.686L200.698,293.689L205.206,293.689L205.206,285.712L200.698,285.712L200.698,286.891C199.224,286.105 197.525,285.709 195.597,285.709C192.493,285.709 189.97,286.705 188.028,288.696C186.086,290.688 185.113,293.439 185.113,296.955C185.113,300.242 186.055,302.937 187.934,305.033M195.69,284.702C197.262,284.702 198.711,284.937 200.015,285.401L200.015,285.125L200.017,285.126L200.017,284.452L206.219,284.452L206.219,294.828L198.514,294.828C198.378,293.679 198.113,292.843 197.711,292.298C197.205,291.605 196.519,291.191 195.678,291.066L195.652,291.061L195.626,291.063C194.638,291.128 193.848,291.553 193.278,292.327C192.663,293.161 192.364,294.672 192.364,296.945C192.364,300.591 193.351,302.582 195.297,302.865L195.32,302.868L195.342,302.867C197.111,302.8 198.17,301.465 198.504,298.892L206.212,298.892L206.212,309.201L200.074,309.201L200.074,308.711L200.077,308.711L200.077,308.576C200.013,308.596 199.95,308.614 199.889,308.631C198.67,309.012 197.279,309.206 195.729,309.206C192.131,309.206 189.258,308.055 187.189,305.784C185.113,303.509 184.06,300.543 184.06,296.966C184.06,293.142 185.146,290.109 187.288,287.951C189.433,285.795 192.26,284.702 195.69,284.702" style="fill:rgb(23,73,155);fill-rule:nonzero;"/>
                        <path id="path68" d="M172.307,301.406C171.778,302.142 171.062,302.51 170.115,302.532L169.912,302.535L168.691,302.535L168.691,291.105L170.084,291.103L170.135,291.101C172.161,291.101 173.148,292.982 173.148,296.851C173.148,299.1 172.865,300.632 172.307,301.406" style="fill:rgb(23,73,155);fill-rule:nonzero;"/>
                        <path id="path70" d="M160.861,308.205L170.068,308.205C170.251,308.213 170.437,308.219 170.625,308.219C173.658,308.219 176.123,307.218 178.022,305.223C179.918,303.226 180.868,300.466 180.868,296.94C180.868,293.644 179.948,290.941 178.113,288.84C176.298,286.759 173.825,285.709 170.696,285.685L170.696,285.684L160.842,285.684L160.842,290.291L162.475,290.291L162.475,293.994L162.477,293.994L162.477,300.219L162.475,300.219L162.475,303.579L160.861,303.579L160.861,308.205ZM161.196,302.868L161.722,302.868L161.722,291.116L161.226,291.116L161.226,291.121L159.895,291.121L159.895,291.116L159.889,291.116L159.889,288.254L159.893,288.254L159.893,284.712L170.686,284.714C174.105,284.74 176.839,285.884 178.812,288.114C180.819,290.378 181.837,293.331 181.837,296.893C181.837,300.699 180.787,303.717 178.716,305.864C176.647,308.009 173.919,309.097 170.606,309.097C170.42,309.097 170.22,309.092 169.993,309.081L159.915,309.081L159.915,302.867L161.196,302.867L161.196,302.868Z" style="fill:rgb(23,73,155);fill-rule:nonzero;"/>
                        <path id="path72" d="M195.597,285.709C197.525,285.709 199.224,286.105 200.698,286.892L200.698,285.712L205.206,285.712L205.206,293.689L200.698,293.689L200.698,293.687L199.75,293.687C199.197,291.157 197.84,289.881 195.658,289.881C194.257,289.881 193.167,290.364 192.387,291.34C191.605,292.313 191.216,294.168 191.216,296.906C191.216,301.646 192.649,304.013 195.521,304.013C197.881,304.013 199.149,302.625 199.356,299.895L205.122,299.895L205.122,299.897L205.156,299.897L205.156,308.156L200.647,308.156L200.647,307.132C199.277,307.828 197.609,308.182 195.632,308.182C192.378,308.182 189.811,307.134 187.934,305.033C186.055,302.937 185.113,300.242 185.113,296.956C185.113,293.439 186.086,290.688 188.028,288.696C189.97,286.705 192.493,285.709 195.597,285.709" style="fill:white;fill-rule:nonzero;"/>
                        <path id="path74" d="M211.994,294.177C211.994,292.026 212.316,290.39 212.965,289.271C213.612,288.155 214.585,287.293 215.886,286.686C216.719,286.299 217.739,286.035 218.941,285.896C219.778,285.755 220.693,285.679 221.692,285.679C223.879,285.679 225.619,285.985 226.911,286.59C228.205,287.198 229.172,288.059 229.816,289.176C230.46,290.294 230.781,291.929 230.781,294.081L230.781,303.674L231.997,303.674L231.997,308.183L223.908,308.183L223.908,303.674L225.005,303.674L225.005,294.081C225.005,292.932 224.903,292.084 224.697,291.542C224.492,291.001 224.083,290.568 223.466,290.249C223.189,290.107 222.882,289.997 222.548,289.918C222.263,289.886 221.961,289.867 221.637,289.867C220.732,289.867 219.97,290.029 219.352,290.346C218.732,290.662 218.32,291.097 218.113,291.639C217.907,292.181 217.804,293.029 217.804,294.177L217.804,303.659L218.951,303.659L218.951,308.169L210.724,308.169L210.724,303.659L211.994,303.659L211.994,294.177Z" style="fill:white;fill-rule:nonzero;"/>
                        <path id="path76" d="M166.995,304.035L170.549,304.035L170.566,304.036L170.581,304.035L170.68,304.035L170.68,304.031C171.993,304.003 173.02,303.522 173.761,302.572C174.525,301.596 174.908,299.736 174.908,296.99C174.908,292.237 173.505,289.865 170.699,289.865C170.648,289.865 170.601,289.869 170.553,289.87L166.995,289.87L166.995,304.035ZM162.475,300.219L162.477,300.219L162.477,293.994L162.475,293.994L162.475,290.291L160.843,290.291L160.843,285.683L170.697,285.683L170.697,285.685C173.826,285.709 176.298,286.759 178.114,288.84C179.949,290.941 180.868,293.644 180.868,296.94C180.868,300.466 179.918,303.226 178.022,305.222C176.123,307.218 173.658,308.219 170.625,308.219C170.437,308.219 170.251,308.213 170.068,308.205L160.861,308.205L160.861,303.578L162.475,303.578L162.475,300.219Z" style="fill:white;fill-rule:nonzero;"/>
                        <path id="path78" d="M170.134,291.101L170.083,291.103L168.69,291.105L168.69,302.536L169.912,302.536L170.114,302.532C171.062,302.51 171.778,302.142 172.306,301.406C172.864,300.632 173.147,299.1 173.147,296.851C173.147,292.982 172.161,291.101 170.134,291.101M173.643,296.851C173.643,299.24 173.338,300.824 172.71,301.696C172.139,302.491 171.353,302.934 170.368,303.015L170.368,303.032L168.194,303.032L168.194,290.61L170.014,290.61L170.053,290.607L170.134,290.604C172.463,290.604 173.643,292.705 173.643,296.851" style="fill:white;fill-rule:nonzero;"/>
                        <path id="path80" d="M187.189,305.784C189.257,308.055 192.131,309.206 195.729,309.206C197.279,309.206 198.67,309.012 199.889,308.631C199.949,308.614 200.013,308.596 200.077,308.576L200.077,308.711L200.073,308.711L200.073,309.201L206.211,309.201L206.211,298.892L198.504,298.892C198.169,301.465 197.11,302.8 195.341,302.867L195.319,302.868L195.297,302.865C193.351,302.582 192.364,300.591 192.364,296.945C192.364,294.672 192.663,293.161 193.278,292.327C193.847,291.553 194.637,291.128 195.626,291.063L195.651,291.061L195.677,291.066C196.519,291.191 197.204,291.605 197.711,292.298C198.112,292.843 198.378,293.679 198.514,294.828L206.219,294.828L206.219,284.452L200.017,284.452L200.017,285.126L200.014,285.125L200.014,285.401C198.71,284.937 197.262,284.702 195.69,284.702C192.259,284.702 189.432,285.795 187.288,287.951C185.146,290.109 184.06,293.142 184.06,296.966C184.06,300.543 185.112,303.509 187.189,305.784M195.69,284.206C197.059,284.206 198.341,284.381 199.52,284.722L199.52,283.952L202.116,283.952L202.111,283.955L206.714,283.955L206.714,295.325L198.564,295.325L198.564,295.326L198.064,295.326C197.957,294.045 197.705,293.126 197.312,292.592C196.884,292.009 196.334,291.672 195.631,291.561C194.798,291.621 194.158,291.967 193.678,292.622C193.135,293.356 192.86,294.81 192.86,296.945C192.86,300.289 193.696,302.115 195.346,302.37C196.938,302.299 197.833,300.993 198.065,298.397L206.708,298.397L206.708,309.641L206.705,309.641L206.705,309.698L199.511,309.698L199.511,309.248C198.374,309.544 197.115,309.702 195.729,309.702C191.985,309.702 188.988,308.497 186.822,306.118C184.66,303.751 183.564,300.672 183.564,296.966C183.564,293.007 184.698,289.856 186.937,287.6C189.177,285.347 192.123,284.206 195.69,284.206" style="fill:white;fill-rule:nonzero;"/>
                        <path id="path82" d="M209.399,303.027L209.399,305.059L209.402,305.062L209.402,309.197L219.666,309.197L219.666,303.027L218.741,303.027L218.741,302.669L218.739,302.669L218.739,294.995C218.739,293.993 218.81,293.273 218.956,292.791C219.111,292.277 219.423,291.866 219.883,291.569C220.334,291.277 220.892,291.128 221.54,291.128C221.756,291.128 221.972,291.143 222.18,291.173L222.216,291.182C222.464,291.254 222.692,291.359 222.892,291.487C223.35,291.786 223.659,292.197 223.816,292.712C223.96,293.194 224.03,293.914 224.03,294.915L224.03,302.669L224.029,302.669L224.029,303.027L222.935,303.027L222.935,309.201L233.238,309.201L233.238,303.027L231.845,303.027L231.845,302.532L231.847,302.532L231.847,293.691C231.847,291.337 231.487,289.533 230.776,288.33C230.07,287.13 228.99,286.191 227.565,285.537C226.124,284.877 224.15,284.542 221.699,284.542C220.593,284.542 219.548,284.621 218.58,284.781C217.233,284.935 216.083,285.226 215.161,285.646C213.728,286.299 212.641,287.238 211.929,288.438C211.215,289.642 210.853,291.445 210.853,293.799L210.853,302.532L210.855,302.532L210.855,303.027L209.399,303.027ZM210.357,293.799C210.357,291.355 210.743,289.466 211.503,288.184C212.267,286.897 213.427,285.89 214.955,285.194C215.924,284.752 217.126,284.448 218.511,284.29C219.494,284.128 220.566,284.047 221.699,284.047C224.222,284.047 226.265,284.397 227.772,285.087C229.291,285.783 230.445,286.789 231.204,288.078C231.96,289.36 232.343,291.247 232.343,293.691L232.343,302.532L233.735,302.532L233.735,309.698L233.734,309.698L233.734,309.713L223.985,309.713L223.985,309.698L222.438,309.698L222.438,302.532L223.534,302.532L223.534,301.742L223.533,301.742L223.533,294.915C223.533,293.976 223.469,293.282 223.339,292.854C223.218,292.45 222.982,292.139 222.62,291.904C222.465,291.804 222.288,291.721 222.093,291.662C221.913,291.636 221.727,291.624 221.54,291.624C220.989,291.624 220.523,291.746 220.153,291.985C219.789,292.221 219.553,292.531 219.431,292.935C219.302,293.363 219.235,294.057 219.235,294.995L219.235,301.742L219.234,301.742L219.234,302.532L220.161,302.532L220.161,309.694L218.812,309.694L218.812,309.696L208.906,309.696L208.906,309.694L208.903,309.694L208.903,302.532L210.357,302.532L210.357,293.799Z" style="fill:white;fill-rule:nonzero;"/>
                        <path id="path84" d="M159.915,302.867L159.915,309.081L169.994,309.081C170.221,309.092 170.42,309.097 170.606,309.097C173.919,309.097 176.647,308.009 178.716,305.864C180.787,303.717 181.837,300.699 181.837,296.893C181.837,293.331 180.819,290.378 178.812,288.114C176.839,285.884 174.105,284.74 170.686,284.714L159.894,284.712L159.894,288.254L159.889,288.254L159.889,291.116L159.895,291.116L159.895,291.121L161.227,291.121L161.227,291.116L161.723,291.116L161.723,302.868L161.196,302.868L161.196,302.867L159.915,302.867ZM159.418,303.973L159.419,303.973L159.419,302.37L161.196,302.37L161.196,291.616L159.398,291.616L159.398,289.801L159.397,289.801L159.397,284.217L170.688,284.217L170.936,284.219L170.936,284.222C174.388,284.302 177.161,285.499 179.184,287.786C181.274,290.142 182.333,293.207 182.333,296.893C182.333,300.832 181.236,303.966 179.073,306.209C176.906,308.453 174.057,309.591 170.606,309.591C170.414,309.591 170.207,309.588 169.983,309.577L159.418,309.577L159.418,303.973Z" style="fill:white;fill-rule:nonzero;"/>
                    </g>
                </g>
                <g id="g180">
                </g>
                <g id="g204">
                </g>
                <g id="g214">
                </g>
                <g id="g238">
                </g>
                <g id="g248">
                </g>
                <g id="g272">
                </g>
                <g id="g282">
                </g>
                <g id="g306">
                </g>
                <g id="g316">
                </g>
                <g id="g340">
                </g>
                <g id="g350">
                </g>
                <g id="g374">
                </g>
                <g id="g384">
                </g>
                <g id="g408">
                </g>
                <g id="g598">
                </g>
                <g id="g622">
                </g>
                <g id="g632">
                </g>
                <g id="g656">
                </g>
                <g id="g666">
                </g>
                <g id="g690">
                </g>
                <g id="g700">
                </g>
                <g id="g724">
                </g>
                <g id="g862">
                </g>
                <g id="g886">
                </g>
                <g id="g896">
                </g>
                <g id="g920">
                </g>
                <g id="g930">
                </g>
                <g id="g954">
                </g>
                <g id="g964">
                </g>
                <g id="g988">
                </g>
                <g id="g998">
                </g>
                <g id="g1022">
                </g>
                <g id="g1160">
                </g>
                <g id="g1184">
                </g>
                <g id="g1194">
                </g>
                <g id="g1218">
                </g>
                <g id="g1228">
                </g>
                <g id="g1252">
                </g>
                <g id="g1262">
                </g>
                <g id="g1286">
                </g>
                <g id="g1296">
                </g>
                <g id="g1320">
                </g>
                <g id="g1330">
                </g>
                <g id="g1354">
                </g>
                <g id="g1364">
                </g>
                <g id="g1388">
                </g>
                <g id="g1528">
                </g>
                <g id="g1552">
                </g>
                <g id="g1562">
                </g>
                <g id="g1586">
                </g>
                <g id="g1596">
                </g>
                <g id="g1620">
                </g>
                <g id="g1856">
                </g>
                <g id="g1880">
                </g>
                <g id="g1890">
                </g>
                <g id="g1914">
                </g>
                <g id="g1924">
                </g>
                <g id="g1948">
                </g>
                <g id="g1958">
                </g>
                <g id="g1982">
                </g>
                <g id="g1992">
                </g>
                <g id="g2016">
                </g>
                <g id="g2026">
                </g>
                <g id="g2050">
                </g>
                <g id="g2060">
                </g>
                <g id="g2084">
                </g>
                <g id="g2112">
                </g>
                <g id="g2124">
                </g>
                <g id="g2164">
                </g>
                <g id="g2176">
                </g>
                <g id="g2196">
                </g>
                <g id="g2208">
                </g>
                <g id="g2220">
                </g>
                <g id="g2232">
                </g>
                <g id="g2256">
                </g>
                <g id="g2268">
                </g>
                <g id="g2284">
                </g>
                <g id="g2296">
                </g>
                <g id="g2308">
                </g>
                <g id="g2320">
                </g>
                <g id="g2336">
                </g>
                <g id="g2348">
                </g>
                <g id="g2512">
                </g>
                <g id="g2536">
                </g>
                <g id="g2546">
                </g>
                <g id="g2570">
                </g>
                <g id="g2580">
                </g>
                <g id="g2604">
                </g>
                <g id="g2614">
                </g>
                <g id="g2638">
                </g>
                <g id="g2648">
                </g>
                <g id="g2672">
                </g>
                <g id="g2682">
                </g>
                <g id="g2706">
                </g>
                <g id="g2716">
                </g>
                <g id="g2740">
                </g>
                <g id="g2750">
                </g>
                <g id="g2774">
                </g>
                <g id="g2784">
                </g>
                <g id="g2808">
                </g>
                <g id="g2818">
                </g>
                <g id="g2842">
                </g>
                <g id="g2852">
                </g>
                <g id="g2876">
                </g>
                <g id="g2886">
                </g>
                <g id="g2910">
                </g>
                <g id="g2920">
                </g>
                <g id="g2944">
                </g>
                <g id="g2954">
                </g>
                <g id="g2978">
                </g>
                <g id="g2988">
                </g>
                <g id="g3012">
                </g>
                <g id="g3022">
                </g>
                <g id="g3046">
                </g>
                <g id="g3056">
                </g>
                <g id="g3080">
                </g>
                <g id="g3090">
                </g>
                <g id="g3114">
                </g>
                <g id="g3124">
                </g>
                <g id="g3148">
                </g>
                <g id="g3158">
                </g>
                <g id="g3182">
                </g>
                <g id="g3192">
                </g>
                <g id="g3216">
                </g>
                <g id="g3334">
                </g>
                <g id="g3358">
                </g>
                <g id="g3368">
                </g>
                <g id="g3392">
                </g>
                <g id="g3402">
                </g>
                <g id="g3426">
                </g>
                <g id="g3556">
                </g>
                <g id="g3580">
                </g>
                <g id="g3590">
                </g>
                <g id="g3614">
                </g>
                <g id="g3624">
                </g>
                <g id="g3648">
                </g>
                <g id="g3658">
                </g>
                <g id="g3682">
                </g>
                <g id="g3692">
                </g>
                <g id="g3716">
                </g>
                <g id="g3726">
                </g>
                <g id="g3750">
                </g>
                <g id="g4046">
                </g>
                <g id="g4070">
                </g>
                <g id="g4080">
                </g>
                <g id="g4104">
                </g>
                <g id="g4114">
                </g>
                <g id="g4138">
                </g>
                <g id="g4148">
                </g>
                <g id="g4172">
                </g>
                <g id="g4182">
                </g>
                <g id="g4206">
                </g>
                <g id="g4216">
                </g>
                <g id="g4240">
                </g>
                <g id="g4250">
                </g>
                <g id="g4274">
                </g>
                <g id="g4284">
                </g>
                <g id="g4308">
                </g>
                <g id="g4318">
                </g>
                <g id="g4342">
                </g>
                <g id="g4352">
                </g>
                <g id="g4376">
                </g>
                <g id="g4386">
                </g>
                <g id="g4410">
                </g>
                <g id="g4420">
                </g>
                <g id="g4444">
                </g>
                <g id="g4454">
                </g>
                <g id="g4478">
                </g>
                <g id="g4488">
                </g>
                <g id="g4512">
                </g>
                <g id="g4724">
                </g>
                <g id="g4748">
                </g>
                <g id="g4758">
                </g>
                <g id="g4782">
                </g>
                <g id="g4792">
                </g>
                <g id="g4816">
                </g>
                <g id="g4826">
                </g>
                <g id="g4850">
                </g>
                <g id="g4860">
                </g>
                <g id="g4884">
                </g>
                <g id="g4894">
                </g>
                <g id="g4918">
                </g>
                <g id="g4928">
                </g>
                <g id="g4952">
                </g>
                <g id="g4962">
                </g>
                <g id="g4986">
                </g>
                <g id="g5108">
                </g>
                <g id="g5132">
                </g>
                <g id="g5142">
                </g>
                <g id="g5166">
                </g>
                <g id="g5176">
                </g>
                <g id="g5200">
                </g>
                <g id="g5210">
                </g>
                <g id="g5234">
                </g>
                <g id="g5244">
                </g>
                <g id="g5268">
                </g>
                <g id="g5278">
                </g>
                <g id="g5302">
                </g>
                <g id="g5312">
                </g>
                <g id="g5336">
                </g>
                <g id="g5346">
                </g>
                <g id="g5370">
                </g>
                <g id="g5546">
                </g>
                <g id="g5570">
                </g>
                <g id="g5580">
                </g>
                <g id="g5604">
                </g>
                <g id="g5614">
                </g>
                <g id="g5638">
                </g>
                <g id="g5648">
                </g>
                <g id="g5672">
                </g>
                <g id="g5682">
                </g>
                <g id="g5706">
                </g>
                <g id="g5716">
                </g>
                <g id="g5740">
                </g>
                <g id="g5750">
                </g>
                <g id="g5774">
                </g>
                <g id="g5784">
                </g>
                <g id="g5808">
                </g>
                <g id="g5818">
                </g>
                <g id="g5842">
                </g>
                <g id="g5984">
                </g>
                <g id="g6008">
                </g>
                <g id="g6018">
                </g>
                <g id="g6042">
                </g>
                <g id="g6052">
                </g>
                <g id="g6076">
                </g>
                <g id="g6086">
                </g>
                <g id="g6110">
                </g>
                <g id="g6120">
                </g>
                <g id="g6144">
                </g>
                <g id="g6154">
                </g>
                <g id="g6178">
                </g>
                <g id="g6188">
                </g>
                <g id="g6212">
                </g>
                <g id="g6222">
                </g>
                <g id="g6246">
                </g>
                <g id="g6256">
                </g>
                <g id="g6280">
                </g>
                <g id="g6290">
                </g>
                <g id="g6314">
                </g>
                <g id="g6450">
                </g>
                <g id="g6474">
                </g>
                <g id="g6484">
                </g>
                <g id="g6508">
                </g>
                <g id="g6518">
                </g>
                <g id="g6542">
                </g>
                <g id="g6552">
                </g>
                <g id="g6576">
                </g>
                <g id="g6586">
                </g>
                <g id="g6610">
                </g>
                <g id="g6620">
                </g>
                <g id="g6644">
                </g>
                <g id="g6654">
                </g>
                <g id="g6678">
                </g>
                <g id="g6688">
                </g>
                <g id="g6712">
                </g>
                <g id="g6722">
                </g>
                <g id="g6746">
                </g>
                <g id="g6756">
                </g>
                <g id="g6780">
                </g>
                <g id="g6790">
                </g>
                <g id="g6814">
                </g>
                <g id="g6824">
                </g>
                <g id="g6848">
                </g>
                <g id="g6858">
                </g>
                <g id="g6882">
                </g>
                <g id="g6906">
                </g>
                <g id="g6930">
                </g>
                <g id="g6942">
                </g>
                <g id="g6966">
                </g>
                <g id="g6976">
                </g>
                <g id="g7000">
                </g>
                <g id="g7010">
                </g>
                <g id="g7034">
                </g>
                <g id="g7058">
                </g>
                <g id="g7082">
                </g>
                <g id="g7106">
                </g>
                <g id="g7130">
                </g>
                <g id="g7154">
                </g>
                <g id="g7178">
                </g>
                <g id="g7202">
                </g>
                <g id="g7212">
                </g>
                <g id="g7236">
                </g>
                <g id="g7260">
                </g>
                <g id="g7284">
                </g>
                <g id="g7296">
                </g>
                <g id="g7320">
                </g>
                <g id="g7344">
                </g>
                <g id="g7368">
                </g>
                <g id="g7392">
                </g>
                <g id="g7416">
                </g>
                <g id="g7426">
                </g>
                <g id="g7450">
                </g>
                <g id="g7474">
                </g>
                <g id="g7498">
                </g>
                <g id="g7522">
                </g>
                <g id="g7534">
                </g>
                <g id="g7558">
                </g>
                <g id="g7582">
                </g>
                <g id="g7606">
                </g>
                <g id="g7630">
                </g>
                <g id="g7686">
                </g>
            </g>
        </g>
    </g>
</svg>
