<?xml version="1.0" encoding="UTF-8" standalone="no"?>
<!DOCTYPE svg PUBLIC "-//W3C//DTD SVG 1.1//EN" "http://www.w3.org/Graphics/SVG/1.1/DTD/svg11.dtd">
<svg width="100%" height="100%" viewBox="0 0 757 712" version="1.1" xmlns="http://www.w3.org/2000/svg" xmlns:xlink="http://www.w3.org/1999/xlink" xml:space="preserve" xmlns:serif="http://www.serif.com/" style="fill-rule:evenodd;clip-rule:evenodd;stroke-linejoin:round;stroke-miterlimit:2;">
    <g transform="matrix(10.0015,0,0,10.0015,-5395.78,-3124.65)">
        <g id="레이어-1" serif:id="레이어 1">
            <g>
                <g transform="matrix(1,0,0,1,587.826,364.244)">
                    <path d="M0,-1.543C-0.01,-1.442 -0.021,-1.342 -0.031,-1.239C-0.07,-0.811 -0.125,-0.397 -0.196,0C0.096,-0.236 0.432,-0.526 0.743,-0.838C0.868,-0.963 0.988,-1.092 1.1,-1.221C0.652,-1.277 0.287,-1.402 0,-1.543" style="fill:white;fill-rule:nonzero;"/>
                </g>
                <g transform="matrix(1,0,0,1,576.925,375.601)">
                    <path d="M0,-3.286C-0.424,-3.265 -0.857,-3.254 -1.302,-3.254C-2.432,-3.254 -3.493,-3.323 -4.483,-3.466C-4.522,-3.386 -4.565,-3.291 -4.608,-3.184C-4.75,-2.831 -4.889,-2.346 -4.889,-1.834C-4.889,-1.582 -4.855,-1.322 -4.774,-1.064C-4.773,-1.059 -4.771,-1.056 -4.77,-1.051C-4.731,-1.26 -4.675,-1.444 -4.617,-1.594C-4.521,-1.846 -4.424,-2.001 -4.415,-2.015C-4.307,-2.187 -4.08,-2.239 -3.908,-2.131C-3.737,-2.023 -3.685,-1.798 -3.792,-1.626L-3.793,-1.624C-3.794,-1.622 -3.797,-1.618 -3.8,-1.612C-3.807,-1.6 -3.817,-1.581 -3.831,-1.556C-3.857,-1.504 -3.895,-1.427 -3.932,-1.33C-4.006,-1.137 -4.078,-0.869 -4.078,-0.583C-4.078,-0.451 -4.062,-0.315 -4.026,-0.179C-4.01,-0.169 -3.994,-0.158 -3.977,-0.148C-3.585,0.066 -3.084,0.18 -2.583,0.179C-2.485,0.179 -2.389,0.174 -2.293,0.166C-2.319,0.09 -2.342,0.014 -2.36,-0.061C-2.419,-0.303 -2.438,-0.537 -2.438,-0.746C-2.438,-1.206 -2.347,-1.545 -2.342,-1.564C-2.29,-1.761 -2.088,-1.878 -1.893,-1.825C-1.696,-1.772 -1.58,-1.571 -1.632,-1.376L-1.634,-1.369C-1.636,-1.362 -1.638,-1.35 -1.642,-1.336C-1.647,-1.307 -1.657,-1.261 -1.666,-1.204C-1.685,-1.089 -1.703,-0.927 -1.703,-0.746C-1.703,-0.583 -1.687,-0.405 -1.646,-0.235C-1.625,-0.148 -1.598,-0.064 -1.562,0.016C-1.303,-0.073 -1.071,-0.196 -0.887,-0.347C-0.75,-0.458 -0.639,-0.582 -0.555,-0.721C-0.37,-1.024 -0.227,-1.432 -0.135,-1.895C-0.049,-2.324 -0.006,-2.801 0,-3.286" style="fill:rgb(245,172,112);fill-rule:nonzero;"/>
                </g>
                <g transform="matrix(1,0,0,1,578.838,374.393)">
                    <path d="M0,-2.261C-0.039,-2.181 -0.083,-2.085 -0.126,-1.976C-0.269,-1.622 -0.407,-1.137 -0.406,-0.625C-0.406,-0.373 -0.374,-0.114 -0.293,0.144C-0.292,0.149 -0.289,0.153 -0.288,0.158C-0.25,-0.051 -0.193,-0.236 -0.136,-0.385C-0.039,-0.637 0.058,-0.792 0.066,-0.807C0.175,-0.979 0.401,-1.031 0.573,-0.922C0.745,-0.815 0.797,-0.589 0.689,-0.417L0.688,-0.415C0.687,-0.413 0.685,-0.409 0.682,-0.404C0.675,-0.392 0.664,-0.372 0.65,-0.347C0.624,-0.295 0.587,-0.218 0.55,-0.121C0.476,0.072 0.403,0.34 0.403,0.626C0.404,0.758 0.419,0.893 0.455,1.03C0.472,1.04 0.488,1.051 0.505,1.06C0.896,1.274 1.397,1.388 1.898,1.387C1.996,1.387 2.093,1.383 2.189,1.375C2.162,1.299 2.14,1.222 2.121,1.147C2.063,0.906 2.044,0.672 2.044,0.463C2.044,0.003 2.135,-0.336 2.14,-0.356C2.191,-0.552 2.394,-0.669 2.589,-0.616C2.785,-0.564 2.901,-0.363 2.85,-0.167L2.848,-0.16C2.847,-0.154 2.844,-0.142 2.841,-0.127C2.834,-0.098 2.825,-0.052 2.815,0.005C2.797,0.12 2.778,0.282 2.778,0.463C2.778,0.626 2.794,0.803 2.835,0.973C2.856,1.06 2.884,1.144 2.919,1.224C3.179,1.135 3.41,1.012 3.596,0.862C3.731,0.751 3.843,0.627 3.927,0.488C4.112,0.184 4.255,-0.223 4.347,-0.687C4.439,-1.15 4.482,-1.668 4.482,-2.195C4.482,-2.686 4.444,-3.183 4.377,-3.649C3.641,-3.24 2.827,-2.912 1.938,-2.664C1.327,-2.494 0.681,-2.361 0,-2.261" style="fill:rgb(245,172,112);fill-rule:nonzero;"/>
                </g>
                <g transform="matrix(1,0,0,1,570.578,355.356)">
                    <path d="M0,-1.006C0.218,-0.868 0.472,-0.744 0.742,-0.636C1.437,-0.356 2.23,-0.182 2.762,-0.09C3.084,-0.034 3.311,-0.007 3.366,-0.001C3.373,-0.001 3.382,-0.001 3.394,0L3.518,0C3.764,0 4.262,-0.009 4.851,-0.069C5.438,-0.13 6.118,-0.242 6.722,-0.441C6.884,-0.494 7.041,-0.554 7.188,-0.62C6.484,-0.566 5.77,-0.538 5.045,-0.538C3.302,-0.538 1.611,-0.696 0,-1.006" style="fill:white;fill-rule:nonzero;"/>
                </g>
                <g transform="matrix(1,0,0,1,586.791,371.613)">
                    <path d="M0,-6.939C-1.194,-6.695 -4.17,-6.121 -7.239,-5.796C-8.562,-5.656 -9.901,-5.562 -11.128,-5.562C-12.354,-5.562 -13.7,-5.656 -15.031,-5.796C-16.363,-5.936 -17.68,-6.123 -18.845,-6.308C-20.387,-6.554 -21.661,-6.801 -22.349,-6.939C-22.287,-6.672 -22.218,-6.414 -22.14,-6.164C-21.779,-5.012 -21.248,-4.044 -20.556,-3.239C-20.094,-2.702 -19.559,-2.236 -18.95,-1.837C-18.14,-1.305 -17.197,-0.891 -16.126,-0.592C-14.697,-0.194 -13.038,0 -11.168,0C-9.063,0 -7.229,-0.246 -5.687,-0.752C-4.146,-1.258 -2.899,-2.021 -1.945,-3.062C-1.31,-3.757 -0.801,-4.579 -0.426,-5.543C-0.256,-5.978 -0.114,-6.444 0,-6.939" style="fill:white;fill-rule:nonzero;"/>
                </g>
                <g transform="matrix(1,0,0,1,562.721,351.051)">
                    <path d="M0,4.509C0.505,4.756 0.995,4.97 1.438,5.149C1.797,4.137 2.231,3.288 2.598,2.665C2.802,2.319 2.984,2.042 3.12,1.847C1.604,1.183 0.217,0.352 -1.008,-0.64L-3.086,2.486C-2.929,2.631 -2.764,2.774 -2.592,2.91C-1.802,3.541 -0.88,4.077 0,4.509" style="fill:white;fill-rule:nonzero;"/>
                </g>
                <g transform="matrix(1,0,0,1,591.725,351.448)">
                    <path d="M0,2.754C0.522,2.418 1.021,2.047 1.458,1.643L-1.02,-2.084C-2.475,-0.645 -4.233,0.522 -6.211,1.402C-6.222,1.414 -6.231,1.425 -6.241,1.437C-5.875,1.954 -5.174,3.077 -4.533,4.838C-4.245,4.744 -3.844,4.608 -3.374,4.426C-2.404,4.052 -1.146,3.49 0,2.754" style="fill:white;fill-rule:nonzero;"/>
                </g>
                <g transform="matrix(1,0,0,1,587.63,327.272)">
                    <path d="M0,36.972C0.071,36.575 0.126,36.161 0.165,35.733C0.176,35.63 0.187,35.53 0.196,35.429C0.483,35.57 0.849,35.695 1.296,35.751C1.185,35.88 1.064,36.009 0.939,36.134C0.628,36.446 0.292,36.736 0,36.972M-25.917,23.139C-24.692,24.131 -23.305,24.962 -21.789,25.626C-21.925,25.822 -22.107,26.098 -22.312,26.445C-22.678,27.068 -23.112,27.916 -23.471,28.928C-23.914,28.749 -24.404,28.535 -24.909,28.288C-25.789,27.857 -26.711,27.321 -27.501,26.69C-27.673,26.553 -27.838,26.41 -27.995,26.265L-25.917,23.139ZM-2.146,25.613C-2.137,25.601 -2.127,25.59 -2.116,25.578C-0.139,24.698 1.62,23.531 3.075,22.092L5.553,25.819C5.115,26.223 4.617,26.594 4.095,26.93C2.949,27.666 1.69,28.228 0.721,28.602C0.251,28.784 -0.15,28.92 -0.438,29.014C-1.079,27.253 -1.78,26.13 -2.146,25.613M-10.33,27.644C-10.934,27.842 -11.613,27.954 -12.201,28.015C-12.79,28.076 -13.288,28.084 -13.534,28.084L-13.658,28.084C-13.67,28.083 -13.679,28.083 -13.686,28.083C-13.741,28.077 -13.968,28.05 -14.29,27.994C-14.821,27.903 -15.614,27.729 -16.31,27.449C-16.58,27.34 -16.834,27.216 -17.052,27.078C-15.44,27.388 -13.75,27.546 -12.007,27.546C-11.282,27.546 -10.567,27.519 -9.863,27.464C-10.011,27.531 -10.168,27.59 -10.33,27.644M-0.447,33.54C-0.447,34.425 -0.513,35.454 -0.692,36.621C-1.26,36.741 -2.762,37.044 -4.631,37.341C-5.756,37.52 -7.013,37.696 -8.277,37.826C-9.542,37.957 -10.814,38.043 -11.967,38.043C-13.156,38.043 -14.479,37.952 -15.794,37.814C-17.765,37.607 -19.715,37.295 -21.17,37.035C-21.897,36.906 -22.502,36.789 -22.924,36.704C-23.092,36.671 -23.229,36.643 -23.336,36.62C-23.502,35.538 -23.565,34.574 -23.565,33.734C-23.565,32.406 -23.409,31.389 -23.255,30.709C-23.178,30.369 -23.101,30.114 -23.044,29.945C-23.017,29.861 -22.993,29.798 -22.978,29.758C-22.97,29.738 -22.964,29.723 -22.96,29.714L-22.956,29.705L-22.956,29.703L-22.948,29.686L-22.941,29.665C-22.58,28.493 -22.083,27.507 -21.678,26.818C-21.475,26.473 -21.295,26.201 -21.167,26.019C-21.151,25.996 -21.137,25.975 -21.122,25.955C-19.501,26.537 -18.671,26.754 -18.329,26.83C-18.23,27.004 -18.104,27.159 -17.962,27.298C-17.794,27.461 -17.603,27.604 -17.396,27.73C-17.036,27.951 -16.631,28.124 -16.225,28.265C-15.614,28.476 -15,28.612 -14.535,28.697C-14.07,28.782 -13.755,28.815 -13.748,28.816L-13.721,28.818C-13.717,28.818 -13.65,28.82 -13.534,28.82C-13.131,28.82 -12.134,28.797 -11.086,28.594C-10.561,28.492 -10.022,28.344 -9.533,28.122C-9.289,28.012 -9.057,27.882 -8.846,27.728C-8.677,27.604 -8.522,27.463 -8.387,27.305C-8.095,27.254 -7.364,27.124 -6.454,26.929C-5.862,26.801 -5.193,26.646 -4.52,26.467C-3.938,26.313 -3.353,26.14 -2.808,25.951C-2.479,26.402 -1.676,27.627 -0.982,29.681L-0.979,29.691L-0.976,29.7C-0.972,29.711 -0.447,31.05 -0.447,33.54M-29.296,4.197C-27.874,0.975 -25.497,-1.769 -22.502,-3.708C-20.084,-5.273 -17.264,-6.313 -14.22,-6.655C-14.093,-6.493 -13.959,-6.346 -13.821,-6.215C-13.419,-5.83 -12.993,-5.571 -12.667,-5.406C-12.34,-5.242 -12.11,-5.171 -12.096,-5.166C-11.901,-5.107 -11.696,-5.216 -11.637,-5.411C-11.578,-5.604 -11.687,-5.809 -11.88,-5.869L-11.882,-5.869C-11.897,-5.874 -12.062,-5.927 -12.296,-6.043C-12.647,-6.215 -13.153,-6.526 -13.56,-7.007C-13.764,-7.249 -13.943,-7.532 -14.072,-7.865C-14.202,-8.199 -14.282,-8.583 -14.283,-9.034C-14.283,-9.064 -14.282,-9.095 -14.281,-9.126C-14.271,-9.54 -14.19,-9.894 -14.063,-10.196C-13.872,-10.648 -13.576,-10.983 -13.25,-11.207C-12.924,-11.43 -12.564,-11.538 -12.268,-11.537C-12.142,-11.537 -12.027,-11.518 -11.931,-11.485C-11.857,-11.46 -11.793,-11.427 -11.738,-11.387C-11.655,-11.328 -11.592,-11.254 -11.544,-11.153C-11.496,-11.053 -11.464,-10.923 -11.464,-10.754C-11.464,-10.686 -11.469,-10.612 -11.48,-10.531C-11.511,-10.319 -11.524,-10.113 -11.524,-9.914C-11.524,-9.372 -11.422,-8.881 -11.269,-8.452C-11.252,-8.407 -11.236,-8.364 -11.219,-8.321C-11.229,-8.212 -11.236,-8.099 -11.237,-7.985C-11.238,-7.964 -11.238,-7.943 -11.238,-7.923C-11.239,-7.051 -11.011,-6.437 -10.767,-6.045C-10.523,-5.651 -10.272,-5.479 -10.238,-5.457C-10.068,-5.345 -9.84,-5.394 -9.729,-5.564C-9.62,-5.732 -9.666,-5.958 -9.833,-6.069C-9.834,-6.07 -10,-6.186 -10.166,-6.47C-10.331,-6.757 -10.502,-7.212 -10.503,-7.923L-10.503,-7.975C-10.498,-8.389 -10.42,-8.744 -10.297,-9.046C-10.111,-9.497 -9.819,-9.831 -9.495,-10.054C-9.172,-10.278 -8.813,-10.385 -8.515,-10.384C-8.388,-10.384 -8.271,-10.365 -8.171,-10.331C-8.096,-10.305 -8.03,-10.271 -7.973,-10.23C-7.888,-10.168 -7.821,-10.09 -7.771,-9.986C-7.723,-9.882 -7.689,-9.748 -7.689,-9.572C-7.689,-9.509 -7.693,-9.443 -7.702,-9.371C-7.737,-9.096 -7.753,-8.842 -7.753,-8.606C-7.753,-8.043 -7.661,-7.584 -7.515,-7.213C-7.405,-6.934 -7.265,-6.708 -7.115,-6.526C-7.014,-6.403 -6.908,-6.302 -6.806,-6.218L-6.805,-6.218C-6.805,-6.218 -6.372,-5.97 -6.042,-5.839C-6.027,-5.838 -6.013,-5.838 -5.998,-5.839C-3.231,-4.943 -0.754,-3.447 1.265,-1.513C2.962,0.114 4.335,2.049 5.282,4.197C6.23,6.344 6.755,8.703 6.755,11.183C6.754,13.661 6.231,15.868 5.289,17.79C4.582,19.233 3.639,20.515 2.497,21.63C0.785,23.302 -1.372,24.598 -3.837,25.475C-4.078,25.561 -4.323,25.642 -4.57,25.72C-4.616,25.732 -4.662,25.744 -4.708,25.757C-5.696,26.02 -6.683,26.232 -7.42,26.377C-7.789,26.451 -8.096,26.507 -8.31,26.545C-8.417,26.565 -8.501,26.579 -8.558,26.589C-8.579,26.592 -8.595,26.595 -8.608,26.597C-9.71,26.739 -10.846,26.812 -12.007,26.812C-14.614,26.812 -17.094,26.45 -19.344,25.752C-22.72,24.706 -25.575,22.91 -27.585,20.459C-28.59,19.234 -29.385,17.843 -29.929,16.295C-30.474,14.747 -30.769,13.041 -30.769,11.183C-30.769,8.703 -30.244,6.344 -29.296,4.197M-11.592,47.983C-11.776,48.133 -12.008,48.256 -12.268,48.345C-12.303,48.265 -12.33,48.181 -12.352,48.094C-12.393,47.924 -12.408,47.746 -12.408,47.583C-12.408,47.403 -12.39,47.241 -12.371,47.125C-12.362,47.069 -12.353,47.023 -12.347,46.993C-12.343,46.979 -12.341,46.967 -12.339,46.96L-12.337,46.953C-12.285,46.758 -12.401,46.557 -12.598,46.504C-12.793,46.451 -12.995,46.569 -13.047,46.765C-13.052,46.785 -13.143,47.123 -13.144,47.583C-13.144,47.792 -13.124,48.027 -13.065,48.268C-13.047,48.343 -13.024,48.419 -12.998,48.495C-13.094,48.503 -13.19,48.508 -13.288,48.508C-13.789,48.509 -14.29,48.395 -14.682,48.181C-14.699,48.171 -14.715,48.16 -14.731,48.151C-14.768,48.014 -14.783,47.878 -14.783,47.746C-14.783,47.46 -14.711,47.193 -14.637,46.999C-14.6,46.903 -14.563,46.826 -14.536,46.774C-14.522,46.748 -14.512,46.729 -14.505,46.717C-14.502,46.711 -14.499,46.707 -14.498,46.705L-14.497,46.703C-14.39,46.532 -14.442,46.306 -14.613,46.199C-14.785,46.09 -15.012,46.142 -15.12,46.314C-15.129,46.328 -15.226,46.484 -15.322,46.736C-15.38,46.885 -15.437,47.07 -15.475,47.279C-15.477,47.274 -15.479,47.27 -15.479,47.265C-15.561,47.007 -15.594,46.747 -15.594,46.495C-15.594,45.984 -15.455,45.498 -15.313,45.145C-15.271,45.038 -15.228,44.944 -15.188,44.864C-14.198,45.006 -13.137,45.076 -12.007,45.076C-11.563,45.076 -11.129,45.065 -10.705,45.043C-10.711,45.529 -10.754,46.005 -10.84,46.434C-10.932,46.898 -11.075,47.305 -11.26,47.609C-11.344,47.747 -11.455,47.871 -11.592,47.983M-4.31,44.926C-4.31,45.452 -4.353,45.971 -4.445,46.434C-4.537,46.898 -4.68,47.305 -4.865,47.609C-4.949,47.747 -5.061,47.871 -5.196,47.983C-5.382,48.133 -5.613,48.256 -5.873,48.345C-5.908,48.265 -5.936,48.181 -5.957,48.094C-5.998,47.924 -6.014,47.746 -6.014,47.583C-6.014,47.403 -5.995,47.241 -5.977,47.125C-5.967,47.069 -5.958,47.023 -5.951,46.993C-5.948,46.979 -5.945,46.967 -5.944,46.96L-5.942,46.953C-5.891,46.758 -6.007,46.557 -6.203,46.504C-6.398,46.451 -6.601,46.569 -6.652,46.765C-6.657,46.785 -6.748,47.123 -6.748,47.583C-6.748,47.792 -6.729,48.027 -6.671,48.268C-6.652,48.343 -6.63,48.419 -6.603,48.495C-6.699,48.503 -6.796,48.508 -6.894,48.508C-7.395,48.509 -7.896,48.395 -8.287,48.181C-8.304,48.171 -8.32,48.16 -8.337,48.151C-8.373,48.014 -8.388,47.878 -8.389,47.746C-8.389,47.46 -8.316,47.193 -8.242,46.999C-8.205,46.903 -8.168,46.826 -8.142,46.774C-8.128,46.748 -8.117,46.729 -8.11,46.717C-8.107,46.711 -8.104,46.707 -8.104,46.705L-8.103,46.703C-7.995,46.532 -8.047,46.306 -8.219,46.199C-8.391,46.09 -8.617,46.142 -8.726,46.314C-8.734,46.328 -8.831,46.484 -8.928,46.736C-8.985,46.885 -9.042,47.07 -9.08,47.279C-9.081,47.274 -9.084,47.27 -9.085,47.265C-9.166,47.007 -9.198,46.747 -9.198,46.495C-9.199,45.984 -9.061,45.498 -8.918,45.145C-8.875,45.035 -8.831,44.94 -8.792,44.86C-8.111,44.76 -7.465,44.626 -6.854,44.456C-5.965,44.208 -5.151,43.881 -4.415,43.472C-4.348,43.938 -4.31,44.435 -4.31,44.926M-6.526,43.589C-8.067,44.095 -9.902,44.341 -12.007,44.341C-13.877,44.341 -15.536,44.147 -16.965,43.748C-18.036,43.45 -18.979,43.035 -19.789,42.503C-20.397,42.105 -20.933,41.639 -21.395,41.102C-22.087,40.296 -22.618,39.328 -22.979,38.177C-23.057,37.927 -23.126,37.668 -23.187,37.402C-22.5,37.539 -21.226,37.786 -19.684,38.033C-18.519,38.218 -17.202,38.405 -15.87,38.544C-14.539,38.685 -13.193,38.779 -11.967,38.779C-10.74,38.779 -9.4,38.685 -8.078,38.544C-5.009,38.22 -2.033,37.646 -0.839,37.402C-0.953,37.897 -1.095,38.363 -1.265,38.798C-1.64,39.762 -2.148,40.583 -2.784,41.279C-3.738,42.32 -4.985,43.082 -6.526,43.589M2.747,28.522C3.666,28.074 4.64,27.513 5.496,26.833C5.925,26.493 6.324,26.122 6.672,25.718C7.02,25.315 7.316,24.877 7.534,24.405C7.78,23.871 7.893,23.395 7.893,22.966C7.893,22.707 7.851,22.467 7.776,22.251C7.646,21.871 7.416,21.571 7.158,21.341C6.965,21.168 6.756,21.033 6.551,20.925C6.244,20.764 5.947,20.665 5.724,20.605C5.501,20.544 5.352,20.523 5.34,20.522C5.113,20.486 4.887,20.469 4.66,20.469C4.605,20.469 4.55,20.471 4.495,20.473C5.386,19.296 6.102,17.982 6.608,16.539C7.182,14.91 7.489,13.119 7.489,11.183C7.489,6.016 5.303,1.337 1.773,-2.044C-0.416,-4.142 -3.124,-5.742 -6.148,-6.655C-6.223,-6.697 -6.31,-6.756 -6.4,-6.838C-6.543,-6.968 -6.693,-7.156 -6.812,-7.437C-6.932,-7.718 -7.019,-8.095 -7.019,-8.606C-7.019,-8.808 -7.005,-9.032 -6.974,-9.278C-6.961,-9.379 -6.954,-9.477 -6.954,-9.572C-6.954,-9.811 -6.995,-10.033 -7.076,-10.229C-7.137,-10.377 -7.219,-10.509 -7.319,-10.624C-7.471,-10.795 -7.659,-10.921 -7.864,-11.001C-8.069,-11.082 -8.29,-11.119 -8.515,-11.119C-8.827,-11.119 -9.148,-11.048 -9.458,-10.913C-9.923,-10.709 -10.363,-10.358 -10.69,-9.864C-10.723,-9.816 -10.754,-9.765 -10.783,-9.715C-10.787,-9.78 -10.79,-9.846 -10.79,-9.914C-10.79,-10.079 -10.778,-10.251 -10.753,-10.427C-10.737,-10.54 -10.729,-10.648 -10.729,-10.754C-10.729,-10.988 -10.77,-11.206 -10.849,-11.399C-10.908,-11.544 -10.99,-11.674 -11.089,-11.786C-11.238,-11.954 -11.424,-12.077 -11.626,-12.156C-11.828,-12.235 -12.046,-12.271 -12.268,-12.271C-12.579,-12.271 -12.899,-12.201 -13.21,-12.065C-13.675,-11.862 -14.117,-11.512 -14.449,-11.02C-14.781,-10.528 -14.999,-9.894 -15.017,-9.143C-15.018,-9.107 -15.018,-9.07 -15.018,-9.034C-15.019,-8.381 -14.873,-7.816 -14.646,-7.343C-18.97,-6.782 -22.846,-4.862 -25.787,-2.044C-27.552,-0.353 -28.98,1.661 -29.969,3.9C-30.957,6.138 -31.503,8.6 -31.503,11.183C-31.503,13.765 -30.956,16.088 -29.962,18.115C-29.446,19.167 -28.81,20.14 -28.068,21.027C-28.103,21.035 -28.139,21.044 -28.178,21.055C-28.35,21.102 -28.563,21.171 -28.791,21.274C-29.133,21.428 -29.51,21.655 -29.813,22.002C-29.965,22.176 -30.097,22.381 -30.189,22.618C-30.282,22.855 -30.335,23.121 -30.335,23.413C-30.335,23.841 -30.224,24.319 -29.978,24.852C-29.759,25.325 -29.463,25.762 -29.115,26.165C-28.506,26.871 -27.74,27.478 -26.935,27.995C-25.837,28.7 -24.666,29.241 -23.711,29.623C-23.89,30.131 -24.301,31.536 -24.301,33.734C-24.301,34.348 -24.268,35.025 -24.189,35.759C-24.15,36.175 -24.097,36.576 -24.027,36.962C-24.025,36.971 -24.024,36.979 -24.023,36.988L-23.982,37.235L-23.975,37.237C-23.843,37.887 -23.667,38.496 -23.445,39.065C-23.039,40.107 -22.48,41.011 -21.779,41.775C-20.728,42.922 -19.357,43.75 -17.719,44.287C-17.157,44.471 -16.563,44.621 -15.939,44.74C-15.958,44.782 -15.977,44.826 -15.995,44.871C-16.16,45.284 -16.328,45.853 -16.328,46.495C-16.328,46.812 -16.287,47.146 -16.182,47.484C-16.087,47.787 -15.93,48.055 -15.731,48.279C-15.594,48.434 -15.436,48.568 -15.266,48.684C-15.26,48.688 -15.253,48.693 -15.247,48.697C-15.054,48.825 -14.845,48.93 -14.625,49.011C-14.203,49.168 -13.745,49.243 -13.288,49.243C-12.979,49.243 -12.669,49.207 -12.372,49.137L-12.357,49.134C-12.155,49.086 -11.959,49.022 -11.772,48.941C-11.54,48.839 -11.321,48.71 -11.128,48.553C-10.934,48.395 -10.764,48.207 -10.632,47.991C-10.386,47.584 -10.224,47.101 -10.119,46.578C-10.02,46.076 -9.974,45.537 -9.97,44.993C-9.857,44.985 -9.746,44.974 -9.636,44.963C-9.788,45.367 -9.933,45.899 -9.934,46.495C-9.934,46.812 -9.892,47.146 -9.786,47.484C-9.691,47.787 -9.535,48.055 -9.337,48.279C-9.199,48.434 -9.041,48.568 -8.871,48.684C-8.865,48.688 -8.858,48.693 -8.853,48.697C-8.659,48.825 -8.45,48.93 -8.23,49.011C-7.809,49.168 -7.351,49.243 -6.894,49.243C-6.583,49.243 -6.274,49.207 -5.977,49.137C-5.972,49.136 -5.968,49.135 -5.963,49.134C-5.761,49.086 -5.564,49.022 -5.378,48.941C-5.146,48.839 -4.927,48.71 -4.732,48.553C-4.539,48.395 -4.369,48.207 -4.237,47.991C-3.991,47.584 -3.829,47.101 -3.725,46.577C-3.62,46.055 -3.574,45.493 -3.574,44.926C-3.574,44.296 -3.632,43.663 -3.732,43.08C-3.734,43.073 -3.735,43.065 -3.737,43.057C-3.112,42.635 -2.554,42.145 -2.07,41.58C-1.31,40.695 -0.73,39.632 -0.346,38.396C-0.314,38.295 -0.284,38.193 -0.256,38.089C-0.021,37.922 0.549,37.502 1.127,36.972C1.502,36.626 1.88,36.236 2.176,35.825C2.323,35.618 2.45,35.408 2.544,35.188C2.637,34.969 2.697,34.741 2.698,34.503C2.698,34.349 2.671,34.192 2.61,34.041C2.55,33.892 2.457,33.752 2.336,33.63C2.119,33.409 1.896,33.25 1.669,33.147C1.442,33.042 1.214,32.996 0.999,32.996C0.747,32.996 0.519,33.058 0.323,33.145C0.31,33.151 0.297,33.158 0.283,33.164C0.247,31.389 -0.044,30.213 -0.198,29.708C0.428,29.505 1.54,29.111 2.747,28.522" style="fill:rgb(35,25,22);fill-rule:nonzero;"/>
                </g>
                <g transform="matrix(1,0,0,1,562.855,335.59)">
                    <path d="M0,-1.363C0.187,-1.575 0.418,-1.749 0.679,-1.869C0.939,-1.99 1.23,-2.058 1.536,-2.057C1.842,-2.058 2.133,-1.99 2.394,-1.869C2.654,-1.749 2.885,-1.575 3.072,-1.363C3.207,-1.211 3.192,-0.978 3.04,-0.843C2.888,-0.71 2.656,-0.724 2.521,-0.877C2.4,-1.013 2.252,-1.126 2.085,-1.203C1.918,-1.28 1.733,-1.323 1.536,-1.323C1.339,-1.323 1.154,-1.28 0.987,-1.203C0.82,-1.126 0.672,-1.013 0.551,-0.877C0.417,-0.724 0.185,-0.71 0.032,-0.843C-0.12,-0.978 -0.135,-1.211 0,-1.363M3.194,1.568C3.196,1.771 3.034,1.938 2.831,1.94C2.629,1.943 2.463,1.781 2.46,1.578L2.459,1.578L2.459,1.57C2.459,1.562 2.458,1.547 2.456,1.529C2.453,1.491 2.446,1.436 2.434,1.371C2.408,1.241 2.356,1.074 2.27,0.937C2.212,0.845 2.142,0.767 2.051,0.706C1.999,0.672 1.939,0.643 1.868,0.62C1.786,0.595 1.687,0.579 1.565,0.578C1.366,0.579 1.23,0.621 1.126,0.68C1.021,0.739 0.942,0.818 0.878,0.913C0.835,0.977 0.8,1.047 0.771,1.118C0.733,1.213 0.709,1.31 0.694,1.39C0.675,1.496 0.673,1.574 0.672,1.578C0.669,1.781 0.503,1.943 0.301,1.94C0.098,1.938 -0.065,1.771 -0.062,1.568C-0.062,1.552 -0.06,1.419 -0.022,1.23C0.015,1.04 0.086,0.791 0.24,0.546C0.342,0.383 0.483,0.221 0.675,0.095C0.783,0.023 0.907,-0.038 1.045,-0.081C1.203,-0.13 1.377,-0.156 1.565,-0.156C1.885,-0.157 2.163,-0.08 2.385,0.05C2.608,0.179 2.771,0.357 2.886,0.536C2.962,0.656 3.019,0.778 3.061,0.892C3.117,1.045 3.148,1.187 3.167,1.3C3.192,1.451 3.194,1.554 3.194,1.568M3.809,1.822C4.008,1.748 4.225,1.712 4.449,1.712C4.829,1.712 5.233,1.819 5.628,2.035C5.637,2.037 5.646,2.039 5.662,2.042C5.709,2.05 5.787,2.06 5.897,2.06C6.229,2.06 6.85,1.977 7.765,1.496C7.771,1.492 7.778,1.491 7.785,1.487C8.22,1.253 8.754,1.12 9.334,1.119C9.913,1.12 10.447,1.253 10.883,1.487C10.889,1.491 10.896,1.492 10.902,1.496C11.818,1.977 12.438,2.06 12.77,2.06C12.915,2.06 13.005,2.043 13.039,2.035C13.434,1.819 13.838,1.712 14.218,1.712C14.555,1.712 14.874,1.795 15.144,1.957C15.413,2.118 15.632,2.361 15.76,2.658C15.847,2.855 15.893,3.075 15.896,3.308L15.896,3.323C15.896,3.514 15.852,3.691 15.788,3.848C15.724,4.006 15.639,4.145 15.548,4.266C15.418,4.44 15.277,4.579 15.158,4.685C15.154,4.777 15.151,4.869 15.151,4.963C15.151,5.464 15.212,5.988 15.375,6.425C15.477,6.699 15.601,7.111 15.701,7.614C15.801,8.116 15.877,8.707 15.878,9.337C15.877,10.024 15.787,10.756 15.531,11.462C15.275,12.167 14.85,12.847 14.192,13.403C13.755,13.773 13.217,14.087 12.567,14.324C11.7,14.639 10.637,14.818 9.334,14.818C7.868,14.818 6.704,14.592 5.784,14.199C4.865,13.807 4.193,13.243 3.73,12.597C3.421,12.166 3.204,11.699 3.057,11.226C2.861,10.593 2.79,9.948 2.79,9.337C2.79,8.707 2.866,8.116 2.966,7.614C3.066,7.111 3.191,6.699 3.293,6.425C3.455,5.988 3.516,5.464 3.516,4.963C3.516,4.876 3.513,4.79 3.51,4.704C3.433,4.641 3.348,4.564 3.263,4.472C3.12,4.317 2.975,4.118 2.878,3.872C2.813,3.709 2.771,3.524 2.772,3.324L2.772,3.308C2.775,2.959 2.879,2.637 3.063,2.379C3.248,2.121 3.509,1.93 3.809,1.822M15.513,1.23C15.551,1.04 15.622,0.791 15.775,0.546C15.878,0.383 16.02,0.221 16.21,0.095C16.318,0.023 16.443,-0.038 16.581,-0.081C16.738,-0.13 16.912,-0.156 17.102,-0.156C17.42,-0.157 17.698,-0.08 17.921,0.05C18.144,0.179 18.307,0.357 18.421,0.536C18.498,0.656 18.554,0.778 18.596,0.892C18.652,1.045 18.684,1.187 18.703,1.3C18.728,1.451 18.729,1.554 18.729,1.568C18.732,1.771 18.569,1.938 18.367,1.94C18.164,1.943 17.998,1.781 17.995,1.578L17.994,1.57C17.994,1.562 17.993,1.547 17.991,1.529C17.988,1.491 17.981,1.436 17.969,1.371C17.943,1.241 17.893,1.074 17.806,0.937C17.747,0.845 17.677,0.767 17.586,0.706C17.534,0.672 17.475,0.643 17.403,0.62C17.322,0.595 17.224,0.579 17.102,0.578C16.901,0.579 16.767,0.621 16.661,0.68C16.557,0.739 16.478,0.818 16.413,0.913C16.37,0.977 16.335,1.047 16.307,1.118C16.27,1.213 16.245,1.31 16.23,1.39C16.211,1.496 16.208,1.574 16.208,1.578C16.204,1.781 16.038,1.943 15.836,1.94C15.633,1.938 15.471,1.771 15.473,1.568C15.474,1.552 15.476,1.419 15.513,1.23M17.959,-1.869C18.22,-1.749 18.45,-1.575 18.638,-1.363C18.772,-1.211 18.758,-0.978 18.605,-0.843C18.453,-0.71 18.221,-0.724 18.087,-0.877C17.966,-1.013 17.817,-1.126 17.65,-1.203C17.483,-1.28 17.299,-1.323 17.102,-1.323C16.904,-1.323 16.72,-1.28 16.553,-1.203C16.386,-1.126 16.237,-1.013 16.116,-0.877C15.981,-0.724 15.749,-0.71 15.598,-0.844C15.445,-0.978 15.431,-1.211 15.565,-1.363C15.752,-1.575 15.982,-1.749 16.244,-1.869C16.505,-1.99 16.796,-2.058 17.102,-2.057C17.407,-2.058 17.698,-1.99 17.959,-1.869M-2.811,12.141C-0.801,14.592 2.055,16.388 5.431,17.434C7.681,18.131 10.16,18.493 12.768,18.493C13.929,18.493 15.064,18.42 16.166,18.279C16.18,18.277 16.195,18.274 16.217,18.271C16.273,18.261 16.357,18.246 16.465,18.227C16.679,18.189 16.985,18.132 17.354,18.059C18.092,17.913 19.078,17.701 20.066,17.439C20.112,17.426 20.158,17.413 20.204,17.402C20.451,17.324 20.696,17.242 20.937,17.157C23.402,16.28 25.56,14.984 27.271,13.312C28.413,12.197 29.356,10.914 30.063,9.472C31.006,7.55 31.528,5.343 31.529,2.865C31.529,0.385 31.005,-1.974 30.057,-4.122C29.109,-6.269 27.736,-8.205 26.039,-9.832C24.021,-11.765 21.543,-13.261 18.776,-14.157C18.762,-14.156 18.747,-14.156 18.732,-14.157C18.402,-14.289 17.97,-14.537 17.97,-14.537L17.969,-14.537C17.866,-14.621 17.761,-14.721 17.659,-14.844C17.51,-15.026 17.369,-15.253 17.26,-15.531C17.113,-15.902 17.021,-16.361 17.021,-16.925C17.021,-17.161 17.037,-17.415 17.072,-17.689C17.081,-17.761 17.085,-17.828 17.085,-17.89C17.085,-18.066 17.052,-18.201 17.003,-18.304C16.953,-18.409 16.887,-18.486 16.802,-18.549C16.744,-18.59 16.679,-18.624 16.604,-18.649C16.504,-18.683 16.387,-18.703 16.26,-18.703C15.961,-18.704 15.603,-18.596 15.279,-18.373C14.955,-18.149 14.663,-17.815 14.478,-17.364C14.354,-17.062 14.276,-16.708 14.271,-16.294L14.271,-16.241C14.272,-15.53 14.443,-15.075 14.608,-14.789C14.774,-14.505 14.94,-14.388 14.941,-14.387C15.108,-14.276 15.154,-14.051 15.045,-13.883C14.935,-13.713 14.706,-13.664 14.536,-13.775C14.502,-13.798 14.251,-13.969 14.008,-14.363C13.764,-14.756 13.535,-15.37 13.536,-16.241C13.536,-16.261 13.536,-16.282 13.537,-16.303C13.538,-16.418 13.545,-16.53 13.556,-16.639C13.538,-16.682 13.522,-16.725 13.506,-16.77C13.353,-17.199 13.25,-17.69 13.25,-18.232C13.25,-18.431 13.264,-18.637 13.294,-18.849C13.306,-18.93 13.311,-19.005 13.311,-19.072C13.311,-19.242 13.278,-19.372 13.23,-19.471C13.183,-19.572 13.119,-19.646 13.036,-19.706C12.981,-19.746 12.917,-19.778 12.844,-19.803C12.747,-19.837 12.633,-19.855 12.507,-19.855C12.21,-19.856 11.851,-19.749 11.524,-19.525C11.198,-19.301 10.902,-18.967 10.712,-18.514C10.584,-18.213 10.503,-17.858 10.493,-17.444C10.492,-17.414 10.491,-17.383 10.491,-17.352C10.492,-16.901 10.572,-16.517 10.702,-16.183C10.831,-15.85 11.011,-15.567 11.215,-15.326C11.621,-14.844 12.127,-14.533 12.479,-14.361C12.713,-14.246 12.877,-14.192 12.893,-14.187L12.895,-14.187C13.088,-14.128 13.196,-13.923 13.138,-13.729C13.078,-13.535 12.873,-13.426 12.679,-13.484C12.664,-13.489 12.435,-13.56 12.107,-13.724C11.781,-13.889 11.355,-14.148 10.953,-14.534C10.815,-14.665 10.682,-14.811 10.555,-14.973C7.511,-14.632 4.69,-13.592 2.272,-12.026C-0.723,-10.088 -3.1,-7.343 -4.521,-4.122C-5.47,-1.974 -5.994,0.385 -5.994,2.865C-5.994,4.723 -5.699,6.429 -5.154,7.977C-4.61,9.525 -3.815,10.915 -2.811,12.141" style="fill:white;fill-rule:nonzero;"/>
                </g>
                <g transform="matrix(1,0,0,1,567.662,347.016)">
                    <path d="M0,-6.915C0.039,-7.114 0.231,-7.245 0.431,-7.206L0.433,-7.206L0.438,-7.205C0.444,-7.204 0.453,-7.202 0.465,-7.2C0.488,-7.195 0.523,-7.189 0.57,-7.183C0.663,-7.167 0.798,-7.147 0.964,-7.127C1.289,-7.088 1.735,-7.049 2.218,-7.047L2.233,-7.047C2.255,-7.048 2.288,-7.05 2.329,-7.052C2.412,-7.056 2.532,-7.062 2.676,-7.075C2.962,-7.099 3.343,-7.144 3.71,-7.221C3.954,-7.272 4.192,-7.339 4.389,-7.419L4.527,-7.476L4.666,-7.419C4.858,-7.34 5.093,-7.274 5.333,-7.224C5.573,-7.172 5.82,-7.135 6.044,-7.108C6.454,-7.061 6.78,-7.049 6.841,-7.047C7.801,-7.051 8.61,-7.203 8.623,-7.206C8.822,-7.245 9.015,-7.114 9.054,-6.915C9.092,-6.716 8.962,-6.523 8.763,-6.484C8.75,-6.482 8.063,-6.349 7.162,-6.318C7.155,-6.283 7.146,-6.249 7.138,-6.212C7.094,-6.035 7.03,-5.832 6.95,-5.613C6.79,-5.177 6.563,-4.678 6.279,-4.225C6.089,-3.923 5.874,-3.641 5.626,-3.411C5.484,-3.279 5.331,-3.165 5.162,-3.078C4.97,-2.978 4.755,-2.916 4.527,-2.916C4.388,-2.916 4.251,-2.939 4.123,-2.981C3.995,-3.022 3.875,-3.082 3.762,-3.152C3.536,-3.295 3.338,-3.482 3.157,-3.695C2.799,-4.122 2.51,-4.65 2.29,-5.15C2.144,-5.483 2.029,-5.804 1.953,-6.074C1.929,-6.161 1.908,-6.241 1.892,-6.318C0.992,-6.349 0.304,-6.482 0.291,-6.484C0.092,-6.523 -0.038,-6.716 0,-6.915M-1.099,-7.566C-0.979,-7.407 -0.824,-7.278 -0.724,-7.208C-0.634,-7.144 -0.577,-7.041 -0.57,-6.931C-0.562,-6.779 -0.557,-6.623 -0.557,-6.463C-0.557,-5.905 -0.619,-5.304 -0.825,-4.745C-0.911,-4.512 -1.027,-4.131 -1.12,-3.668C-1.213,-3.205 -1.282,-2.659 -1.282,-2.089C-1.282,-1.468 -1.199,-0.818 -0.979,-0.215C-0.76,0.39 -0.408,0.948 0.143,1.415C0.511,1.727 0.969,1.997 1.545,2.207C2.313,2.487 3.291,2.657 4.527,2.657C5.918,2.657 6.981,2.441 7.787,2.098C8.594,1.752 9.146,1.281 9.533,0.742C9.791,0.383 9.975,-0.009 10.102,-0.418C10.271,-0.962 10.336,-1.536 10.336,-2.089C10.336,-2.659 10.267,-3.205 10.174,-3.668C10.081,-4.131 9.965,-4.512 9.879,-4.745C9.673,-5.304 9.61,-5.905 9.61,-6.463C9.61,-6.627 9.616,-6.787 9.625,-6.941C9.632,-7.047 9.682,-7.143 9.765,-7.207C9.842,-7.269 9.952,-7.364 10.054,-7.478C10.156,-7.593 10.249,-7.727 10.301,-7.855C10.336,-7.941 10.354,-8.023 10.354,-8.103L10.354,-8.11C10.351,-8.322 10.292,-8.487 10.198,-8.619C10.104,-8.751 9.972,-8.852 9.801,-8.914C9.687,-8.956 9.556,-8.979 9.411,-8.979C9.156,-8.979 8.857,-8.905 8.545,-8.725C8.512,-8.705 8.476,-8.692 8.438,-8.685C8.366,-8.665 8.207,-8.631 7.963,-8.631C7.508,-8.631 6.767,-8.75 5.768,-9.272C5.761,-9.275 5.754,-9.278 5.747,-9.282C5.433,-9.457 5.002,-9.572 4.527,-9.571C4.052,-9.572 3.622,-9.457 3.307,-9.282C3.3,-9.278 3.293,-9.275 3.286,-9.272C2.287,-8.75 1.547,-8.631 1.091,-8.631C0.839,-8.631 0.678,-8.667 0.608,-8.686C0.574,-8.694 0.54,-8.706 0.509,-8.725C0.196,-8.905 -0.103,-8.979 -0.357,-8.979C-0.574,-8.979 -0.76,-8.927 -0.905,-8.839C-1.051,-8.751 -1.158,-8.631 -1.226,-8.476C-1.271,-8.372 -1.298,-8.252 -1.3,-8.11L-1.3,-8.102C-1.3,-8.003 -1.28,-7.911 -1.245,-7.821C-1.21,-7.732 -1.159,-7.645 -1.099,-7.566" style="fill:rgb(245,172,112);fill-rule:nonzero;"/>
                </g>
                <g transform="matrix(1,0,0,1,566.362,348.212)">
                    <path d="M0,-9.306C0.002,-9.448 0.029,-9.568 0.074,-9.671C0.142,-9.827 0.249,-9.947 0.395,-10.035C0.54,-10.122 0.726,-10.175 0.942,-10.175C1.197,-10.175 1.496,-10.101 1.809,-9.92C1.84,-9.902 1.874,-9.89 1.908,-9.882C1.978,-9.863 2.139,-9.827 2.391,-9.827C2.847,-9.827 3.587,-9.946 4.586,-10.468C4.593,-10.471 4.6,-10.474 4.606,-10.478C4.922,-10.653 5.352,-10.768 5.827,-10.767C6.302,-10.768 6.732,-10.653 7.047,-10.478C7.054,-10.474 7.061,-10.471 7.067,-10.468C8.066,-9.946 8.808,-9.827 9.263,-9.827C9.507,-9.827 9.666,-9.861 9.738,-9.88C9.775,-9.888 9.812,-9.901 9.845,-9.92C10.157,-10.101 10.456,-10.175 10.711,-10.175C10.855,-10.175 10.986,-10.152 11.101,-10.11C11.271,-10.047 11.404,-9.947 11.498,-9.815C11.592,-9.683 11.65,-9.518 11.653,-9.306L11.653,-9.299C11.653,-9.219 11.636,-9.137 11.601,-9.051C11.549,-8.922 11.456,-8.788 11.354,-8.674C11.252,-8.56 11.142,-8.464 11.064,-8.403C10.981,-8.338 10.932,-8.243 10.925,-8.137C10.916,-7.983 10.91,-7.823 10.91,-7.659C10.91,-7.101 10.973,-6.499 11.179,-5.941C11.265,-5.707 11.381,-5.327 11.474,-4.864C11.566,-4.401 11.636,-3.855 11.636,-3.285C11.636,-2.732 11.57,-2.158 11.401,-1.614C11.274,-1.204 11.091,-0.813 10.833,-0.453C10.445,0.086 9.894,0.556 9.087,0.902C8.281,1.246 7.218,1.462 5.827,1.462C4.591,1.462 3.612,1.292 2.845,1.011C2.269,0.801 1.811,0.531 1.442,0.219C0.892,-0.247 0.54,-0.806 0.32,-1.411C0.101,-2.014 0.018,-2.663 0.018,-3.285C0.018,-3.855 0.087,-4.401 0.18,-4.864C0.272,-5.327 0.389,-5.707 0.475,-5.941C0.681,-6.499 0.743,-7.101 0.743,-7.659C0.743,-7.819 0.738,-7.975 0.729,-8.126C0.723,-8.237 0.666,-8.339 0.576,-8.404C0.476,-8.474 0.32,-8.603 0.201,-8.762C0.141,-8.841 0.09,-8.928 0.055,-9.017C0.02,-9.107 0,-9.199 0,-9.298L0,-9.306ZM-0.734,-9.314L-0.734,-9.298C-0.735,-9.098 -0.693,-8.912 -0.629,-8.749C-0.532,-8.503 -0.387,-8.305 -0.244,-8.15C-0.159,-8.058 -0.074,-7.981 0.003,-7.917C0.006,-7.831 0.009,-7.745 0.009,-7.659C0.009,-7.158 -0.052,-6.634 -0.214,-6.197C-0.315,-5.922 -0.44,-5.511 -0.541,-5.008C-0.641,-4.506 -0.717,-3.914 -0.717,-3.285C-0.717,-2.674 -0.646,-2.029 -0.45,-1.396C-0.303,-0.922 -0.086,-0.455 0.224,-0.025C0.687,0.622 1.358,1.185 2.277,1.577C3.197,1.97 4.361,2.196 5.827,2.196C7.13,2.196 8.193,2.017 9.061,1.702C9.71,1.465 10.248,1.151 10.686,0.781C11.343,0.225 11.769,-0.454 12.024,-1.16C12.28,-1.866 12.37,-2.598 12.371,-3.285C12.37,-3.914 12.294,-4.506 12.194,-5.008C12.094,-5.511 11.97,-5.922 11.868,-6.197C11.705,-6.634 11.645,-7.158 11.645,-7.659C11.645,-7.752 11.647,-7.845 11.651,-7.937C11.771,-8.042 11.911,-8.182 12.041,-8.356C12.132,-8.477 12.217,-8.616 12.281,-8.774C12.345,-8.931 12.389,-9.108 12.389,-9.299L12.389,-9.314C12.386,-9.546 12.34,-9.767 12.253,-9.964C12.125,-10.261 11.906,-10.503 11.637,-10.664C11.367,-10.827 11.048,-10.91 10.711,-10.91C10.331,-10.91 9.927,-10.803 9.532,-10.586C9.498,-10.578 9.408,-10.562 9.263,-10.562C8.932,-10.562 8.312,-10.645 7.396,-11.125C7.389,-11.129 7.382,-11.131 7.376,-11.135C6.94,-11.369 6.406,-11.501 5.827,-11.502C5.247,-11.501 4.713,-11.369 4.278,-11.135C4.271,-11.131 4.265,-11.129 4.258,-11.125C3.343,-10.645 2.722,-10.562 2.391,-10.562C2.28,-10.562 2.202,-10.572 2.155,-10.579C2.14,-10.582 2.13,-10.584 2.121,-10.586C1.727,-10.803 1.322,-10.91 0.942,-10.91C0.718,-10.91 0.501,-10.873 0.302,-10.8C0.002,-10.692 -0.259,-10.5 -0.443,-10.243C-0.628,-9.985 -0.731,-9.662 -0.734,-9.314" style="fill:rgb(35,25,22);fill-rule:nonzero;"/>
                </g>
                <g transform="matrix(1,0,0,1,572.564,340.4)">
                    <path d="M0,2.841C-0.069,2.885 -0.136,2.916 -0.198,2.937C-0.261,2.956 -0.318,2.966 -0.375,2.966C-0.468,2.966 -0.564,2.942 -0.674,2.885C-0.769,2.836 -0.871,2.762 -0.975,2.666C-1.156,2.499 -1.34,2.264 -1.505,2C-1.754,1.606 -1.965,1.146 -2.108,0.75C-2.172,0.576 -2.223,0.417 -2.259,0.281C-2.134,0.272 -1.988,0.258 -1.828,0.24C-1.587,0.212 -1.315,0.172 -1.041,0.114C-0.815,0.067 -0.59,0.007 -0.375,-0.07C-0.161,0.007 0.065,0.067 0.29,0.114C0.701,0.2 1.107,0.247 1.414,0.274C1.446,0.277 1.478,0.278 1.508,0.281C1.503,0.301 1.497,0.321 1.491,0.342C1.426,0.575 1.322,0.868 1.189,1.171C0.99,1.625 0.723,2.104 0.433,2.446C0.288,2.618 0.139,2.755 0,2.841M-4.611,0.132C-4.599,0.134 -3.91,0.268 -3.011,0.298C-2.994,0.375 -2.974,0.455 -2.949,0.542C-2.873,0.813 -2.759,1.133 -2.612,1.466C-2.393,1.966 -2.104,2.494 -1.745,2.921C-1.564,3.134 -1.366,3.321 -1.141,3.464C-1.027,3.534 -0.907,3.594 -0.779,3.635C-0.651,3.677 -0.515,3.7 -0.375,3.7C-0.147,3.7 0.067,3.638 0.26,3.538C0.429,3.451 0.582,3.337 0.724,3.205C0.972,2.976 1.187,2.694 1.377,2.392C1.661,1.939 1.888,1.44 2.048,1.003C2.128,0.784 2.191,0.581 2.235,0.404C2.244,0.367 2.253,0.333 2.26,0.298C3.16,0.268 3.848,0.134 3.86,0.132C4.06,0.093 4.189,-0.099 4.151,-0.299C4.112,-0.498 3.92,-0.629 3.721,-0.59C3.708,-0.587 2.898,-0.434 1.938,-0.43C1.878,-0.432 1.552,-0.444 1.142,-0.492C0.918,-0.518 0.671,-0.555 0.431,-0.607C0.19,-0.658 -0.044,-0.723 -0.236,-0.803L-0.375,-0.859L-0.514,-0.803C-0.71,-0.722 -0.948,-0.656 -1.192,-0.604C-1.56,-0.527 -1.94,-0.482 -2.227,-0.459C-2.37,-0.446 -2.49,-0.439 -2.573,-0.435C-2.614,-0.433 -2.647,-0.431 -2.669,-0.43L-2.685,-0.43C-3.167,-0.432 -3.613,-0.472 -3.938,-0.511C-4.104,-0.531 -4.239,-0.551 -4.332,-0.566C-4.379,-0.573 -4.414,-0.579 -4.437,-0.584C-4.449,-0.586 -4.458,-0.588 -4.464,-0.589L-4.47,-0.59L-4.472,-0.59C-4.671,-0.629 -4.863,-0.498 -4.902,-0.299C-4.94,-0.099 -4.811,0.093 -4.611,0.132" style="fill:rgb(35,25,22);fill-rule:nonzero;"/>
                </g>
                <g transform="matrix(1,0,0,1,579.1,334.691)">
                    <path d="M0,-0.97C-0.262,-0.85 -0.492,-0.676 -0.679,-0.464C-0.813,-0.312 -0.799,-0.079 -0.646,0.054C-0.495,0.189 -0.263,0.175 -0.128,0.022C-0.007,-0.115 0.142,-0.227 0.309,-0.304C0.476,-0.381 0.66,-0.424 0.857,-0.424C1.055,-0.424 1.239,-0.381 1.406,-0.304C1.573,-0.227 1.722,-0.115 1.843,0.022C1.977,0.175 2.209,0.189 2.361,0.055C2.514,-0.079 2.528,-0.312 2.394,-0.464C2.206,-0.676 1.976,-0.85 1.715,-0.97C1.454,-1.091 1.163,-1.159 0.857,-1.158C0.552,-1.159 0.261,-1.091 0,-0.97" style="fill:rgb(35,25,22);fill-rule:nonzero;"/>
                </g>
                <g transform="matrix(1,0,0,1,563.406,333.699)">
                    <path d="M0,1.015C0.121,0.878 0.27,0.766 0.437,0.689C0.604,0.612 0.788,0.569 0.985,0.569C1.183,0.569 1.367,0.612 1.534,0.689C1.701,0.766 1.85,0.878 1.971,1.015C2.105,1.167 2.337,1.182 2.489,1.048C2.642,0.913 2.656,0.681 2.521,0.529C2.334,0.317 2.104,0.143 1.843,0.023C1.582,-0.098 1.291,-0.167 0.985,-0.166C0.68,-0.167 0.389,-0.098 0.128,0.023C-0.133,0.143 -0.363,0.317 -0.551,0.529C-0.686,0.681 -0.671,0.913 -0.519,1.048C-0.366,1.182 -0.134,1.167 0,1.015" style="fill:rgb(35,25,22);fill-rule:nonzero;"/>
                </g>
                <g transform="matrix(1,0,0,1,574.056,342.954)">
                    <path d="M0,-2.212C0.006,-2.233 0.012,-2.253 0.017,-2.273C-0.014,-2.275 -0.045,-2.277 -0.077,-2.28C-0.384,-2.307 -0.79,-2.354 -1.201,-2.44C-1.426,-2.487 -1.652,-2.547 -1.866,-2.624C-2.081,-2.547 -2.307,-2.487 -2.532,-2.44C-2.807,-2.382 -3.078,-2.342 -3.319,-2.314C-3.479,-2.296 -3.625,-2.282 -3.75,-2.273C-3.714,-2.137 -3.663,-1.978 -3.6,-1.804C-3.456,-1.408 -3.245,-0.948 -2.996,-0.554C-2.831,-0.29 -2.647,-0.055 -2.466,0.112C-2.362,0.208 -2.26,0.282 -2.165,0.331C-2.056,0.388 -1.959,0.412 -1.866,0.412C-1.81,0.412 -1.752,0.402 -1.689,0.383C-1.627,0.362 -1.561,0.331 -1.491,0.287C-1.353,0.201 -1.203,0.064 -1.059,-0.108C-0.769,-0.45 -0.501,-0.929 -0.302,-1.383C-0.169,-1.686 -0.065,-1.979 0,-2.212" style="fill:rgb(234,90,66);fill-rule:nonzero;"/>
                </g>
                <g transform="matrix(1,0,0,1,569.971,359.699)">
                    <path d="M0,0.061C-0.016,0.811 -0.237,1.187 -0.659,1.178L-0.674,1.177L-0.681,1.177L-1.01,1.17L-0.963,-1.079L-0.633,-1.072L-0.627,-1.072L-0.569,-1.07L-0.569,-1.067C-0.392,-1.048 -0.251,-0.965 -0.15,-0.82C-0.04,-0.659 0.009,-0.372 0,0.061M-0.51,-1.25L-0.51,-1.251L-0.533,-1.251L-1.177,-1.264L-1.229,1.299L-0.586,1.313C-0.577,1.313 -0.568,1.314 -0.56,1.314C-0.052,1.325 0.211,0.901 0.229,0.04C0.239,-0.457 0.178,-0.794 0.043,-0.974C-0.088,-1.149 -0.271,-1.24 -0.51,-1.25" style="fill:rgb(0,64,152);fill-rule:nonzero;"/>
                </g>
                <g transform="matrix(1,0,0,1,569.353,360.789)">
                    <path d="M0,-2.071L-0.037,-2.072L-0.258,-2.077L-0.301,-0.008L-0.049,-0.002L-0.04,-0.002C0.327,0.006 0.513,-0.331 0.527,-1.031C0.536,-1.438 0.49,-1.717 0.393,-1.858C0.3,-1.994 0.171,-2.063 0,-2.071" style="fill:rgb(0,64,152);fill-rule:nonzero;"/>
                </g>
                <g transform="matrix(1,0,0,1,571.278,359.677)">
                    <path d="M0,0.093C-0.012,0.69 -0.188,1.176 -0.529,1.549C-0.865,1.919 -1.316,2.1 -1.884,2.092L-3.667,2.055L-3.649,1.221L-3.354,1.228L-3.34,0.557L-3.316,-0.57L-3.304,-1.178L-3.596,-1.184L-3.578,-2.021L-1.912,-1.986C-1.879,-1.987 -1.845,-1.987 -1.812,-1.987C-1.262,-1.975 -0.819,-1.785 -0.483,-1.417C-0.147,-1.048 0.014,-0.545 0,0.093M-1.812,-2.145C-1.845,-2.146 -1.881,-2.146 -1.922,-2.145L-3.746,-2.183L-3.763,-1.388L-3.764,-1.348L-3.766,-1.259L-3.769,-1.099L-3.77,-1.086L-3.77,-1.058L-3.538,-1.053L-3.538,-1.054L-3.442,-1.052L-3.487,1.075L-3.577,1.073L-3.577,1.072L-3.818,1.068L-3.819,1.068L-3.83,1.586L-3.829,1.586L-3.843,2.228L-1.889,2.268C-1.271,2.276 -0.771,2.079 -0.405,1.683C-0.033,1.28 0.162,0.75 0.176,0.106C0.189,-0.583 0.012,-1.134 -0.355,-1.53C-0.722,-1.927 -1.212,-2.134 -1.812,-2.145" style="fill:rgb(0,64,152);fill-rule:nonzero;"/>
                </g>
                <g transform="matrix(1,0,0,1,574.901,361.905)">
                    <path d="M0,-4.09L0.815,-4.072L0.784,-2.578L0.778,-2.578L0.778,-2.577L-0.266,-2.6C-0.293,-3.094 -0.517,-3.351 -0.944,-3.36C-1.464,-3.37 -1.732,-2.947 -1.75,-2.089C-1.761,-1.594 -1.697,-1.256 -1.56,-1.077C-1.422,-0.898 -1.227,-0.806 -0.973,-0.801C-0.578,-0.792 -0.327,-1.019 -0.218,-1.474L-0.046,-1.471L0.771,-1.454L0.74,-0.01L-0.076,-0.028L-0.071,-0.24C-0.342,-0.104 -0.65,-0.038 -0.999,-0.046C-1.562,-0.058 -2.015,-0.247 -2.358,-0.615C-2.702,-0.984 -2.868,-1.485 -2.854,-2.121C-2.842,-2.716 -2.661,-3.2 -2.313,-3.572C-1.966,-3.945 -1.497,-4.126 -0.908,-4.113C-0.55,-4.106 -0.25,-4.035 -0.004,-3.904L0,-4.09ZM-0.103,-4.193L-0.102,-4.193L-0.103,-4.168C-0.113,-4.172 -0.125,-4.175 -0.136,-4.179C-0.354,-4.252 -0.606,-4.292 -0.887,-4.298C-1.538,-4.312 -2.063,-4.114 -2.445,-3.711C-2.83,-3.308 -3.031,-2.775 -3.045,-2.127C-3.06,-1.435 -2.874,-0.882 -2.495,-0.484C-2.115,-0.085 -1.607,0.124 -0.986,0.137C-0.702,0.142 -0.438,0.105 -0.201,0.026L-0.202,0.076L-0.201,0.076L-0.204,0.198L0.918,0.222L0.958,-1.656L-0.437,-1.686C-0.466,-1.478 -0.518,-1.327 -0.592,-1.231C-0.687,-1.108 -0.812,-1.035 -0.965,-1.016L-0.97,-1.015L-0.974,-1.015C-1.152,-1.03 -1.294,-1.111 -1.395,-1.253C-1.502,-1.405 -1.551,-1.681 -1.542,-2.092C-1.528,-2.752 -1.342,-3.109 -0.989,-3.153L-0.98,-3.153C-0.661,-3.134 -0.474,-2.888 -0.424,-2.421L0.972,-2.392L1.011,-4.258L-0.101,-4.281L-0.103,-4.193Z" style="fill:rgb(0,64,152);fill-rule:nonzero;"/>
                </g>
                <g transform="matrix(1,0,0,1,579.111,361.94)">
                    <path d="M0,-4.042L1.464,-4.011L1.447,-3.195L1.227,-3.199L1.19,-1.463C1.183,-1.073 1.118,-0.779 0.998,-0.579C0.877,-0.379 0.698,-0.228 0.462,-0.122C0.226,-0.018 -0.091,0.031 -0.486,0.023C-0.667,0.02 -0.832,0.002 -0.983,-0.026C-1.2,-0.057 -1.384,-0.107 -1.533,-0.181C-1.767,-0.296 -1.939,-0.455 -2.053,-0.66C-2.165,-0.865 -2.218,-1.162 -2.209,-1.552L-2.174,-3.268L-2.403,-3.272L-2.387,-4.089L-0.897,-4.058L-0.914,-3.241L-1.122,-3.246L-1.158,-1.529C-1.162,-1.322 -1.146,-1.168 -1.111,-1.069C-1.076,-0.97 -1.003,-0.89 -0.892,-0.83C-0.781,-0.771 -0.645,-0.738 -0.48,-0.735C-0.422,-0.734 -0.367,-0.736 -0.315,-0.741C-0.255,-0.754 -0.198,-0.772 -0.147,-0.798C-0.035,-0.853 0.041,-0.93 0.08,-1.026C0.119,-1.124 0.141,-1.277 0.146,-1.485L0.182,-3.222L-0.017,-3.226L0,-4.042ZM-0.195,-3.112L0.003,-3.108L0.001,-3.043L-0.028,-1.64C-0.032,-1.459 -0.047,-1.328 -0.075,-1.241C-0.105,-1.149 -0.163,-1.076 -0.247,-1.023C-0.283,-1.001 -0.325,-0.983 -0.37,-0.971L-0.377,-0.97C-0.415,-0.965 -0.454,-0.963 -0.493,-0.964C-0.61,-0.966 -0.711,-0.995 -0.791,-1.05C-0.873,-1.105 -0.929,-1.181 -0.954,-1.274C-0.979,-1.362 -0.989,-1.493 -0.985,-1.674L-0.956,-3.063L-0.955,-3.128L-0.787,-3.125L-0.764,-4.241L-2.622,-4.28L-2.638,-3.532L-2.638,-3.531L-2.646,-3.163L-2.382,-3.158L-2.384,-3.068L-2.385,-3.068L-2.417,-1.487C-2.427,-1.062 -2.367,-0.733 -2.243,-0.513C-2.118,-0.293 -1.925,-0.119 -1.668,0.005C-1.503,0.084 -1.296,0.141 -1.053,0.174C-0.878,0.206 -0.689,0.225 -0.489,0.229C-0.046,0.238 0.312,0.185 0.576,0.071C0.837,-0.042 1.036,-0.208 1.168,-0.422C1.301,-0.638 1.373,-0.963 1.382,-1.389L1.415,-2.989L1.417,-3.078L1.669,-3.073L1.692,-4.19L-0.172,-4.229L-0.195,-3.112Z" style="fill:rgb(0,64,152);fill-rule:nonzero;"/>
                </g>
                <g transform="matrix(1,0,0,1,580.869,359.58)">
                    <path d="M0,-0.621L-0.253,-0.627L-0.286,0.974C-0.295,1.416 -0.372,1.756 -0.514,1.985C-0.655,2.216 -0.868,2.394 -1.146,2.514C-1.421,2.633 -1.792,2.689 -2.249,2.679C-2.454,2.675 -2.647,2.656 -2.825,2.623C-3.075,2.589 -3.292,2.529 -3.465,2.446C-3.739,2.315 -3.945,2.128 -4.079,1.892C-4.212,1.656 -4.274,1.314 -4.265,0.871L-4.231,-0.71L-4.495,-0.715L-4.468,-2.012L-2.675,-1.975L-2.675,-1.974L-2.431,-1.969L-2.457,-0.673L-2.625,-0.676L-2.628,-0.533L-2.653,0.689C-2.657,0.858 -2.647,0.983 -2.626,1.062C-2.605,1.135 -2.563,1.192 -2.499,1.236C-2.433,1.281 -2.349,1.305 -2.249,1.307C-2.215,1.308 -2.182,1.306 -2.148,1.302C-2.113,1.292 -2.081,1.278 -2.053,1.261C-1.986,1.219 -1.942,1.164 -1.919,1.091C-1.894,1.014 -1.879,0.889 -1.876,0.719L-1.85,-0.517L-1.847,-0.66L-2.045,-0.664L-2.019,-1.961L-1.738,-1.955L-1.738,-1.958L0.026,-1.921L0.026,-1.918L0,-0.621ZM-4.906,-0.064L-4.908,0.025L-6.383,-0.006L-6.416,-0.007L-6.473,-0.008C-6.505,-0.478 -6.662,-0.719 -6.949,-0.737C-7.249,-0.697 -7.407,-0.37 -7.42,0.235C-7.428,0.621 -7.384,0.886 -7.288,1.021C-7.204,1.142 -7.09,1.206 -6.938,1.221C-6.812,1.203 -6.71,1.144 -6.631,1.04C-6.558,0.944 -6.509,0.779 -6.484,0.548L-6.394,0.55L-4.919,0.581L-4.921,0.671L-4.96,2.549L-4.961,2.618L-4.962,2.639L-5.795,2.621L-5.794,2.622L-6.264,2.612L-6.261,2.473C-6.476,2.53 -6.708,2.557 -6.956,2.552C-7.602,2.538 -8.131,2.32 -8.527,1.904C-8.924,1.487 -9.117,0.913 -9.103,0.196C-9.089,-0.475 -8.878,-1.027 -8.479,-1.448C-8.077,-1.87 -7.53,-2.077 -6.853,-2.062C-6.602,-2.058 -6.374,-2.024 -6.17,-1.967L-6.168,-2.048L-4.866,-2.02L-4.866,-2.011L-4.865,-2.011L-4.906,-0.064ZM-9.325,0.205C-9.34,0.872 -9.543,1.423 -9.931,1.842C-10.305,2.247 -10.812,2.454 -11.437,2.455L-11.437,2.456L-11.481,2.455L-13.525,2.412L-13.504,1.401L-13.497,1.073L-13.171,1.08L-13.133,-0.768L-13.131,-0.866L-13.452,-0.873L-13.452,-0.901L-13.45,-0.963L-13.446,-1.163L-13.425,-2.178L-11.513,-2.138C-11.473,-2.139 -11.435,-2.139 -11.4,-2.138C-10.775,-2.125 -10.265,-1.908 -9.881,-1.493C-9.497,-1.079 -9.311,-0.508 -9.325,0.205M5.785,-2.608L5.781,-2.617L5.778,-2.627C5.085,-4.681 4.281,-5.906 3.953,-6.356C3.408,-6.168 2.823,-5.995 2.241,-5.841C1.567,-5.662 0.898,-5.507 0.307,-5.379C-0.604,-5.183 -1.334,-5.054 -1.626,-5.003C-1.762,-4.845 -1.916,-4.704 -2.085,-4.58C-2.296,-4.426 -2.528,-4.296 -2.772,-4.185C-3.262,-3.964 -3.8,-3.816 -4.325,-3.714C-5.373,-3.511 -6.37,-3.488 -6.773,-3.488C-6.89,-3.488 -6.956,-3.49 -6.96,-3.49L-6.987,-3.492C-6.994,-3.493 -7.31,-3.526 -7.774,-3.611C-8.239,-3.696 -8.854,-3.832 -9.464,-4.043C-9.87,-4.184 -10.275,-4.357 -10.636,-4.578C-10.842,-4.704 -11.033,-4.847 -11.201,-5.01C-11.344,-5.148 -11.47,-5.304 -11.568,-5.477C-11.91,-5.554 -12.74,-5.77 -14.361,-6.352C-14.376,-6.333 -14.391,-6.311 -14.406,-6.289C-14.534,-6.106 -14.714,-5.835 -14.917,-5.49C-15.322,-4.801 -15.819,-3.814 -16.181,-2.642L-16.187,-2.622L-16.195,-2.604L-16.195,-2.602L-16.199,-2.594C-16.203,-2.585 -16.209,-2.57 -16.217,-2.55C-16.232,-2.51 -16.256,-2.447 -16.283,-2.363C-16.34,-2.194 -16.417,-1.938 -16.494,-1.599C-16.648,-0.919 -16.805,0.098 -16.805,1.426C-16.805,2.266 -16.741,3.231 -16.575,4.313C-16.469,4.335 -16.331,4.363 -16.163,4.397C-15.741,4.482 -15.137,4.598 -14.409,4.728C-12.954,4.987 -11.004,5.299 -9.033,5.506C-7.719,5.645 -6.396,5.735 -5.206,5.735C-4.054,5.735 -2.781,5.65 -1.517,5.519C-0.252,5.388 1.005,5.212 2.13,5.033C3.999,4.736 5.501,4.433 6.068,4.314C6.248,3.147 6.313,2.117 6.313,1.233C6.313,-1.258 5.789,-2.597 5.785,-2.608" style="fill:rgb(0,64,152);fill-rule:nonzero;"/>
                </g>
                <g transform="matrix(1,0,0,1,566.663,353.016)">
                    <rect x="0" y="0" width="0.001" height="0.001" style="fill:rgb(0,64,152);"/>
                </g>
                <g transform="matrix(1,0,0,1,572.588,361.342)">
                    <path d="M0,-3.009C-0.348,-2.637 -0.528,-2.153 -0.541,-1.558C-0.555,-0.921 -0.389,-0.42 -0.045,-0.052C0.299,0.316 0.752,0.506 1.314,0.517C1.663,0.525 1.972,0.46 2.242,0.323L2.237,0.536L3.054,0.554L3.084,-0.891L2.268,-0.907L2.096,-0.91C1.986,-0.455 1.735,-0.229 1.341,-0.238C1.087,-0.242 0.892,-0.334 0.754,-0.514C0.616,-0.693 0.553,-1.03 0.563,-1.526C0.581,-2.384 0.85,-2.807 1.369,-2.796C1.797,-2.787 2.021,-2.53 2.048,-2.036L3.092,-2.014L3.092,-2.015L3.098,-2.015L3.129,-3.509L2.313,-3.527L2.31,-3.341C2.063,-3.472 1.764,-3.542 1.405,-3.55C0.816,-3.563 0.348,-3.382 0,-3.009" style="fill:white;fill-rule:nonzero;"/>
                </g>
                <g transform="matrix(1,0,0,1,579.257,359.368)">
                    <path d="M0,1.087C-0.005,1.295 -0.026,1.448 -0.065,1.546C-0.104,1.643 -0.181,1.72 -0.293,1.774C-0.344,1.8 -0.4,1.818 -0.461,1.831C-0.513,1.836 -0.567,1.838 -0.626,1.837C-0.79,1.834 -0.927,1.802 -1.037,1.742C-1.148,1.683 -1.222,1.603 -1.257,1.503C-1.292,1.404 -1.308,1.25 -1.304,1.043L-1.268,-0.674L-1.06,-0.669L-1.043,-1.485L-2.532,-1.517L-2.549,-0.7L-2.319,-0.695L-2.354,1.021C-2.363,1.41 -2.311,1.707 -2.198,1.912C-2.085,2.117 -1.912,2.276 -1.679,2.392C-1.529,2.465 -1.346,2.516 -1.129,2.546C-0.978,2.574 -0.812,2.592 -0.632,2.596C-0.236,2.604 0.08,2.555 0.316,2.45C0.553,2.345 0.731,2.193 0.853,1.993C0.973,1.793 1.037,1.499 1.045,1.109L1.081,-0.627L1.302,-0.623L1.318,-1.438L-0.146,-1.47L-0.162,-0.653L0.036,-0.649L0,1.087Z" style="fill:white;fill-rule:nonzero;"/>
                </g>
                <g transform="matrix(1,0,0,1,570.2,359.694)">
                    <path d="M0,0.045C-0.019,0.905 -0.281,1.329 -0.789,1.318C-0.798,1.318 -0.807,1.317 -0.815,1.317L-1.459,1.304L-1.406,-1.26L-0.763,-1.247L-0.76,-1.247L-0.757,-1.246L-0.739,-1.246L-0.739,-1.245C-0.501,-1.235 -0.317,-1.144 -0.187,-0.97C-0.052,-0.79 0.01,-0.452 0,0.045M-0.733,-2.004C-0.767,-2.004 -0.801,-2.004 -0.834,-2.003L-2.5,-2.038L-2.518,-1.201L-2.226,-1.194L-2.238,-0.587L-2.262,0.54L-2.276,1.211L-2.571,1.204L-2.589,2.038L-0.806,2.075C-0.238,2.083 0.213,1.902 0.549,1.532C0.89,1.159 1.066,0.673 1.078,0.076C1.092,-0.561 0.931,-1.064 0.595,-1.434C0.259,-1.802 -0.184,-1.992 -0.733,-2.004" style="fill:white;fill-rule:nonzero;"/>
                </g>
                <g transform="matrix(1,0,0,1,569.881,359.748)">
                    <path d="M0,0.01C-0.015,0.71 -0.2,1.047 -0.567,1.039L-0.576,1.039L-0.828,1.033L-0.785,-1.036L-0.564,-1.031L-0.527,-1.03C-0.356,-1.022 -0.228,-0.953 -0.135,-0.817C-0.037,-0.676 0.009,-0.397 0,0.01M-0.479,-1.116L-0.479,-1.119L-0.537,-1.121L-0.543,-1.121L-0.873,-1.128L-0.92,1.121L-0.591,1.128L-0.584,1.128L-0.569,1.129C-0.147,1.138 0.074,0.762 0.09,0.012C0.099,-0.421 0.05,-0.708 -0.061,-0.869C-0.161,-1.014 -0.302,-1.097 -0.479,-1.116" style="fill:white;fill-rule:nonzero;"/>
                </g>
                <g transform="matrix(1,0,0,1,575.873,360.207)">
                    <path d="M0,-0.694L-1.396,-0.723C-1.445,-1.19 -1.633,-1.436 -1.952,-1.455L-1.961,-1.455C-2.313,-1.411 -2.5,-1.054 -2.514,-0.394C-2.522,0.017 -2.474,0.292 -2.366,0.445C-2.266,0.587 -2.124,0.667 -1.945,0.683L-1.941,0.683L-1.937,0.682C-1.783,0.662 -1.658,0.59 -1.563,0.467C-1.489,0.37 -1.437,0.22 -1.408,0.012L-0.014,0.041L-0.054,1.919L-1.176,1.896L-1.173,1.774L-1.174,1.774L-1.173,1.724C-1.41,1.803 -1.674,1.84 -1.958,1.834C-2.579,1.822 -3.087,1.613 -3.467,1.214C-3.846,0.816 -4.031,0.263 -4.017,-0.429C-4.003,-1.077 -3.802,-1.61 -3.417,-2.013C-3.034,-2.417 -2.51,-2.614 -1.858,-2.6C-1.578,-2.594 -1.326,-2.554 -1.107,-2.481C-1.097,-2.477 -1.085,-2.474 -1.074,-2.47L-1.073,-2.495L-1.074,-2.495L-1.072,-2.584L0.039,-2.56L0,-0.694ZM0.13,-2.648L-1.172,-2.675L-1.174,-2.594C-1.378,-2.652 -1.605,-2.685 -1.856,-2.69C-2.534,-2.705 -3.081,-2.498 -3.482,-2.076C-3.882,-1.655 -4.093,-1.102 -4.106,-0.431C-4.121,0.285 -3.928,0.86 -3.531,1.277C-3.135,1.693 -2.605,1.91 -1.96,1.924C-1.712,1.929 -1.479,1.903 -1.265,1.845L-1.268,1.985L-0.798,1.994L-0.799,1.994L0.034,2.011L0.035,1.991L0.036,1.921L0.075,0.043L0.077,-0.047L-1.397,-0.078L-1.488,-0.08C-1.513,0.152 -1.562,0.317 -1.635,0.412C-1.714,0.516 -1.815,0.576 -1.942,0.593C-2.094,0.578 -2.208,0.514 -2.292,0.393C-2.388,0.258 -2.432,-0.007 -2.424,-0.392C-2.411,-0.998 -2.253,-1.325 -1.953,-1.365C-1.666,-1.346 -1.509,-1.106 -1.477,-0.635L-1.42,-0.634L-1.387,-0.633L0.088,-0.603L0.09,-0.692L0.131,-2.638L0.13,-2.638L0.13,-2.648Z" style="fill:white;fill-rule:nonzero;"/>
                </g>
                <g transform="matrix(1,0,0,1,580.78,360.969)">
                    <path d="M0,-2.102L-0.252,-2.107L-0.254,-2.018L-0.287,-0.417C-0.296,0.008 -0.368,0.334 -0.501,0.549C-0.633,0.763 -0.832,0.929 -1.093,1.043C-1.356,1.156 -1.715,1.21 -2.158,1.201C-2.358,1.196 -2.547,1.177 -2.722,1.145C-2.965,1.112 -3.172,1.055 -3.337,0.976C-3.594,0.852 -3.787,0.678 -3.912,0.459C-4.036,0.238 -4.096,-0.09 -4.086,-0.516L-4.054,-2.097L-4.053,-2.097L-4.051,-2.187L-4.314,-2.192L-4.307,-2.56L-4.307,-2.561L-4.291,-3.309L-2.433,-3.27L-2.456,-2.154L-2.624,-2.157L-2.625,-2.092L-2.654,-0.703C-2.658,-0.522 -2.648,-0.391 -2.623,-0.303C-2.598,-0.209 -2.542,-0.134 -2.46,-0.079C-2.38,-0.024 -2.279,0.005 -2.162,0.007C-2.123,0.008 -2.084,0.006 -2.046,0.002L-2.039,0.001C-1.994,-0.012 -1.952,-0.03 -1.916,-0.052C-1.832,-0.105 -1.774,-0.178 -1.744,-0.27C-1.716,-0.357 -1.701,-0.488 -1.697,-0.668L-1.668,-2.072L-1.666,-2.137L-1.864,-2.141L-1.841,-3.258L0.023,-3.219L0,-2.102ZM0.115,-3.31L-1.649,-3.347L-1.649,-3.344L-1.93,-3.35L-1.956,-2.053L-1.758,-2.049L-1.761,-1.906L-1.787,-0.67C-1.79,-0.5 -1.805,-0.375 -1.83,-0.298C-1.854,-0.225 -1.897,-0.17 -1.964,-0.128C-1.992,-0.111 -2.024,-0.097 -2.06,-0.087C-2.093,-0.083 -2.126,-0.081 -2.16,-0.082C-2.26,-0.084 -2.344,-0.108 -2.41,-0.153C-2.475,-0.197 -2.517,-0.254 -2.537,-0.328C-2.559,-0.406 -2.568,-0.532 -2.564,-0.701L-2.539,-1.922L-2.536,-2.065L-2.368,-2.062L-2.342,-3.358L-2.586,-3.363L-2.586,-3.364L-4.379,-3.401L-4.406,-2.104L-4.143,-2.099L-4.176,-0.518C-4.186,-0.076 -4.123,0.267 -3.99,0.502C-3.856,0.739 -3.65,0.925 -3.376,1.057C-3.203,1.14 -2.986,1.2 -2.736,1.234C-2.559,1.267 -2.365,1.286 -2.16,1.29C-1.703,1.299 -1.332,1.244 -1.057,1.125C-0.779,1.004 -0.566,0.827 -0.425,0.596C-0.283,0.367 -0.206,0.027 -0.197,-0.415L-0.164,-2.016L0.089,-2.01L0.115,-3.307L0.115,-3.31Z" style="fill:white;fill-rule:nonzero;"/>
                </g>
                <g transform="matrix(1,0,0,1,571.454,359.655)">
                    <path d="M0,0.128C-0.014,0.773 -0.209,1.303 -0.581,1.705C-0.946,2.102 -1.446,2.298 -2.064,2.29L-4.019,2.25L-4.005,1.608L-4.006,1.608L-3.995,1.09L-3.994,1.09L-3.753,1.095L-3.753,1.096L-3.663,1.098L-3.618,-1.029L-3.714,-1.032L-3.714,-1.031L-3.945,-1.036L-3.945,-1.064L-3.944,-1.077L-3.941,-1.236L-3.939,-1.326L-3.938,-1.366L-3.922,-2.161L-2.098,-2.123C-2.057,-2.124 -2.021,-2.124 -1.987,-2.123C-1.388,-2.111 -0.897,-1.904 -0.531,-1.508C-0.164,-1.111 0.014,-0.56 0,0.128M-1.985,-2.213C-2.02,-2.214 -2.058,-2.214 -2.098,-2.213L-4.01,-2.253L-4.031,-1.238L-4.035,-1.038L-4.037,-0.976L-4.037,-0.948L-3.716,-0.941L-3.718,-0.844L-3.756,1.005L-4.082,0.998L-4.089,1.326L-4.11,2.337L-2.066,2.38L-2.021,2.381L-2.021,2.38C-1.396,2.379 -0.89,2.172 -0.516,1.767C-0.128,1.348 0.075,0.797 0.09,0.13C0.104,-0.583 -0.082,-1.154 -0.466,-1.568C-0.85,-1.983 -1.36,-2.2 -1.985,-2.213" style="fill:white;fill-rule:nonzero;"/>
                </g>
                <g transform="matrix(0.994407,-0.105612,-0.105612,-0.994407,576.019,381.294)">
                    <path d="M-0.051,0.005C-0.016,-0.193 0.034,-0.4 0.102,-0.611L-0.051,1.577C-0.067,1.485 -0.081,1.387 -0.092,1.284C-0.131,0.914 -0.133,0.479 -0.051,0.005" style="fill:white;fill-rule:nonzero;"/>
                </g>
                <g transform="matrix(1,0,0,1,575.74,383.312)">
                    <path d="M0,-4.972C-0.191,-5.04 -0.401,-4.941 -0.47,-4.75C-0.479,-4.723 -0.683,-4.148 -0.683,-3.285C-0.683,-2.855 -0.632,-2.354 -0.479,-1.816C-0.326,-1.278 -0.07,-0.704 0.334,-0.136C0.452,0.03 0.682,0.068 0.847,-0.049C1.012,-0.167 1.051,-0.397 0.934,-0.562C0.728,-0.852 0.568,-1.14 0.444,-1.421C0.354,-1.623 0.283,-1.824 0.228,-2.017C0.096,-2.48 0.052,-2.912 0.052,-3.285C0.052,-3.388 0.056,-3.487 0.062,-3.58C0.077,-3.823 0.108,-4.029 0.141,-4.184C0.162,-4.291 0.184,-4.374 0.199,-4.429C0.207,-4.456 0.214,-4.476 0.218,-4.489C0.22,-4.495 0.221,-4.499 0.222,-4.501L0.223,-4.503L0.223,-4.504C0.29,-4.695 0.19,-4.905 0,-4.972" style="fill:rgb(35,25,22);fill-rule:nonzero;"/>
                </g>
                <g transform="matrix(0.99434,-0.106241,-0.106241,-0.99434,578.401,381.294)">
                    <path d="M-0.051,0.005C-0.017,-0.193 0.032,-0.399 0.1,-0.611L-0.051,1.577C-0.067,1.485 -0.082,1.387 -0.093,1.284C-0.132,0.915 -0.133,0.479 -0.051,0.005" style="fill:white;fill-rule:nonzero;"/>
                </g>
                <g transform="matrix(1,0,0,1,578.121,383.312)">
                    <path d="M0,-4.972C-0.191,-5.04 -0.401,-4.941 -0.47,-4.75C-0.479,-4.723 -0.683,-4.148 -0.683,-3.285C-0.683,-2.855 -0.632,-2.354 -0.479,-1.816C-0.326,-1.279 -0.07,-0.704 0.335,-0.136C0.452,0.03 0.682,0.068 0.847,-0.049C1.013,-0.167 1.051,-0.397 0.934,-0.562C0.728,-0.852 0.568,-1.14 0.444,-1.421C0.354,-1.624 0.283,-1.824 0.229,-2.017C0.097,-2.48 0.052,-2.912 0.052,-3.285C0.052,-3.388 0.056,-3.487 0.062,-3.58C0.077,-3.823 0.109,-4.029 0.141,-4.184C0.162,-4.291 0.185,-4.374 0.2,-4.429C0.208,-4.456 0.214,-4.476 0.218,-4.489C0.22,-4.495 0.222,-4.499 0.223,-4.501L0.223,-4.504C0.29,-4.695 0.19,-4.905 0,-4.972" style="fill:rgb(35,25,22);fill-rule:nonzero;"/>
                </g>
                <g transform="matrix(0.994407,-0.105612,-0.105612,-0.994407,581.12,381.294)">
                    <path d="M-0.051,0.005C-0.016,-0.193 0.034,-0.399 0.102,-0.611L-0.051,1.577C-0.067,1.485 -0.081,1.387 -0.092,1.284C-0.131,0.914 -0.133,0.479 -0.051,0.005" style="fill:white;fill-rule:nonzero;"/>
                </g>
                <g transform="matrix(1,0,0,1,580.842,383.312)">
                    <path d="M0,-4.972C-0.191,-5.04 -0.401,-4.941 -0.47,-4.75C-0.479,-4.723 -0.683,-4.148 -0.683,-3.285C-0.683,-2.855 -0.632,-2.354 -0.479,-1.816C-0.326,-1.279 -0.07,-0.704 0.335,-0.136C0.452,0.03 0.682,0.068 0.847,-0.049C1.013,-0.167 1.051,-0.397 0.934,-0.562C0.728,-0.852 0.568,-1.14 0.444,-1.421C0.354,-1.624 0.283,-1.824 0.228,-2.017C0.096,-2.48 0.052,-2.912 0.052,-3.285C0.052,-3.388 0.056,-3.487 0.062,-3.58C0.077,-3.823 0.108,-4.029 0.141,-4.184C0.162,-4.291 0.185,-4.374 0.2,-4.429C0.208,-4.456 0.214,-4.476 0.218,-4.489C0.22,-4.495 0.222,-4.499 0.222,-4.501L0.223,-4.503L0.223,-4.504C0.29,-4.695 0.19,-4.905 0,-4.972" style="fill:rgb(35,25,22);fill-rule:nonzero;"/>
                </g>
                <g transform="matrix(1,0,0,1,578.691,335.436)">
                    <path d="M0,2.094C0.202,2.097 0.368,1.935 0.372,1.733C0.372,1.728 0.375,1.651 0.395,1.544C0.409,1.464 0.434,1.367 0.471,1.273C0.499,1.201 0.534,1.131 0.577,1.068C0.642,0.972 0.721,0.893 0.825,0.834C0.931,0.776 1.065,0.734 1.266,0.733C1.388,0.734 1.486,0.749 1.567,0.775C1.639,0.797 1.698,0.826 1.75,0.861C1.841,0.921 1.911,0.999 1.97,1.091C2.057,1.228 2.107,1.395 2.133,1.526C2.146,1.59 2.152,1.646 2.155,1.683C2.157,1.701 2.158,1.716 2.158,1.724L2.159,1.733C2.162,1.935 2.328,2.097 2.531,2.094C2.733,2.092 2.896,1.925 2.894,1.722C2.894,1.708 2.892,1.606 2.867,1.454C2.848,1.341 2.816,1.199 2.76,1.046C2.718,0.932 2.662,0.81 2.585,0.691C2.471,0.511 2.308,0.333 2.085,0.204C1.862,0.074 1.584,-0.003 1.266,-0.002C1.076,-0.002 0.902,0.025 0.745,0.073C0.607,0.116 0.482,0.177 0.374,0.249C0.184,0.375 0.042,0.537 -0.061,0.7C-0.214,0.946 -0.285,1.195 -0.323,1.384C-0.36,1.573 -0.362,1.706 -0.363,1.722C-0.365,1.925 -0.203,2.092 0,2.094" style="fill:rgb(35,25,22);fill-rule:nonzero;"/>
                </g>
                <g transform="matrix(1,0,0,1,565.741,336.84)">
                    <path d="M0,-0.713C-0.114,-0.893 -0.277,-1.07 -0.501,-1.199C-0.723,-1.329 -1.001,-1.406 -1.32,-1.405C-1.509,-1.405 -1.683,-1.379 -1.841,-1.33C-1.979,-1.287 -2.103,-1.227 -2.211,-1.154C-2.402,-1.028 -2.544,-0.866 -2.646,-0.703C-2.8,-0.458 -2.871,-0.209 -2.908,-0.02C-2.945,0.17 -2.948,0.303 -2.948,0.318C-2.951,0.521 -2.788,0.688 -2.585,0.69C-2.383,0.693 -2.217,0.531 -2.214,0.329C-2.213,0.324 -2.211,0.247 -2.191,0.141C-2.177,0.06 -2.152,-0.036 -2.114,-0.131C-2.086,-0.202 -2.051,-0.273 -2.008,-0.336C-1.943,-0.432 -1.864,-0.511 -1.76,-0.569C-1.655,-0.628 -1.52,-0.67 -1.32,-0.671C-1.198,-0.67 -1.1,-0.654 -1.018,-0.629C-0.946,-0.607 -0.887,-0.577 -0.835,-0.543C-0.744,-0.483 -0.674,-0.404 -0.616,-0.313C-0.529,-0.176 -0.478,-0.009 -0.452,0.122C-0.439,0.186 -0.433,0.242 -0.43,0.279C-0.428,0.298 -0.427,0.312 -0.427,0.32L-0.427,0.329L-0.426,0.329C-0.423,0.531 -0.257,0.693 -0.055,0.69C0.148,0.688 0.311,0.521 0.309,0.318C0.309,0.305 0.307,0.202 0.281,0.051C0.263,-0.063 0.231,-0.204 0.175,-0.358C0.133,-0.472 0.076,-0.594 0,-0.713" style="fill:rgb(35,25,22);fill-rule:nonzero;"/>
                </g>
                <g transform="matrix(1,0,0,1,558.531,314.593)">
                    <path d="M0,11.514C0.146,11.372 0.15,11.14 0.009,10.994L-10.587,0.009C-10.728,-0.137 -10.961,-0.141 -11.106,-0.001C-11.253,0.14 -11.257,0.372 -11.116,0.519L-0.52,11.504C-0.379,11.651 -0.146,11.655 0,11.514" style="fill:rgb(35,25,22);fill-rule:nonzero;"/>
                </g>
                <g transform="matrix(1,0,0,1,560.04,320.691)">
                    <path d="M0,-8.218C-0.189,-8.144 -0.282,-7.931 -0.208,-7.741L2.749,-0.207C2.823,-0.019 3.036,0.074 3.225,0.001C3.414,-0.073 3.507,-0.287 3.433,-0.476L0.476,-8.01C0.402,-8.199 0.188,-8.292 0,-8.218" style="fill:rgb(35,25,22);fill-rule:nonzero;"/>
                </g>
                <g transform="matrix(1,0,0,1,601.506,324.334)">
                    <path d="M0,-7.981C-0.134,-8.133 -0.366,-8.149 -0.519,-8.016L-9.104,-0.518C-9.258,-0.385 -9.273,-0.153 -9.14,0C-9.006,0.153 -8.774,0.168 -8.621,0.035L-0.035,-7.462C0.117,-7.595 0.133,-7.828 0,-7.981" style="fill:rgb(35,25,22);fill-rule:nonzero;"/>
                    <g transform="matrix(0.723644,0.265652,-0.274875,0.748765,1.40313,8.28113)">
                        <path d="M0,-7.981C-0.134,-8.133 -0.366,-8.149 -0.519,-8.016L-9.104,-0.518C-9.258,-0.385 -9.273,-0.153 -9.14,0C-9.006,0.153 -8.774,0.168 -8.621,0.035L-0.035,-7.462C0.117,-7.595 0.133,-7.828 0,-7.981" style="fill:rgb(35,25,22);fill-rule:nonzero;"/>
                    </g>
                </g>
                <g transform="matrix(1,0,0,1,588.431,319.145)">
                    <path d="M0,-6.072L-2.221,-0.262C-2.293,-0.073 -2.198,0.14 -2.008,0.212C-1.818,0.284 -1.606,0.19 -1.534,0L0.687,-5.809C0.759,-5.999 0.663,-6.212 0.474,-6.284C0.284,-6.356 0.072,-6.261 0,-6.072" style="fill:rgb(35,25,22);fill-rule:nonzero;"/>
                </g>
                <g transform="matrix(1,0,0,1,547.135,332.795)">
                    <path d="M0,-3.888C-0.188,-3.963 -0.402,-3.87 -0.477,-3.682C-0.552,-3.493 -0.46,-3.28 -0.271,-3.205L7.798,0C7.986,0.075 8.2,-0.018 8.274,-0.206C8.35,-0.395 8.258,-0.609 8.068,-0.683L0,-3.888Z" style="fill:rgb(35,25,22);fill-rule:nonzero;"/>
                </g>
            </g>
        </g>
    </g>
</svg>
