<?xml version="1.0" encoding="UTF-8" standalone="no"?>
<!DOCTYPE svg PUBLIC "-//W3C//DTD SVG 1.1//EN" "http://www.w3.org/Graphics/SVG/1.1/DTD/svg11.dtd">
<svg width="100%" height="100%" viewBox="0 0 558 121" version="1.1" xmlns="http://www.w3.org/2000/svg" xmlns:xlink="http://www.w3.org/1999/xlink" xml:space="preserve" xmlns:serif="http://www.serif.com/" style="fill-rule:evenodd;clip-rule:evenodd;stroke-linejoin:round;stroke-miterlimit:2;">
    <g id="Artboard1" transform="matrix(0.860303,0,0,0.681707,0.730714,-0.0772277)">
        <rect x="-0.849" y="0.113" width="647.645" height="176.049" style="fill:none;"/>
        <g transform="matrix(0.116238,0,0,-0.146691,-28.6496,640.916)">
            <g transform="matrix(10,0,0,-10,239.167,4368.4)">
                <path d="M48.833,13.74C58.383,15.89 65.033,19.24 70.433,24.59C74.433,28.59 76.883,32.99 78.383,38.79C79.483,43.09 79.133,53.39 77.833,57.29C75.583,63.79 70.833,69.19 64.833,72.09C59.083,74.89 49.183,76.44 36.333,76.54L27.833,76.59L27.583,90.34C27.383,102.54 27.233,104.29 26.433,105.49C23.433,110.14 15.833,109.94 13.233,105.24C12.383,103.69 12.333,100.99 12.183,63.09C12.083,40.79 12.183,21.64 12.333,20.44C12.583,18.94 13.183,17.64 14.433,16.29C17.833,12.49 18.683,12.34 32.833,12.59C41.983,12.74 45.233,12.94 48.833,13.74ZM27.833,28.49C27.683,28.84 27.633,36.19 27.683,44.84L27.833,60.59L38.833,60.59C51.083,60.59 55.183,59.94 59.233,57.34C62.233,55.44 63.283,53.14 63.483,47.74C63.733,41.69 62.783,38.99 59.133,35.29C56.233,32.39 53.533,31.09 47.583,29.54C40.883,27.84 28.333,27.14 27.833,28.49Z" style="fill:white;"/>
            </g>
            <path d="M462.5,4285.5C440.5,4283 414.5,4278 404.5,4273.5C379.5,4263 346.5,4232.5 333.5,4208L322.5,4187.5L321,3763C319.5,3286 318,3309 356,3271C387.5,3239 435,3227.5 476.5,3242C505,3252.5 526.5,3271 541.5,3299.5L555.5,3325L555,3439.5C555,3505.5 557,3555.5 559.5,3557C562,3559 598.5,3561 641,3562C769,3565.5 866.5,3586 927.5,3622.5C1033.5,3686 1088.5,3811 1070.5,3947.5C1046.5,4127 916.5,4243.5 702.5,4276.5C641.5,4286 517,4290.5 462.5,4285.5ZM727.5,4231C823,4209.5 889.5,4176 943.5,4122.5C983.5,4082.5 1008,4038.5 1023,3980.5C1034,3937.5 1030.5,3834.5 1017.5,3795.5C995,3730.5 947.5,3676.5 887.5,3647.5C830,3619.5 731,3604 602.5,3603L517.5,3602.5L515,3465C513,3343 511.5,3325.5 503.5,3313.5C473.5,3267 397.5,3269 371.5,3316C363,3331.5 362.5,3358.5 361,3737.5C360,3960.5 361,4152 362.5,4164C365,4179 371,4192 383.5,4205.5C417.5,4243.5 426,4245 567.5,4242.5C659,4241 691.5,4239 727.5,4231Z" style="fill-rule:nonzero;"/>
            <path d="M517.5,4083.5C516,4080 515.5,4006.5 516,3920L517.5,3762.5L627.5,3762.5C750,3762.5 791,3769 831.5,3795C861.5,3814 872,3837 874,3891C876.5,3951.5 867,3978.5 830.5,4015.5C801.5,4044.5 774.5,4057.5 715,4073C648,4090 522.5,4097 517.5,4083.5ZM703,4032.5C775.5,4014 807,3994 825,3954C838,3926 838.5,3874 826,3850C809.5,3817 738.5,3800.5 609.5,3800C570,3800 560.5,3801.5 558,3808C554,3818.5 554,4032 558,4042.5C561,4050 567,4050.5 609.5,4047.5C636,4045.5 678,4039 703,4032.5Z" style="fill-rule:nonzero;"/>
            <g transform="matrix(10,0,0,-10,239.167,4368.4)">
                <path d="M230.133,13.74C249.333,17.89 259.633,28.69 260.483,45.44C261.233,61.14 253.033,71.64 237.533,74.79C231.233,76.09 221.183,76.84 214.483,76.49L209.083,76.19L209.083,89.39C209.083,101.34 208.983,102.79 208.083,104.69C206.833,107.54 204.633,108.84 201.133,108.84C198.983,108.84 198.083,108.59 196.683,107.54C193.433,105.04 193.583,107.09 193.583,61.29L193.583,19.69L194.833,17.54C196.333,15.04 198.233,13.54 200.883,12.84C201.983,12.59 207.883,12.44 214.083,12.54C223.133,12.69 226.283,12.89 230.133,13.74ZM209.083,27.84L209.083,60.84L218.233,60.84C232.033,60.79 237.983,59.64 241.833,56.29C246.133,52.49 246.183,42.34 241.933,36.74C237.833,31.34 226.933,27.84 214.233,27.84L209.083,27.84Z" style="fill:white;"/>
            </g>
            <path d="M2277.5,4285.5C2228,4280.5 2203.5,4270.5 2175.5,4243.5C2132,4201.5 2135,4238 2135,3754.5L2135,3326L2149,3299.5C2174.5,3250 2226,3227 2281,3240C2313.5,3248 2356,3287.5 2364.5,3318C2367.5,3329.5 2370,3384.5 2370,3449C2370,3534 2371.5,3560 2376.5,3560.5C2379.5,3560.5 2399.5,3560.5 2420,3560C2471.5,3559.5 2568,3569 2623.5,3580C2735,3603 2809.5,3655.5 2851.5,3741C2876,3791 2885,3831.5 2885,3898C2885,3964 2874,4014.5 2847,4070C2832.5,4099.5 2818.5,4117.5 2783,4152.5C2744,4191.5 2730,4201.5 2685,4224C2629,4251.5 2562,4271.5 2497.5,4279.5C2440,4287 2324,4290 2277.5,4285.5ZM2540.5,4231C2732.5,4189.5 2835.5,4081.5 2844,3914C2851.5,3757 2769.5,3652 2614.5,3620.5C2551.5,3607.5 2451,3600 2384,3603.5L2330,3606.5L2330,3474.5C2330,3355 2329,3340.5 2320,3321.5C2307.5,3293 2285.5,3280 2250.5,3280C2229,3280 2220,3282.5 2206,3293C2173.5,3318 2175,3297.5 2175,3755.5L2175,4171.5L2187.5,4193C2202.5,4218 2221.5,4233 2248,4240C2259,4242.5 2318,4244 2380,4243C2470.5,4241.5 2502,4239.5 2540.5,4231Z" style="fill-rule:nonzero;"/>
            <path d="M2330,4090L2330,3760L2421.5,3760C2559.5,3760.5 2619,3772 2657.5,3805.5C2700.5,3843.5 2701,3945 2658.5,4001C2617.5,4055 2508.5,4090 2381.5,4090L2330,4090ZM2499.5,4037C2560.5,4024.5 2590,4011 2616,3985C2635,3965.5 2640,3955.5 2645,3932C2652,3900 2649,3867 2637.5,3845.5C2626.5,3824 2586,3810.5 2515,3804.5C2483.5,3801.5 2438.5,3800 2415,3801L2372.5,3802.5L2371,3920C2370.5,3984.5 2371,4040.5 2372.5,4044.5C2376,4053 2440,4049 2499.5,4037Z" style="fill-rule:nonzero;"/>
            <g transform="matrix(10,0,0,-10,239.167,4368.4)">
                <path d="M139.683,13.84C145.933,15.19 152.233,17.49 156.283,19.94C163.283,24.04 170.383,32.69 173.583,40.89C176.383,48.14 176.783,50.69 176.833,61.09C176.833,70.59 176.833,70.59 175.183,75.29C170.233,89.44 161.933,99.74 151.333,104.84C143.983,108.39 140.833,109.04 131.833,108.99C120.283,108.94 114.033,106.94 106.583,101.04C97.783,93.99 91.333,81.54 89.533,67.99C88.683,61.59 89.233,51.29 90.783,45.34C94.533,30.59 104.533,18.64 116.333,14.79C123.083,12.64 132.483,12.24 139.683,13.84ZM123.033,29.04C116.933,30.74 111.433,35.59 108.283,42.14C103.133,52.89 103.433,68.39 109.083,79.64C111.983,85.39 115.233,88.89 119.883,91.19C123.183,92.79 124.283,93.09 129.333,93.49C134.183,93.94 135.533,93.84 138.683,93.09C143.483,91.94 147.433,89.84 150.733,86.59C167.083,70.49 164.533,41.24 145.983,32.14C138.933,28.69 129.183,27.39 123.033,29.04Z" style="fill:white;"/>
            </g>
            <path d="M1495,4279.5C1471.5,4277.5 1441.5,4273.5 1427.5,4270.5C1368,4256.5 1296,4218.5 1250,4177C1192.5,4125 1131,4018 1106.5,3926.5C1094,3881 1093,3870 1093,3772.5C1092.5,3674.5 1093.5,3664 1106,3615C1154,3425 1273,3290.5 1429.5,3249C1485,3234.5 1593.5,3231 1652.5,3242.5C1770,3264.5 1881.5,3338 1948.5,3437.5C1977,3480 2012.5,3553 2031,3606.5C2046,3649.5 2047,3658 2049,3737.5C2052,3861 2038,3931 1992,4020C1923,4154 1810,4236 1647.5,4269.5C1588.5,4281.5 1553,4283.5 1495,4279.5ZM1636,4230C1698.5,4216.5 1761.5,4193.5 1802,4169C1872,4128 1943,4041.5 1975,3959.5C2003,3887 2007,3861.5 2007.5,3757.5C2007.5,3662.5 2007.5,3662.5 1991,3615.5C1941.5,3474 1858.5,3371 1752.5,3320C1679,3284.5 1647.5,3278 1557.5,3278.5C1442,3279 1379.5,3299 1305,3358C1217,3428.5 1152.5,3553 1134.5,3688.5C1126,3752.5 1131.5,3855.5 1147,3915C1184.5,4062.5 1284.5,4182 1402.5,4220.5C1470,4242 1564,4246 1636,4230Z" style="fill-rule:nonzero;"/>
            <path d="M1469.5,4078C1408.5,4061 1353.5,4012.5 1322,3947C1270.5,3839.5 1273.5,3684.5 1330,3572C1359,3514.5 1391.5,3479.5 1438,3456.5C1471,3440.5 1482,3437.5 1532.5,3433.5C1581,3429 1594.5,3430 1626,3437.5C1674,3449 1713.5,3470 1746.5,3502.5C1910,3663.5 1884.5,3956 1699,4047C1628.5,4081.5 1531,4094.5 1469.5,4078ZM1613,4035C1667.5,4020.5 1700.5,4003.5 1735,3971.5C1800,3911.5 1829,3804.5 1807.5,3702.5C1789.5,3617 1744,3543.5 1687.5,3507.5C1644.5,3480 1617.5,3474 1548.5,3475.5C1494,3477.5 1484.5,3479 1459,3491.5C1404.5,3518 1362,3579 1339,3663.5C1325.5,3713.5 1324.5,3820 1337.5,3869.5C1347,3907.5 1370,3954.5 1391.5,3981C1437.5,4038 1521,4058.5 1613,4035Z" style="fill-rule:nonzero;"/>
            <g transform="matrix(10,0,0,-10,239.167,4368.4)">
                <path d="M416.883,15.34C419.133,15.84 422.183,16.84 423.733,17.54C433.933,22.04 441.483,31.44 441.983,40.19L442.183,43.79L440.183,45.89C438.383,47.84 437.983,48.04 435.283,48.24C432.783,48.39 432.033,48.24 430.583,47.24C428.783,46.04 428.583,45.69 426.183,40.34C424.433,36.39 422.283,34.19 418.433,32.34C408.233,27.44 394.533,30.09 389.333,37.99C385.233,44.24 383.833,52.54 384.233,68.04C384.533,82.14 385.883,86.09 391.233,88.74C401.133,93.69 427.983,92.09 429.433,86.44C429.583,85.74 429.433,83.89 429.083,82.34C428.733,80.84 428.333,78.69 428.233,77.59C427.683,72.04 434.383,67.99 439.583,70.79C441.783,71.94 442.983,73.94 444.133,78.49C447.383,90.79 441.833,100.69 429.483,104.59C427.283,105.29 422.433,106.24 418.633,106.69C412.883,107.39 410.583,107.44 403.833,106.94C399.183,106.64 394.183,105.99 391.833,105.39C378.983,102.04 371.833,94.29 369.583,81.04C368.333,73.94 368.233,56.69 369.333,49.04C372.083,30.64 381.133,19.59 396.783,15.54C402.783,13.99 411.033,13.89 416.883,15.34Z" style="fill:white;"/>
            </g>
            <path d="M4262.5,4265C4206.5,4259 4166,4247 4110,4219C4064.5,4196.5 4051.5,4187.5 4012.5,4148C3963,4098.5 3938.5,4057 3912.5,3979C3876.5,3869.5 3870.5,3648 3900.5,3520C3915,3459 3939.5,3411 3978,3370C4017.5,3328.5 4046,3309.5 4098.5,3290C4239.5,3239 4481,3245 4596,3303C4638,3324 4683,3365 4701.5,3399C4724.5,3441.5 4731.5,3476 4729,3532C4723,3647.5 4677.5,3709.5 4598.5,3710C4512,3710 4461,3635.5 4487.5,3548C4491.5,3534.5 4495,3522 4495,3520C4495,3518 4481,3512.5 4464,3507C4437.5,3499 4416.5,3497.5 4330,3497.5C4134,3497.5 4122.5,3510 4122.5,3722.5C4123,3848.5 4128,3884 4153,3940.5C4180,4000 4232,4028 4315,4027C4344.5,4026.5 4366.5,4023 4387,4016C4438,3997.5 4459.5,3974.5 4475,3921.5C4489.5,3874 4530.5,3845 4584,3845C4633.5,3845 4669.5,3865.5 4690,3905C4711,3946.5 4706.5,3997 4675,4063C4610.5,4198 4435.5,4283.5 4262.5,4265ZM4408,4215C4430.5,4210 4461,4200 4476.5,4193C4578.5,4148 4654,4054 4659,3966.5L4661,3930.5L4641,3909.5C4623,3890 4619,3888 4592,3886C4567,3884.5 4559.5,3886 4545,3896C4527,3908 4525,3911.5 4501,3965C4483.5,4004.5 4462,4026.5 4423.5,4045C4321.5,4094 4184.5,4067.5 4132.5,3988.5C4091.5,3926 4077.5,3843 4081.5,3688C4084.5,3547 4098,3507.5 4151.5,3481C4250.5,3431.5 4519,3447.5 4533.5,3504C4535,3511 4533.5,3529.5 4530,3545C4526.5,3560 4522.5,3581.5 4521.5,3592.5C4516,3648 4583,3688.5 4635,3660.5C4657,3649 4669,3629 4680.5,3583.5C4713,3460.5 4657.5,3361.5 4534,3322.5C4512,3315.5 4463.5,3306 4425.5,3301.5C4368,3294.5 4345,3294 4277.5,3299C4231,3302 4181,3308.5 4157.5,3314.5C4029,3348 3957.5,3425.5 3935,3558C3922.5,3629 3921.5,3801.5 3932.5,3878C3960,4062 4050.5,4172.5 4207,4213C4267,4228.5 4349.5,4229.5 4408,4215Z" style="fill-rule:nonzero;"/>
            <g transform="matrix(10,0,0,-10,239.167,4368.4)">
                <path d="M531.333,14.79C535.183,16.54 535.633,17.74 536.833,29.04C537.783,38.44 537.783,52.64 536.833,61.34C533.083,94.84 522.083,110.84 502.783,110.84C492.533,110.84 481.883,105.49 475.733,97.19C470.833,90.59 467.983,81.94 466.083,67.84C465.783,65.79 465.333,54.54 465.083,42.89C464.583,19.79 464.583,19.59 467.333,17.44C469.133,15.99 471.683,15.34 473.933,15.69C476.233,16.09 479.283,19.04 479.783,21.39C479.983,22.34 480.333,32.44 480.583,43.84C480.833,55.24 481.283,66.29 481.583,68.34C482.433,73.79 485.083,82.14 487.233,85.94C490.933,92.59 498.033,96.19 505.283,95.14C510.183,94.39 515.683,86.89 518.583,76.94C522.133,64.64 523.133,38.74 520.583,24.04C520.133,21.44 521.083,17.69 522.583,16.04C524.683,13.84 528.183,13.34 531.333,14.79Z" style="fill:white;"/>
            </g>
            <path d="M5465.5,4257C5446.5,4247.5 5434.5,4237 5425,4221.5C5400,4182.5 5398.5,4163 5410,4065.5C5433.5,3865 5412,3650 5356.5,3536.5C5320.5,3463 5292.5,3446 5232,3462.5C5173.5,3478.5 5139.5,3522 5113,3616.5C5093,3686 5090,3724 5085.5,3947.5C5081.5,4141 5080.5,4159.5 5071.5,4180C5045.5,4238.5 4984.5,4267.5 4927.5,4248C4893.5,4236.5 4873,4219 4858,4189C4845,4163 4845,4163 4845,4035.5C4845,3710.5 4867,3550 4927.5,3430C4992.5,3301 5126,3218.5 5270,3219C5447.5,3219.5 5563.5,3341 5621.5,3587.5C5648.5,3701.5 5652.5,3745 5652.5,3915C5652.5,4178.5 5637.5,4235 5560.5,4262.5C5527.5,4274 5496,4272 5465.5,4257ZM5552.5,4220.5C5591,4203 5595.5,4191 5607.5,4078C5617,3984 5617,3842 5607.5,3755C5570,3420 5460,3260 5267,3260C5164.5,3260 5058,3313.5 4996.5,3396.5C4947.5,3462.5 4919,3549 4900,3690C4897,3710.5 4892.5,3823 4890,3939.5C4885,4170.5 4885,4172.5 4912.5,4194C4930.5,4208.5 4956,4215 4978.5,4211.5C5001.5,4207.5 5032,4178 5037,4154.5C5039,4145 5042.5,4044 5045,3930C5047.5,3816 5052,3705.5 5055,3685C5063.5,3630.5 5090,3547 5111.5,3509C5148.5,3442.5 5219.5,3406.5 5292,3417C5341,3424.5 5396,3499.5 5425,3599C5460.5,3722 5470.5,3981 5445,4128C5440.5,4154 5450,4191.5 5465,4208C5486,4230 5521,4235 5552.5,4220.5Z" style="fill-rule:nonzero;"/>
            <g transform="matrix(10,0,0,-10,239.167,4368.4)">
                <path d="M313.933,15.14C319.033,15.89 325.883,17.94 329.833,19.99C335.833,22.99 343.183,29.34 346.683,34.54C355.733,47.74 356.233,66.19 347.883,79.54C343.683,86.24 335.483,93.39 327.183,97.59C316.133,103.09 300.833,106.79 289.033,106.84C285.183,106.84 284.433,106.69 281.583,105.19C279.833,104.34 277.983,103.04 277.483,102.34C276.033,100.34 275.583,95.89 275.583,83.09C275.583,65.79 277.033,48.39 279.733,33.24C280.233,30.44 280.283,28.79 279.933,26.94C279.483,24.89 279.583,24.19 280.383,22.54C281.633,20.04 283.783,18.59 288.883,17.09C297.433,14.44 305.333,13.84 313.933,15.14ZM300.883,30.34C298.983,30.59 297.283,30.94 297.083,31.19C296.733,31.54 295.033,39.74 294.333,44.59C292.733,55.89 292.083,65.09 292.083,77.54L292.083,90.99L295.983,90.69C300.633,90.34 309.983,87.99 314.933,85.89C323.383,82.29 329.433,77.64 333.133,71.99C336.933,66.14 338.133,60.74 337.133,53.74C335.833,44.49 330.733,37.94 321.333,33.54C315.183,30.64 307.983,29.49 300.883,30.34Z" style="fill:white;"/>
            </g>
            <path d="M3213.5,4259.5C3172.5,4253.5 3123.5,4241 3082.5,4226C3018.5,4202.5 2990,4159 2996.5,4096C2998.5,4077.5 2996.5,4047 2990,4010C2963.5,3853.5 2953.5,3705 2956,3510L2957.5,3367.5L2971.5,3339C2987.5,3306.5 3005.5,3291.5 3050.5,3272.5C3082,3259 3083.5,3258.5 3160,3261.5C3290,3266.5 3398,3294 3518,3352.5C3722,3452 3829,3615 3818,3810C3811.5,3930 3768.5,4027.5 3685.5,4110.5C3585,4211 3443,4266.5 3291,4264.5C3264.5,4264 3229.5,4262 3213.5,4259.5ZM3378.5,4217C3429.5,4209.5 3498,4189 3537.5,4168.5C3597.5,4138.5 3671,4075 3706,4023C3796.5,3891 3801.5,3706.5 3718,3573C3676,3506 3594,3434.5 3511,3392.5C3400.5,3337.5 3247.5,3300.5 3129.5,3300C3091,3300 3083.5,3301.5 3055,3316.5C3037.5,3325 3019,3338 3014,3345C2999.5,3365 2995,3409.5 2995,3537.5C2995,3710.5 3009.5,3884.5 3036.5,4036C3041.5,4064 3042,4080.5 3038.5,4099C3034,4119.5 3035,4126.5 3043,4143C3055.5,4168 3077,4182.5 3128,4197.5C3213.5,4224 3292.5,4230 3378.5,4217Z" style="fill-rule:nonzero;"/>
            <path d="M3248,4065C3229,4062.5 3212,4059 3210,4056.5C3206.5,4053 3189.5,3971 3182.5,3922.5C3166.5,3809.5 3160,3717.5 3160,3593L3160,3458.5L3199,3461.5C3245.5,3465 3339,3488.5 3388.5,3509.5C3473,3545.5 3533.5,3592 3570.5,3648.5C3608.5,3707 3620.5,3761 3610.5,3831C3597.5,3923.5 3546.5,3989 3452.5,4033C3391,4062 3319,4073.5 3248,4065ZM3377.5,4017.5C3443,4000.5 3505,3961 3535,3917.5C3563,3877 3571,3845 3569,3782.5C3567.5,3734 3565.5,3724 3553.5,3699C3514,3618.5 3417.5,3553.5 3287,3520C3254.5,3511.5 3222,3505 3215,3506L3202.5,3507.5L3201,3607.5C3200,3684.5 3202,3729.5 3210,3802.5C3220.5,3897 3238,4013 3243,4021C3247.5,4028 3346.5,4025.5 3377.5,4017.5Z" style="fill-rule:nonzero;"/>
        </g>
    </g>
</svg>
